DaiBannaSILMaster-ExtraBold.ufo
<glyph name="exclam" format="2">
  <advance width="488"/>
  <unicode hex="0021"/>
  <outline>
    <contour>
      <point x="343" y="919" type="line" smooth="yes"/>
      <point x="343" y="883"/>
      <point x="340" y="779"/>
      <point x="337" y="758" type="curve" smooth="yes"/>
      <point x="275" y="342" type="line" smooth="yes"/>
      <point x="270" y="310"/>
      <point x="186" y="311"/>
      <point x="181" y="342" type="curve" smooth="yes"/>
      <point x="119" y="758" type="line" smooth="yes"/>
      <point x="114" y="795"/>
      <point x="112" y="887"/>
      <point x="112" y="923" type="curve" smooth="yes" name="hr01"/>
      <point x="112" y="956"/>
      <point x="131" y="968"/>
      <point x="228" y="968" type="curve" smooth="yes"/>
      <point x="329" y="968"/>
      <point x="343" y="950"/>
      <point x="343" y="919" type="curve" smooth="yes"/>
    </contour>
    <contour>
      <point x="338" y="123" type="line" smooth="yes"/>
      <point x="338" y="40"/>
      <point x="289" y="-17"/>
      <point x="228" y="-17" type="curve" smooth="yes"/>
      <point x="169" y="-17"/>
      <point x="118" y="38"/>
      <point x="118" y="123" type="curve" smooth="yes"/>
      <point x="118" y="209"/>
      <point x="165" y="259"/>
      <point x="228" y="259" type="curve" smooth="yes"/>
      <point x="290" y="259"/>
      <point x="338" y="204"/>
      <point x="338" y="123" type="curve" smooth="yes"/>
    </contour>
  </outline>
</glyph>
<glyph name="quotedbl" format="2">
  <advance width="929"/>
  <unicode hex="0022"/>
  <outline>
    <contour>
      <point x="665" y="776" type="line" smooth="yes"/>
      <point x="668" y="764"/>
      <point x="708" y="762"/>
      <point x="711" y="776" type="curve" smooth="yes"/>
      <point x="783" y="1103" type="line" smooth="yes"/>
      <point x="806" y="1207"/>
      <point x="814" y="1287"/>
      <point x="814" y="1315" type="curve" smooth="yes"/>
      <point x="814" y="1407"/>
      <point x="760" y="1457"/>
      <point x="689" y="1457" type="curve" smooth="yes"/>
      <point x="619" y="1457"/>
      <point x="569" y="1420"/>
      <point x="569" y="1302" type="curve" smooth="yes"/>
      <point x="569" y="1267"/>
      <point x="574" y="1194"/>
      <point x="593" y="1105" type="curve" smooth="yes"/>
    </contour>
    <contour>
      <point x="231" y="776" type="line" smooth="yes"/>
      <point x="234" y="764"/>
      <point x="274" y="762"/>
      <point x="277" y="776" type="curve" smooth="yes"/>
      <point x="349" y="1103" type="line" smooth="yes"/>
      <point x="372" y="1207"/>
      <point x="380" y="1287"/>
      <point x="380" y="1315" type="curve" smooth="yes"/>
      <point x="380" y="1407"/>
      <point x="326" y="1457"/>
      <point x="255" y="1457" type="curve" smooth="yes"/>
      <point x="185" y="1457"/>
      <point x="135" y="1420"/>
      <point x="135" y="1302" type="curve" smooth="yes"/>
      <point x="135" y="1267"/>
      <point x="140" y="1194"/>
      <point x="159" y="1105" type="curve" smooth="yes"/>
    </contour>
  </outline>
</glyph>
<glyph name="numbersign" format="2">
  <advance width="1140"/>
  <unicode hex="0023"/>
  <outline>
    <contour>
      <point x="1100" y="511" type="line" smooth="yes"/>
      <point x="1100" y="472"/>
      <point x="1100" y="446"/>
      <point x="1088" y="446" type="curve" smooth="yes"/>
      <point x="815" y="446" type="line"/>
      <point x="723" y="-7" type="line" smooth="yes"/>
      <point x="721" y="-16"/>
      <point x="677" y="-17"/>
      <point x="646" y="-17" type="curve" smooth="yes" name="hr01"/>
      <point x="613" y="-17"/>
      <point x="568" y="-16"/>
      <point x="570" y="-7" type="curve" smooth="yes"/>
      <point x="660" y="446" type="line" name="hr02"/>
      <point x="352" y="446" type="line"/>
      <point x="261" y="-7" type="line" smooth="yes"/>
      <point x="259" y="-16"/>
      <point x="215" y="-17"/>
      <point x="184" y="-17" type="curve" smooth="yes" name="hr03"/>
      <point x="151" y="-17"/>
      <point x="106" y="-16"/>
      <point x="108" y="-7" type="curve" smooth="yes"/>
      <point x="199" y="446" type="line" name="hr04"/>
      <point x="52" y="446" type="line" smooth="yes"/>
      <point x="40" y="446"/>
      <point x="40" y="472"/>
      <point x="40" y="509" type="curve" smooth="yes"/>
      <point x="40" y="548"/>
      <point x="40" y="574"/>
      <point x="52" y="574" type="curve" smooth="yes"/>
      <point x="227" y="574" type="line"/>
      <point x="300" y="939" type="line"/>
      <point x="52" y="939" type="line" smooth="yes"/>
      <point x="40" y="939"/>
      <point x="40" y="955"/>
      <point x="40" y="992" type="curve" smooth="yes"/>
      <point x="40" y="1031"/>
      <point x="40" y="1067"/>
      <point x="52" y="1067" type="curve" smooth="yes"/>
      <point x="327" y="1067" type="line"/>
      <point x="421" y="1533" type="line" smooth="yes"/>
      <point x="423" y="1542"/>
      <point x="465" y="1543"/>
      <point x="496" y="1543" type="curve" smooth="yes" name="hr05"/>
      <point x="529" y="1543"/>
      <point x="573" y="1542"/>
      <point x="571" y="1533" type="curve" smooth="yes"/>
      <point x="479" y="1067" type="line" name="hr06"/>
      <point x="787" y="1067" type="line"/>
      <point x="887" y="1533" type="line" smooth="yes"/>
      <point x="889" y="1542"/>
      <point x="931" y="1543"/>
      <point x="962" y="1543" type="curve" smooth="yes" name="hr07"/>
      <point x="995" y="1543"/>
      <point x="1039" y="1542"/>
      <point x="1037" y="1533" type="curve" smooth="yes"/>
      <point x="938" y="1067" type="line" name="hr08"/>
      <point x="1088" y="1067" type="line" smooth="yes"/>
      <point x="1100" y="1067"/>
      <point x="1100" y="1031"/>
      <point x="1100" y="994" type="curve" smooth="yes"/>
      <point x="1100" y="955"/>
      <point x="1100" y="939"/>
      <point x="1088" y="939" type="curve" smooth="yes"/>
      <point x="917" y="939" type="line"/>
      <point x="842" y="574" type="line"/>
      <point x="1088" y="574" type="line" smooth="yes"/>
      <point x="1100" y="574"/>
      <point x="1100" y="548"/>
      <point x="1100" y="511" type="curve" smooth="yes"/>
    </contour>
    <contour>
      <point x="763" y="939" type="line"/>
      <point x="454" y="939" type="line"/>
      <point x="379" y="574" type="line"/>
      <point x="688" y="574" type="line"/>
    </contour>
  </outline>
</glyph>
<glyph name="dollar" format="2">
  <advance width="998"/>
  <unicode hex="0024"/>
  <outline>
    <contour>
      <point x="498" y="-171" type="curve" smooth="yes"/>
      <point x="534" y="-171"/>
      <point x="575" y="-169"/>
      <point x="575" y="-150" type="curve" smooth="yes"/>
      <point x="575" y="-112"/>
      <point x="575" y="-65"/>
      <point x="574" y="-12" type="curve"/>
      <point x="807" y="17"/>
      <point x="938" y="165"/>
      <point x="938" y="390" type="curve" smooth="yes"/>
      <point x="938" y="635"/>
      <point x="744" y="758"/>
      <point x="566" y="888" type="curve" name="hr03"/>
      <point x="568" y="1054"/>
      <point x="572" y="1265"/>
      <point x="574" y="1425" type="curve"/>
      <point x="659" y="1380"/>
      <point x="684" y="1242"/>
      <point x="701" y="1215" type="curve" smooth="yes"/>
      <point x="719" y="1186"/>
      <point x="746" y="1180"/>
      <point x="848" y="1253" type="curve" smooth="yes"/>
      <point x="897" y="1288"/>
      <point x="905" y="1305"/>
      <point x="889" y="1335" type="curve" smooth="yes"/>
      <point x="846" y="1416"/>
      <point x="714" y="1476"/>
      <point x="574" y="1493" type="curve"/>
      <point x="574" y="1533"/>
      <point x="575" y="1568"/>
      <point x="575" y="1595" type="curve" smooth="yes"/>
      <point x="575" y="1614"/>
      <point x="535" y="1615"/>
      <point x="498" y="1615" type="curve" smooth="yes"/>
      <point x="460" y="1615"/>
      <point x="421" y="1614"/>
      <point x="421" y="1595" type="curve" smooth="yes" name="hr02"/>
      <point x="421" y="1567"/>
      <point x="422" y="1532"/>
      <point x="422" y="1492" type="curve"/>
      <point x="222" y="1461"/>
      <point x="100" y="1306"/>
      <point x="100" y="1144" type="curve" smooth="yes"/>
      <point x="100" y="902"/>
      <point x="256" y="804"/>
      <point x="430" y="669" type="curve"/>
      <point x="429" y="509"/>
      <point x="426" y="259"/>
      <point x="423" y="59" type="curve" name="hr01"/>
      <point x="340" y="107"/>
      <point x="325" y="249"/>
      <point x="303" y="295" type="curve" smooth="yes"/>
      <point x="298" y="306"/>
      <point x="259" y="308"/>
      <point x="166" y="254" type="curve" smooth="yes"/>
      <point x="99" y="215"/>
      <point x="84" y="191"/>
      <point x="101" y="161" type="curve" smooth="yes"/>
      <point x="139" y="94"/>
      <point x="260" y="6"/>
      <point x="422" y="-13" type="curve"/>
      <point x="421" y="-65"/>
      <point x="421" y="-112"/>
      <point x="421" y="-150" type="curve" smooth="yes"/>
      <point x="421" y="-169"/>
      <point x="461" y="-171"/>
    </contour>
    <contour>
      <point x="573" y="54" type="curve" name="hr04"/>
      <point x="566" y="565" type="line"/>
      <point x="720" y="444"/>
      <point x="777" y="384"/>
      <point x="777" y="281" type="curve" smooth="yes"/>
      <point x="777" y="193"/>
      <point x="703" y="88"/>
    </contour>
    <contour>
      <point x="429" y="990" type="curve"/>
      <point x="290" y="1097"/>
      <point x="258" y="1143"/>
      <point x="258" y="1248" type="curve" smooth="yes"/>
      <point x="258" y="1336"/>
      <point x="331" y="1400"/>
      <point x="422" y="1426" type="curve"/>
      <point x="424" y="1297"/>
      <point x="427" y="1136"/>
    </contour>
  </outline>
</glyph>
<glyph name="percent" format="2">
  <advance width="1466"/>
  <unicode hex="0025"/>
  <outline>
    <contour>
      <point x="716" y="1155" type="line" smooth="yes"/>
      <point x="716" y="990"/>
      <point x="602" y="813"/>
      <point x="408" y="813" type="curve" smooth="yes"/>
      <point x="211" y="813"/>
      <point x="100" y="998"/>
      <point x="100" y="1155" type="curve" smooth="yes"/>
      <point x="100" y="1303"/>
      <point x="207" y="1498"/>
      <point x="408" y="1498" type="curve" smooth="yes"/>
      <point x="615" y="1498"/>
      <point x="716" y="1309"/>
      <point x="716" y="1155" type="curve" smooth="yes"/>
    </contour>
    <contour>
      <point x="503" y="1155" type="line" smooth="yes"/>
      <point x="503" y="1311"/>
      <point x="496" y="1437"/>
      <point x="408" y="1437" type="curve" smooth="yes"/>
      <point x="334" y="1437"/>
      <point x="315" y="1308"/>
      <point x="315" y="1155" type="curve" smooth="yes"/>
      <point x="315" y="994"/>
      <point x="334" y="874"/>
      <point x="408" y="874" type="curve" smooth="yes"/>
      <point x="496" y="874"/>
      <point x="503" y="1000"/>
      <point x="503" y="1155" type="curve" smooth="yes"/>
    </contour>
    <contour>
      <point x="1366" y="325" type="line" smooth="yes"/>
      <point x="1366" y="160"/>
      <point x="1252" y="-17"/>
      <point x="1058" y="-17" type="curve" smooth="yes"/>
      <point x="861" y="-17"/>
      <point x="750" y="168"/>
      <point x="750" y="325" type="curve" smooth="yes"/>
      <point x="750" y="473"/>
      <point x="857" y="668"/>
      <point x="1058" y="668" type="curve" smooth="yes"/>
      <point x="1265" y="668"/>
      <point x="1366" y="479"/>
      <point x="1366" y="325" type="curve" smooth="yes"/>
    </contour>
    <contour>
      <point x="1153" y="325" type="line" smooth="yes"/>
      <point x="1153" y="481"/>
      <point x="1146" y="607"/>
      <point x="1058" y="607" type="curve" smooth="yes"/>
      <point x="984" y="607"/>
      <point x="965" y="478"/>
      <point x="965" y="325" type="curve" smooth="yes"/>
      <point x="965" y="164"/>
      <point x="984" y="44"/>
      <point x="1058" y="44" type="curve" smooth="yes"/>
      <point x="1146" y="44"/>
      <point x="1153" y="170"/>
      <point x="1153" y="325" type="curve" smooth="yes"/>
    </contour>
    <contour>
      <point x="1184" y="1478" type="line"/>
      <point x="461" y="3" type="line" smooth="yes"/>
      <point x="452" y="-15"/>
      <point x="442" y="-17"/>
      <point x="371" y="-17" type="curve" smooth="yes"/>
      <point x="297" y="-17"/>
      <point x="289" y="-14"/>
      <point x="297" y="3" type="curve" smooth="yes"/>
      <point x="1025" y="1478" type="line" smooth="yes"/>
      <point x="1033" y="1495"/>
      <point x="1050" y="1498"/>
      <point x="1111" y="1498" type="curve" smooth="yes"/>
      <point x="1176" y="1498"/>
      <point x="1193" y="1496"/>
      <point x="1184" y="1478" type="curve" smooth="yes"/>
    </contour>
  </outline>
</glyph>
<glyph name="ampersand" format="2">
  <advance width="1267"/>
  <unicode hex="0026"/>
  <outline>
    <contour>
      <point x="1194" y="134" type="line" smooth="yes"/>
      <point x="1207" y="127"/>
      <point x="1202" y="104"/>
      <point x="1131" y="42" type="curve" smooth="yes"/>
      <point x="1073" y="-9"/>
      <point x="984" y="-30"/>
      <point x="967" y="-17" type="curve" smooth="yes" name="hr01"/>
      <point x="910" y="27"/>
      <point x="852" y="79"/>
      <point x="793" y="139" type="curve"/>
      <point x="698" y="44"/>
      <point x="586" y="-17"/>
      <point x="462" y="-17" type="curve" smooth="yes"/>
      <point x="260" y="-17"/>
      <point x="80" y="48"/>
      <point x="80" y="301" type="curve" smooth="yes"/>
      <point x="80" y="524"/>
      <point x="210" y="656"/>
      <point x="349" y="770" type="curve"/>
      <point x="291" y="897"/>
      <point x="256" y="1019"/>
      <point x="256" y="1122" type="curve" smooth="yes" name="hr02"/>
      <point x="256" y="1384"/>
      <point x="445" y="1498"/>
      <point x="596" y="1498" type="curve" smooth="yes"/>
      <point x="776" y="1498"/>
      <point x="903" y="1400"/>
      <point x="903" y="1227" type="curve" smooth="yes"/>
      <point x="903" y="1060"/>
      <point x="706" y="940"/>
      <point x="546" y="780" type="curve"/>
      <point x="598" y="648"/>
      <point x="685" y="510"/>
      <point x="828" y="381" type="curve"/>
      <point x="908" y="567"/>
      <point x="931" y="807"/>
      <point x="902" y="910" type="curve" smooth="yes"/>
      <point x="897" y="928"/>
      <point x="910" y="934"/>
      <point x="1024" y="895" type="curve" smooth="yes"/>
      <point x="1144" y="854"/>
      <point x="1152" y="840"/>
      <point x="1150" y="830" type="curve" smooth="yes"/>
      <point x="1112" y="667"/>
      <point x="1034" y="466"/>
      <point x="924" y="300" type="curve"/>
      <point x="1001" y="242"/>
      <point x="1090" y="186"/>
      <point x="1194" y="134" type="curve" smooth="yes"/>
    </contour>
    <contour>
      <point x="679" y="1208" type="line" smooth="yes"/>
      <point x="679" y="1330"/>
      <point x="666" y="1438"/>
      <point x="596" y="1438" type="curve" smooth="yes"/>
      <point x="505" y="1438"/>
      <point x="478" y="1326"/>
      <point x="478" y="1137" type="curve" smooth="yes"/>
      <point x="478" y="1065"/>
      <point x="486" y="985"/>
      <point x="507" y="899" type="curve"/>
      <point x="604" y="984"/>
      <point x="679" y="1076"/>
      <point x="679" y="1208" type="curve" smooth="yes"/>
    </contour>
    <contour>
      <point x="723" y="214" type="line"/>
      <point x="611" y="339"/>
      <point x="505" y="484"/>
      <point x="422" y="629" type="curve"/>
      <point x="374" y="553"/>
      <point x="342" y="466"/>
      <point x="342" y="363" type="curve" smooth="yes" name="hr03"/>
      <point x="342" y="220"/>
      <point x="409" y="133"/>
      <point x="548" y="133" type="curve" smooth="yes" name="hr04"/>
      <point x="616" y="133"/>
      <point x="674" y="164"/>
      <point x="723" y="214" type="curve"/>
    </contour>
  </outline>
</glyph>
<glyph name="quotesingle" format="2">
  <advance width="412"/>
  <unicode hex="0027"/>
  <outline>
    <contour>
      <point x="330" y="1315" type="line" smooth="yes"/>
      <point x="330" y="1287"/>
      <point x="322" y="1207"/>
      <point x="299" y="1103" type="curve" smooth="yes"/>
      <point x="227" y="776" type="line" smooth="yes"/>
      <point x="224" y="762"/>
      <point x="184" y="764"/>
      <point x="181" y="776" type="curve" smooth="yes"/>
      <point x="109" y="1105" type="line" smooth="yes"/>
      <point x="90" y="1194"/>
      <point x="85" y="1267"/>
      <point x="85" y="1302" type="curve" smooth="yes"/>
      <point x="85" y="1420"/>
      <point x="135" y="1457"/>
      <point x="205" y="1457" type="curve" smooth="yes"/>
      <point x="276" y="1457"/>
      <point x="330" y="1407"/>
      <point x="330" y="1315" type="curve" smooth="yes"/>
    </contour>
  </outline>
</glyph>
<glyph name="parenleft" format="2">
  <advance width="728"/>
  <unicode hex="0028"/>
  <outline>
    <contour>
      <point x="830" y="-610" type="line" smooth="yes"/>
      <point x="806" y="-627"/>
      <point x="761" y="-621"/>
      <point x="703" y="-596" type="curve" smooth="yes"/>
      <point x="455" y="-489"/>
      <point x="158" y="-168"/>
      <point x="161" y="473" type="curve" smooth="yes"/>
      <point x="164" y="1135"/>
      <point x="481" y="1459"/>
      <point x="703" y="1581" type="curve" smooth="yes"/>
      <point x="754" y="1609"/>
      <point x="819" y="1611"/>
      <point x="832" y="1591" type="curve" smooth="yes"/>
      <point x="839" y="1580"/>
      <point x="823" y="1570"/>
      <point x="755" y="1529" type="curve" smooth="yes"/>
      <point x="610" y="1443"/>
      <point x="401" y="1063"/>
      <point x="401" y="483" type="curve" smooth="yes"/>
      <point x="401" y="-67"/>
      <point x="625" y="-484"/>
      <point x="755" y="-544" type="curve" smooth="yes"/>
      <point x="822" y="-575"/>
      <point x="845" y="-599"/>
      <point x="830" y="-610" type="curve" smooth="yes"/>
    </contour>
  </outline>
</glyph>
<glyph name="parenright" format="2">
  <advance width="728"/>
  <unicode hex="0029"/>
  <outline>
    <contour>
      <point x="-105" y="-610" type="curve" smooth="yes"/>
      <point x="-92" y="-630"/>
      <point x="-26" y="-628"/>
      <point x="25" y="-600" type="curve" smooth="yes"/>
      <point x="246" y="-478"/>
      <point x="564" y="-154"/>
      <point x="567" y="508" type="curve" smooth="yes"/>
      <point x="570" y="1149"/>
      <point x="273" y="1470"/>
      <point x="25" y="1577" type="curve" smooth="yes"/>
      <point x="-33" y="1602"/>
      <point x="-79" y="1608"/>
      <point x="-103" y="1591" type="curve" smooth="yes"/>
      <point x="-118" y="1580"/>
      <point x="-95" y="1556"/>
      <point x="-28" y="1525" type="curve" smooth="yes"/>
      <point x="102" y="1465"/>
      <point x="327" y="1049"/>
      <point x="327" y="499" type="curve" smooth="yes"/>
      <point x="327" y="-81"/>
      <point x="117" y="-462"/>
      <point x="-28" y="-548" type="curve" smooth="yes"/>
      <point x="-96" y="-589"/>
      <point x="-112" y="-599"/>
    </contour>
  </outline>
</glyph>
<glyph name="asterisk" format="2">
  <advance width="1025"/>
  <unicode hex="002A"/>
  <outline>
    <contour>
      <point x="644" y="727" type="curve" smooth="yes"/>
      <point x="663" y="702"/>
      <point x="689" y="694"/>
      <point x="774" y="756" type="curve" smooth="yes"/>
      <point x="857" y="816"/>
      <point x="858" y="844"/>
      <point x="840" y="869" type="curve" smooth="yes"/>
      <point x="766" y="971"/>
      <point x="634" y="997"/>
      <point x="563" y="1103" type="curve"/>
      <point x="682" y="1151"/>
      <point x="806" y="1087"/>
      <point x="927" y="1126" type="curve" smooth="yes"/>
      <point x="956" y="1136"/>
      <point x="971" y="1160"/>
      <point x="938" y="1260" type="curve" smooth="yes"/>
      <point x="907" y="1357"/>
      <point x="881" y="1366"/>
      <point x="852" y="1356" type="curve" smooth="yes"/>
      <point x="732" y="1317"/>
      <point x="667" y="1200"/>
      <point x="544" y="1164" type="curve"/>
      <point x="536" y="1293"/>
      <point x="635" y="1391"/>
      <point x="635" y="1518" type="curve" smooth="yes"/>
      <point x="635" y="1549"/>
      <point x="616" y="1570"/>
      <point x="511" y="1570" type="curve" smooth="yes"/>
      <point x="409" y="1570"/>
      <point x="393" y="1549"/>
      <point x="393" y="1518" type="curve" smooth="yes"/>
      <point x="393" y="1392"/>
      <point x="484" y="1294"/>
      <point x="480" y="1166" type="curve"/>
      <point x="355" y="1198"/>
      <point x="293" y="1322"/>
      <point x="172" y="1361" type="curve" smooth="yes"/>
      <point x="142" y="1371"/>
      <point x="116" y="1360"/>
      <point x="83" y="1259" type="curve" smooth="yes"/>
      <point x="52" y="1163"/>
      <point x="67" y="1141"/>
      <point x="97" y="1131" type="curve" smooth="yes"/>
      <point x="217" y="1092"/>
      <point x="338" y="1149"/>
      <point x="459" y="1105" type="curve"/>
      <point x="390" y="997"/>
      <point x="253" y="976"/>
      <point x="178" y="872" type="curve" smooth="yes"/>
      <point x="159" y="847"/>
      <point x="163" y="818"/>
      <point x="248" y="756" type="curve" smooth="yes"/>
      <point x="330" y="696"/>
      <point x="355" y="705"/>
      <point x="373" y="730" type="curve" smooth="yes"/>
      <point x="448" y="832"/>
      <point x="431" y="965"/>
      <point x="510" y="1066" type="curve"/>
      <point x="592" y="967"/>
      <point x="569" y="830"/>
    </contour>
  </outline>
</glyph>
<glyph name="plus" format="2">
  <advance width="800"/>
  <unicode hex="002B"/>
  <outline>
    <contour>
      <point x="747" y="530"/>
      <point x="754" y="557" type="curve"/>
      <point x="722" y="588" type="line"/>
      <point x="92" y="588" type="line"/>
      <point x="81" y="564"/>
      <point x="52" y="504"/>
      <point x="46" y="477" type="curve"/>
      <point x="78" y="446" type="line"/>
      <point x="707" y="446" type="line"/>
      <point x="716" y="466"/>
    </contour>
    <contour>
      <point x="449" y="191"/>
      <point x="473" y="203" type="curve"/>
      <point x="473" y="839" type="line"/>
      <point x="442" y="869" type="line"/>
      <point x="415" y="862"/>
      <point x="354" y="840"/>
      <point x="331" y="833" type="curve"/>
      <point x="331" y="195" type="line"/>
      <point x="363" y="165" type="line"/>
      <point x="390" y="171"/>
    </contour>
  </outline>
</glyph>
<glyph name="comma" format="2">
  <advance width="449"/>
  <unicode hex="002C"/>
  <outline>
    <contour>
      <point x="358" y="56" type="line" smooth="yes"/>
      <point x="358" y="-286"/>
      <point x="130" y="-423"/>
      <point x="123" y="-397" type="curve" smooth="yes"/>
      <point x="117" y="-378"/>
      <point x="273" y="-227"/>
      <point x="273" y="-56" type="curve" smooth="yes"/>
      <point x="273" y="-21"/>
      <point x="268" y="10"/>
      <point x="260" y="10" type="curve" smooth="yes"/>
      <point x="250" y="10"/>
      <point x="242" y="-17"/>
      <point x="212" y="-17" type="curve" smooth="yes"/>
      <point x="158" y="-17"/>
      <point x="96" y="37"/>
      <point x="96" y="138" type="curve" smooth="yes" name="hr01"/>
      <point x="96" y="238"/>
      <point x="149" y="296"/>
      <point x="212" y="296" type="curve" smooth="yes"/>
      <point x="308" y="296"/>
      <point x="358" y="185"/>
      <point x="358" y="56" type="curve" smooth="yes"/>
    </contour>
  </outline>
</glyph>
<glyph name="period" format="2">
  <advance width="421"/>
  <unicode hex="002E"/>
  <outline>
    <contour>
      <point x="211" y="-17" type="curve" smooth="yes"/>
      <point x="273" y="-17"/>
      <point x="325" y="45"/>
      <point x="325" y="141" type="curve" smooth="yes"/>
      <point x="325" y="243"/>
      <point x="273" y="295"/>
      <point x="211" y="295" type="curve" smooth="yes"/>
      <point x="153" y="295"/>
      <point x="96" y="242"/>
      <point x="96" y="141" type="curve" smooth="yes"/>
      <point x="96" y="43"/>
      <point x="152" y="-17"/>
    </contour>
  </outline>
</glyph>
<glyph name="slash" format="2">
  <advance width="697"/>
  <unicode hex="002F"/>
  <outline>
    <contour>
      <point x="79" y="-35" type="curve" smooth="yes"/>
      <point x="125" y="-35"/>
      <point x="158" y="-28"/>
      <point x="162" y="-16" type="curve" smooth="yes"/>
      <point x="693" y="1564" type="line" smooth="yes"/>
      <point x="698" y="1579"/>
      <point x="668" y="1584"/>
      <point x="625" y="1584" type="curve" smooth="yes"/>
      <point x="581" y="1584"/>
      <point x="549" y="1579"/>
      <point x="544" y="1564" type="curve" smooth="yes"/>
      <point x="8" y="-16" type="line" smooth="yes"/>
      <point x="4" y="-28"/>
      <point x="32" y="-35"/>
    </contour>
  </outline>
</glyph>
<glyph name="one" format="2">
  <advance width="956"/>
  <unicode hex="0031"/>
  <outline>
    <contour>
      <point x="703" y="24" type="line" smooth="yes"/>
      <point x="703" y="-17"/>
      <point x="640" y="-17"/>
      <point x="588" y="-17" type="curve" smooth="yes"/>
      <point x="536" y="-17"/>
      <point x="473" y="-17"/>
      <point x="473" y="24" type="curve" smooth="yes"/>
      <point x="473" y="76"/>
      <point x="493" y="505"/>
      <point x="493" y="769" type="curve" smooth="yes" name="hr01"/>
      <point x="493" y="936"/>
      <point x="485" y="1140"/>
      <point x="479" y="1281" type="curve"/>
      <point x="418" y="1169"/>
      <point x="353" y="1018"/>
      <point x="325" y="914" type="curve" smooth="yes"/>
      <point x="319" y="893"/>
      <point x="285" y="898"/>
      <point x="241" y="931" type="curve" smooth="yes"/>
      <point x="175" y="980"/>
      <point x="161" y="1002"/>
      <point x="175" y="1015" type="curve" smooth="yes"/>
      <point x="226" y="1063"/>
      <point x="469" y="1400"/>
      <point x="473" y="1447" type="curve" smooth="yes" name="hr02"/>
      <point x="476" y="1488"/>
      <point x="538" y="1488"/>
      <point x="588" y="1488" type="curve" smooth="yes"/>
      <point x="638" y="1488"/>
      <point x="703" y="1488"/>
      <point x="703" y="1447" type="curve" smooth="yes"/>
      <point x="703" y="1389"/>
      <point x="683" y="1033"/>
      <point x="683" y="769" type="curve" smooth="yes" name="hr03"/>
      <point x="683" y="505"/>
      <point x="703" y="76"/>
      <point x="703" y="24" type="curve" smooth="yes" name="hr04"/>
    </contour>
  </outline>
</glyph>
<glyph name="two" format="2">
  <advance width="956"/>
  <unicode hex="0032"/>
  <outline>
    <contour>
      <point x="867" y="89" type="line" smooth="yes"/>
      <point x="879" y="16"/>
      <point x="866" y="2"/>
      <point x="854" y="0" type="curve" smooth="yes"/>
      <point x="775" y="-16"/>
      <point x="691" y="-16"/>
      <point x="550" y="-16" type="curve" smooth="yes"/>
      <point x="141" y="-16" type="line" smooth="yes"/>
      <point x="102" y="-16"/>
      <point x="82" y="0"/>
      <point x="82" y="106" type="curve" smooth="yes"/>
      <point x="82" y="316"/>
      <point x="157" y="412"/>
      <point x="380" y="657" type="curve" smooth="yes"/>
      <point x="552" y="846"/>
      <point x="611" y="1001"/>
      <point x="611" y="1172" type="curve" smooth="yes"/>
      <point x="611" y="1324"/>
      <point x="577" y="1439"/>
      <point x="471" y="1439" type="curve" smooth="yes"/>
      <point x="354" y="1439"/>
      <point x="326" y="1357"/>
      <point x="296" y="1214" type="curve" smooth="yes"/>
      <point x="291" y="1190"/>
      <point x="234" y="1186"/>
      <point x="163" y="1241" type="curve" smooth="yes"/>
      <point x="94" y="1294"/>
      <point x="99" y="1326"/>
      <point x="110" y="1340" type="curve" smooth="yes"/>
      <point x="178" y="1428"/>
      <point x="298" y="1498"/>
      <point x="501" y="1498" type="curve" smooth="yes"/>
      <point x="719" y="1498"/>
      <point x="869" y="1413"/>
      <point x="869" y="1186" type="curve" smooth="yes"/>
      <point x="869" y="1040"/>
      <point x="818" y="987"/>
      <point x="493" y="622" type="curve" smooth="yes"/>
      <point x="378" y="493"/>
      <point x="341" y="399"/>
      <point x="341" y="216" type="curve" smooth="yes"/>
      <point x="341" y="147"/>
      <point x="372" y="116"/>
      <point x="396" y="116" type="curve" smooth="yes"/>
      <point x="580" y="116" type="line" smooth="yes"/>
      <point x="729" y="116"/>
      <point x="774" y="152"/>
      <point x="829" y="173" type="curve" smooth="yes"/>
      <point x="838" y="176"/>
      <point x="856" y="158"/>
      <point x="867" y="89" type="curve" smooth="yes"/>
    </contour>
  </outline>
</glyph>
<glyph name="three" format="2">
  <advance width="956"/>
  <unicode hex="0033"/>
  <outline>
    <contour>
      <point x="886" y="448" type="line" smooth="yes"/>
      <point x="886" y="197"/>
      <point x="744" y="-17"/>
      <point x="456" y="-17" type="curve" smooth="yes"/>
      <point x="262" y="-17"/>
      <point x="144" y="85"/>
      <point x="101" y="161" type="curve" smooth="yes"/>
      <point x="84" y="191"/>
      <point x="99" y="215"/>
      <point x="166" y="254" type="curve" smooth="yes"/>
      <point x="259" y="308"/>
      <point x="298" y="306"/>
      <point x="303" y="295" type="curve" smooth="yes"/>
      <point x="330" y="240"/>
      <point x="336" y="43"/>
      <point x="444" y="43" type="curve" smooth="yes"/>
      <point x="559" y="43"/>
      <point x="624" y="233"/>
      <point x="624" y="450" type="curve" smooth="yes"/>
      <point x="624" y="683"/>
      <point x="584" y="818"/>
      <point x="428" y="791" type="curve" smooth="yes"/>
      <point x="423" y="790"/>
      <point x="411" y="800"/>
      <point x="410" y="854" type="curve" smooth="yes"/>
      <point x="409" y="890"/>
      <point x="417" y="909"/>
      <point x="437" y="909" type="curve" smooth="yes"/>
      <point x="559" y="909"/>
      <point x="578" y="991"/>
      <point x="578" y="1142" type="curve" smooth="yes" name="hr01"/>
      <point x="578" y="1300"/>
      <point x="557" y="1439"/>
      <point x="451" y="1439" type="curve" smooth="yes"/>
      <point x="319" y="1439"/>
      <point x="336" y="1247"/>
      <point x="316" y="1215" type="curve" smooth="yes"/>
      <point x="298" y="1186"/>
      <point x="271" y="1180"/>
      <point x="169" y="1253" type="curve" smooth="yes"/>
      <point x="120" y="1288"/>
      <point x="112" y="1305"/>
      <point x="128" y="1335" type="curve" smooth="yes"/>
      <point x="179" y="1431"/>
      <point x="337" y="1498"/>
      <point x="471" y="1498" type="curve" smooth="yes"/>
      <point x="715" y="1498"/>
      <point x="829" y="1347"/>
      <point x="829" y="1166" type="curve" smooth="yes"/>
      <point x="829" y="1016"/>
      <point x="745" y="890"/>
      <point x="625" y="857" type="curve"/>
      <point x="772" y="822"/>
      <point x="886" y="677"/>
      <point x="886" y="448" type="curve" smooth="yes" name="hr02"/>
    </contour>
  </outline>
</glyph>
<glyph name="five" format="2">
  <advance width="956"/>
  <unicode hex="0035"/>
  <outline>
    <contour>
      <point x="466" y="-17" type="curve" smooth="yes"/>
      <point x="704" y="-17"/>
      <point x="896" y="150"/>
      <point x="896" y="468" type="curve" smooth="yes"/>
      <point x="896" y="840"/>
      <point x="707" y="969"/>
      <point x="497" y="969" type="curve" smooth="yes" name="hr02"/>
      <point x="390" y="969"/>
      <point x="392" y="952"/>
      <point x="379" y="952" type="curve" smooth="yes"/>
      <point x="371" y="952"/>
      <point x="368" y="953"/>
      <point x="370" y="970" type="curve" smooth="yes"/>
      <point x="382" y="1065"/>
      <point x="422" y="1323"/>
      <point x="426" y="1342" type="curve" smooth="yes"/>
      <point x="430" y="1362"/>
      <point x="440" y="1361"/>
      <point x="461" y="1361" type="curve" smooth="yes"/>
      <point x="644" y="1361" type="line" smooth="yes"/>
      <point x="714" y="1361"/>
      <point x="772" y="1318"/>
      <point x="797" y="1310" type="curve" smooth="yes"/>
      <point x="806" y="1307"/>
      <point x="817" y="1313"/>
      <point x="835" y="1389" type="curve" smooth="yes"/>
      <point x="850" y="1448"/>
      <point x="844" y="1474"/>
      <point x="832" y="1478" type="curve" smooth="yes"/>
      <point x="806" y="1488"/>
      <point x="741" y="1491"/>
      <point x="638" y="1491" type="curve" smooth="yes"/>
      <point x="255" y="1491" type="line" smooth="yes"/>
      <point x="222" y="1491"/>
      <point x="212" y="1481"/>
      <point x="212" y="1462" type="curve" smooth="yes"/>
      <point x="212" y="1420"/>
      <point x="141" y="960"/>
      <point x="125" y="890" type="curve" smooth="yes"/>
      <point x="121" y="872"/>
      <point x="136" y="857"/>
      <point x="205" y="824" type="curve" smooth="yes"/>
      <point x="264" y="796"/>
      <point x="304" y="787"/>
      <point x="318" y="787" type="curve" smooth="yes" name="hr01"/>
      <point x="387" y="787"/>
      <point x="367" y="912"/>
      <point x="488" y="912" type="curve" smooth="yes"/>
      <point x="596" y="912"/>
      <point x="634" y="758"/>
      <point x="634" y="490" type="curve" smooth="yes"/>
      <point x="634" y="167"/>
      <point x="541" y="43"/>
      <point x="454" y="43" type="curve" smooth="yes"/>
      <point x="333" y="43"/>
      <point x="355" y="170"/>
      <point x="302" y="295" type="curve" smooth="yes"/>
      <point x="294" y="314"/>
      <point x="248" y="307"/>
      <point x="178" y="261" type="curve" smooth="yes"/>
      <point x="97" y="208"/>
      <point x="85" y="171"/>
      <point x="106" y="150" type="curve" smooth="yes"/>
      <point x="179" y="77"/>
      <point x="295" y="-17"/>
    </contour>
  </outline>
</glyph>
<glyph name="six" format="2">
  <advance width="956"/>
  <unicode hex="0036"/>
  <outline>
    <contour>
      <point x="896" y="496" type="line" smooth="yes"/>
      <point x="896" y="262"/>
      <point x="767" y="-17"/>
      <point x="478" y="-17" type="curve" smooth="yes"/>
      <point x="233" y="-17"/>
      <point x="60" y="215"/>
      <point x="60" y="674" type="curve" smooth="yes"/>
      <point x="60" y="1251"/>
      <point x="272" y="1499"/>
      <point x="538" y="1499" type="curve" smooth="yes"/>
      <point x="660" y="1499"/>
      <point x="776" y="1429"/>
      <point x="839" y="1334" type="curve" smooth="yes"/>
      <point x="851" y="1316"/>
      <point x="833" y="1276"/>
      <point x="762" y="1231" type="curve" smooth="yes"/>
      <point x="676" y="1176"/>
      <point x="646" y="1193"/>
      <point x="646" y="1226" type="curve" smooth="yes" name="hr01"/>
      <point x="646" y="1315"/>
      <point x="609" y="1439"/>
      <point x="526" y="1439" type="curve" smooth="yes"/>
      <point x="384" y="1439"/>
      <point x="336" y="1266"/>
      <point x="325" y="914" type="curve"/>
      <point x="371" y="946"/>
      <point x="423" y="968"/>
      <point x="478" y="968" type="curve" smooth="yes"/>
      <point x="775" y="968"/>
      <point x="896" y="711"/>
      <point x="896" y="496" type="curve" smooth="yes" name="hr02"/>
    </contour>
    <contour>
      <point x="634" y="496" type="line" smooth="yes" name="hr03"/>
      <point x="634" y="670"/>
      <point x="614" y="908"/>
      <point x="478" y="908" type="curve" smooth="yes"/>
      <point x="381" y="908"/>
      <point x="325" y="777"/>
      <point x="323" y="584" type="curve"/>
      <point x="319" y="233"/>
      <point x="352" y="43"/>
      <point x="478" y="43" type="curve" smooth="yes"/>
      <point x="614" y="43"/>
      <point x="634" y="298"/>
      <point x="634" y="496" type="curve" smooth="yes"/>
    </contour>
  </outline>
</glyph>
<glyph name="seven" format="2">
  <advance width="956"/>
  <unicode hex="0037"/>
  <outline>
    <contour>
      <point x="884" y="1382" type="line" smooth="yes"/>
      <point x="884" y="1310"/>
      <point x="851" y="1230"/>
      <point x="620" y="733" type="curve" smooth="yes"/>
      <point x="461" y="390"/>
      <point x="469" y="83"/>
      <point x="469" y="0" type="curve" smooth="yes"/>
      <point x="469" y="-22"/>
      <point x="411" y="-16"/>
      <point x="331" y="-4" type="curve" smooth="yes"/>
      <point x="273" y="5"/>
      <point x="208" y="20"/>
      <point x="211" y="44" type="curve" smooth="yes"/>
      <point x="221" y="128"/>
      <point x="372" y="472"/>
      <point x="516" y="780" type="curve" smooth="yes"/>
      <point x="616" y="994"/>
      <point x="668" y="1150"/>
      <point x="668" y="1263" type="curve" smooth="yes"/>
      <point x="668" y="1343"/>
      <point x="638" y="1361"/>
      <point x="616" y="1361" type="curve" smooth="yes"/>
      <point x="428" y="1361" type="line" smooth="yes"/>
      <point x="298" y="1361"/>
      <point x="228" y="1350"/>
      <point x="139" y="1301" type="curve" smooth="yes"/>
      <point x="131" y="1297"/>
      <point x="114" y="1314"/>
      <point x="93" y="1390" type="curve" smooth="yes"/>
      <point x="77" y="1447"/>
      <point x="82" y="1472"/>
      <point x="94" y="1474" type="curve" smooth="yes"/>
      <point x="173" y="1490"/>
      <point x="278" y="1491"/>
      <point x="418" y="1491" type="curve" smooth="yes"/>
      <point x="848" y="1491" type="line" smooth="yes"/>
      <point x="860" y="1491"/>
      <point x="864" y="1486"/>
      <point x="877" y="1434" type="curve" smooth="yes"/>
      <point x="882" y="1415"/>
      <point x="884" y="1405"/>
      <point x="884" y="1382" type="curve" smooth="yes"/>
    </contour>
  </outline>
</glyph>
<glyph name="eight" format="2">
  <advance width="956"/>
  <unicode hex="0038"/>
  <outline>
    <contour>
      <point x="478" y="-17" type="curve" smooth="yes"/>
      <point x="811" y="-17"/>
      <point x="896" y="251"/>
      <point x="896" y="416" type="curve" smooth="yes"/>
      <point x="896" y="609"/>
      <point x="835" y="794"/>
      <point x="654" y="864" type="curve"/>
      <point x="789" y="919"/>
      <point x="846" y="1038"/>
      <point x="846" y="1160" type="curve" smooth="yes"/>
      <point x="846" y="1314"/>
      <point x="739" y="1498"/>
      <point x="478" y="1498" type="curve" smooth="yes"/>
      <point x="244" y="1498"/>
      <point x="110" y="1308"/>
      <point x="110" y="1160" type="curve" smooth="yes" name="hr01"/>
      <point x="110" y="1042"/>
      <point x="167" y="917"/>
      <point x="310" y="862" type="curve"/>
      <point x="137" y="790"/>
      <point x="60" y="604"/>
      <point x="60" y="416" type="curve" smooth="yes"/>
      <point x="60" y="259"/>
      <point x="145" y="-17"/>
    </contour>
    <contour>
      <point x="478" y="43" type="curve" smooth="yes"/>
      <point x="352" y="43"/>
      <point x="322" y="215"/>
      <point x="322" y="416" type="curve" smooth="yes"/>
      <point x="322" y="640"/>
      <point x="355" y="834"/>
      <point x="478" y="834" type="curve" smooth="yes"/>
      <point x="609" y="834"/>
      <point x="634" y="651"/>
      <point x="634" y="416" type="curve" smooth="yes" name="hr04"/>
      <point x="634" y="218"/>
      <point x="603" y="43"/>
    </contour>
    <contour>
      <point x="478" y="894" type="curve" smooth="yes"/>
      <point x="390" y="894"/>
      <point x="372" y="1018"/>
      <point x="372" y="1160" type="curve" smooth="yes"/>
      <point x="372" y="1286"/>
      <point x="390" y="1438"/>
      <point x="478" y="1438" type="curve" smooth="yes"/>
      <point x="562" y="1438"/>
      <point x="594" y="1299"/>
      <point x="594" y="1160" type="curve" smooth="yes" name="hr03"/>
      <point x="594" y="1018"/>
      <point x="568" y="894"/>
    </contour>
  </outline>
</glyph>
<glyph name="colon" format="2">
  <advance width="422"/>
  <unicode hex="003A"/>
  <outline>
    <contour>
      <point x="211" y="519" type="curve" smooth="yes"/>
      <point x="273" y="519"/>
      <point x="325" y="581"/>
      <point x="325" y="677" type="curve" smooth="yes"/>
      <point x="325" y="779"/>
      <point x="273" y="831"/>
      <point x="211" y="831" type="curve" smooth="yes"/>
      <point x="153" y="831"/>
      <point x="96" y="778"/>
      <point x="96" y="677" type="curve" smooth="yes"/>
      <point x="96" y="579"/>
      <point x="152" y="519"/>
    </contour>
    <contour>
      <point x="211" y="-18" type="curve" smooth="yes"/>
      <point x="273" y="-18"/>
      <point x="325" y="45"/>
      <point x="325" y="141" type="curve" smooth="yes"/>
      <point x="325" y="243"/>
      <point x="273" y="295"/>
      <point x="211" y="295" type="curve" smooth="yes"/>
      <point x="153" y="295"/>
      <point x="96" y="242"/>
      <point x="96" y="141" type="curve" smooth="yes"/>
      <point x="96" y="43"/>
      <point x="152" y="-18"/>
    </contour>
  </outline>
</glyph>
<glyph name="semicolon" format="2">
  <advance width="450"/>
  <unicode hex="003B"/>
  <outline>
    <contour>
      <point x="124" y="-397" type="curve" smooth="yes"/>
      <point x="131" y="-423"/>
      <point x="360" y="-286"/>
      <point x="360" y="56" type="curve" smooth="yes" name="hr01"/>
      <point x="360" y="185"/>
      <point x="309" y="296"/>
      <point x="213" y="296" type="curve" smooth="yes"/>
      <point x="150" y="296"/>
      <point x="97" y="238"/>
      <point x="97" y="138" type="curve" smooth="yes"/>
      <point x="97" y="37"/>
      <point x="159" y="-17"/>
      <point x="213" y="-17" type="curve" smooth="yes"/>
      <point x="243" y="-17"/>
      <point x="251" y="10"/>
      <point x="261" y="10" type="curve" smooth="yes"/>
      <point x="269" y="10"/>
      <point x="274" y="-21"/>
      <point x="274" y="-56" type="curve" smooth="yes"/>
      <point x="274" y="-227"/>
      <point x="118" y="-378"/>
    </contour>
    <contour>
      <point x="211" y="521" type="curve" smooth="yes"/>
      <point x="273" y="521"/>
      <point x="325" y="583"/>
      <point x="325" y="679" type="curve" smooth="yes"/>
      <point x="325" y="781"/>
      <point x="273" y="834"/>
      <point x="211" y="834" type="curve" smooth="yes"/>
      <point x="153" y="834"/>
      <point x="96" y="780"/>
      <point x="96" y="679" type="curve" smooth="yes"/>
      <point x="96" y="581"/>
      <point x="152" y="521"/>
    </contour>
  </outline>
</glyph>
<glyph name="less" format="2">
  <advance width="864"/>
  <unicode hex="003C"/>
  <outline>
    <contour>
      <point x="812" y="794"/>
      <point x="818" y="820" type="curve"/>
      <point x="786" y="852" type="line"/>
      <point x="83" y="601" type="line"/>
      <point x="72" y="576"/>
      <point x="52" y="507"/>
      <point x="46" y="483" type="curve"/>
      <point x="78" y="441" type="line"/>
      <point x="782" y="693" type="line"/>
      <point x="790" y="716"/>
    </contour>
    <contour>
      <point x="792" y="284"/>
      <point x="818" y="309" type="curve"/>
      <point x="793" y="351" type="line"/>
      <point x="83" y="601" type="line"/>
      <point x="72" y="576"/>
      <point x="52" y="507"/>
      <point x="46" y="483" type="curve"/>
      <point x="78" y="441" type="line"/>
      <point x="713" y="217" type="line"/>
      <point x="751" y="240"/>
    </contour>
  </outline>
</glyph>
<glyph name="equal" format="2">
  <advance width="864"/>
  <unicode hex="003D"/>
  <outline>
    <contour>
      <point x="811" y="668"/>
      <point x="818" y="695" type="curve"/>
      <point x="786" y="726" type="line"/>
      <point x="92" y="726" type="line"/>
      <point x="81" y="702"/>
      <point x="52" y="642"/>
      <point x="46" y="615" type="curve"/>
      <point x="78" y="584" type="line"/>
      <point x="771" y="584" type="line"/>
      <point x="781" y="604"/>
    </contour>
    <contour>
      <point x="811" y="392"/>
      <point x="818" y="419" type="curve"/>
      <point x="786" y="450" type="line"/>
      <point x="92" y="450" type="line"/>
      <point x="81" y="426"/>
      <point x="52" y="366"/>
      <point x="46" y="339" type="curve"/>
      <point x="78" y="308" type="line"/>
      <point x="771" y="308" type="line"/>
      <point x="781" y="328"/>
    </contour>
  </outline>
</glyph>
<glyph name="greater" format="2">
  <advance width="864"/>
  <unicode hex="003E"/>
  <outline>
    <contour>
      <point x="818" y="586" type="curve"/>
      <point x="786" y="628" type="line"/>
      <point x="150" y="852" type="line"/>
      <point x="113" y="829"/>
      <point x="72" y="785"/>
      <point x="46" y="760" type="curve"/>
      <point x="70" y="718" type="line"/>
      <point x="558" y="546" type="line"/>
      <point x="81" y="376" type="line"/>
      <point x="74" y="353"/>
      <point x="52" y="275"/>
      <point x="46" y="249" type="curve"/>
      <point x="78" y="217" type="line"/>
      <point x="781" y="468" type="line"/>
      <point x="793" y="499"/>
      <point x="810" y="552"/>
    </contour>
  </outline>
</glyph>
<glyph name="question" format="2">
  <advance width="792"/>
  <unicode hex="003F"/>
  <outline>
    <contour>
      <point x="396" y="323" type="curve" smooth="yes"/>
      <point x="432" y="323"/>
      <point x="484" y="332"/>
      <point x="483" y="341" type="curve" smooth="yes"/>
      <point x="481" y="362"/>
      <point x="477" y="429"/>
      <point x="489" y="442" type="curve" smooth="yes"/>
      <point x="499" y="453"/>
      <point x="696" y="496"/>
      <point x="696" y="723" type="curve" smooth="yes"/>
      <point x="696" y="893"/>
      <point x="567" y="969"/>
      <point x="411" y="969" type="curve" smooth="yes"/>
      <point x="232" y="969"/>
      <point x="170" y="897"/>
      <point x="108" y="808" type="curve" smooth="yes"/>
      <point x="95" y="789"/>
      <point x="96" y="765"/>
      <point x="169" y="740" type="curve" smooth="yes"/>
      <point x="263" y="708"/>
      <point x="280" y="718"/>
      <point x="286" y="748" type="curve" smooth="yes"/>
      <point x="303" y="834"/>
      <point x="322" y="910"/>
      <point x="386" y="910" type="curve" smooth="yes" name="hr01"/>
      <point x="452" y="910"/>
      <point x="485" y="850"/>
      <point x="485" y="718" type="curve" smooth="yes"/>
      <point x="485" y="544"/>
      <point x="332" y="499"/>
      <point x="323" y="487" type="curve" smooth="yes"/>
      <point x="312" y="472"/>
      <point x="305" y="362"/>
      <point x="309" y="340" type="curve" smooth="yes"/>
      <point x="312" y="327"/>
      <point x="356" y="323"/>
    </contour>
    <contour>
      <point x="395" y="-16" type="curve" smooth="yes"/>
      <point x="456" y="-16"/>
      <point x="505" y="41"/>
      <point x="505" y="124" type="curve" smooth="yes" name="hr02"/>
      <point x="505" y="205"/>
      <point x="457" y="260"/>
      <point x="395" y="260" type="curve" smooth="yes"/>
      <point x="332" y="260"/>
      <point x="285" y="210"/>
      <point x="285" y="124" type="curve" smooth="yes"/>
      <point x="285" y="39"/>
      <point x="336" y="-16"/>
    </contour>
  </outline>
</glyph>
<glyph name="at" format="2">
  <advance width="1905"/>
  <unicode hex="0040"/>
  <outline>
    <contour>
      <point x="975" y="-443" type="curve" smooth="yes"/>
      <point x="1394" y="-443"/>
      <point x="1718" y="-203"/>
      <point x="1860" y="165" type="curve"/>
      <point x="1799" y="165" type="line"/>
      <point x="1681" y="-160"/>
      <point x="1367" y="-386"/>
      <point x="985" y="-386" type="curve" smooth="yes"/>
      <point x="553" y="-386"/>
      <point x="195" y="-87"/>
      <point x="195" y="388" type="curve" smooth="yes"/>
      <point x="195" y="889"/>
      <point x="540" y="1322"/>
      <point x="1088" y="1322" type="curve" smooth="yes"/>
      <point x="1468" y="1322"/>
      <point x="1717" y="1051"/>
      <point x="1722" y="705" type="curve" smooth="yes"/>
      <point x="1728" y="282"/>
      <point x="1407" y="71"/>
      <point x="1294" y="71" type="curve" smooth="yes"/>
      <point x="1239" y="71"/>
      <point x="1210" y="114"/>
      <point x="1210" y="152" type="curve" smooth="yes"/>
      <point x="1210" y="216"/>
      <point x="1228" y="286"/>
      <point x="1289" y="488" type="curve" smooth="yes"/>
      <point x="1321" y="594"/>
      <point x="1365" y="737"/>
      <point x="1424" y="934" type="curve"/>
      <point x="1182" y="926" type="line"/>
      <point x="1145" y="812" type="line"/>
      <point x="1139" y="845"/>
      <point x="1127" y="963"/>
      <point x="1007" y="963" type="curve" smooth="yes"/>
      <point x="774" y="963"/>
      <point x="485" y="567"/>
      <point x="485" y="225" type="curve" smooth="yes"/>
      <point x="485" y="116"/>
      <point x="532" y="0"/>
      <point x="648" y="0" type="curve" smooth="yes"/>
      <point x="810" y="0"/>
      <point x="904" y="162"/>
      <point x="1001" y="315" type="curve"/>
      <point x="984" y="263"/>
      <point x="975" y="219"/>
      <point x="975" y="181" type="curve" smooth="yes"/>
      <point x="975" y="49"/>
      <point x="1069" y="0"/>
      <point x="1178" y="0" type="curve" smooth="yes"/>
      <point x="1533" y="0"/>
      <point x="1779" y="335"/>
      <point x="1779" y="703" type="curve" smooth="yes"/>
      <point x="1779" y="1093"/>
      <point x="1529" y="1385"/>
      <point x="1054" y="1385" type="curve" smooth="yes"/>
      <point x="461" y="1385"/>
      <point x="93" y="962"/>
      <point x="93" y="433" type="curve" smooth="yes"/>
      <point x="93" y="-101"/>
      <point x="490" y="-443"/>
    </contour>
    <contour>
      <point x="796" y="185" type="curve" smooth="yes" name="hr01"/>
      <point x="762" y="185"/>
      <point x="745" y="234"/>
      <point x="745" y="274" type="curve" smooth="yes"/>
      <point x="745" y="422"/>
      <point x="887" y="891"/>
      <point x="1030" y="891" type="curve" smooth="yes"/>
      <point x="1166" y="891"/>
      <point x="1072" y="555"/>
      <point x="1018" y="439" type="curve" smooth="yes"/>
      <point x="952" y="298"/>
      <point x="859" y="185"/>
    </contour>
  </outline>
</glyph>
<glyph name="A" format="2">
  <advance width="1480"/>
  <unicode hex="0041"/>
  <outline>
    <contour>
      <point x="1456" y="0" type="line"/>
      <point x="802" y="0" type="line"/>
      <point x="802" y="37" type="line"/>
      <point x="973" y="37"/>
      <point x="981" y="77"/>
      <point x="940" y="177" type="curve" smooth="yes"/>
      <point x="853" y="386" type="line"/>
      <point x="372" y="386" type="line"/>
      <point x="315" y="252" type="line" smooth="yes"/>
      <point x="253" y="107"/>
      <point x="290" y="49"/>
      <point x="467" y="37" type="curve"/>
      <point x="467" y="0" type="line"/>
      <point x="16" y="0" type="line"/>
      <point x="16" y="37" type="line"/>
      <point x="106" y="55"/>
      <point x="153" y="83"/>
      <point x="225" y="242" type="curve" smooth="yes"/>
      <point x="737" y="1385" type="line"/>
      <point x="757" y="1385" type="line"/>
      <point x="1259" y="240" type="line" smooth="yes"/>
      <point x="1331" y="77"/>
      <point x="1385" y="39"/>
      <point x="1456" y="37" type="curve"/>
    </contour>
    <contour>
      <point x="818" y="459" type="line"/>
      <point x="617" y="928" type="line"/>
      <point x="408" y="459" type="line"/>
    </contour>
  </outline>
</glyph>
<glyph name="B" format="2">
  <advance width="1367"/>
  <unicode hex="0042"/>
  <outline>
    <contour>
      <point x="1294" y="370" type="line" smooth="yes"/>
      <point x="1294" y="127"/>
      <point x="1044" y="0"/>
      <point x="788" y="0" type="curve" smooth="yes"/>
      <point x="41" y="0" type="line"/>
      <point x="41" y="37" type="line" name="hr01"/>
      <point x="205" y="37"/>
      <point x="232" y="73"/>
      <point x="232" y="213" type="curve" smooth="yes"/>
      <point x="232" y="1143" type="line" smooth="yes"/>
      <point x="232" y="1283"/>
      <point x="205" y="1318"/>
      <point x="41" y="1318" type="curve"/>
      <point x="41" y="1355" type="line"/>
      <point x="798" y="1355" type="line" smooth="yes"/>
      <point x="1105" y="1355"/>
      <point x="1229" y="1174"/>
      <point x="1229" y="1038" type="curve" smooth="yes" name="hr02"/>
      <point x="1229" y="900"/>
      <point x="1194" y="790"/>
      <point x="908" y="719" type="curve" name="hr03"/>
      <point x="1182" y="666"/>
      <point x="1294" y="548"/>
      <point x="1294" y="370" type="curve" smooth="yes"/>
    </contour>
    <contour>
      <point x="894" y="1013" type="line" smooth="yes" name="hr04"/>
      <point x="894" y="1162"/>
      <point x="827" y="1272"/>
      <point x="613" y="1279" type="curve" smooth="yes"/>
      <point x="548" y="1281" type="line"/>
      <point x="548" y="747" type="line"/>
      <point x="613" y="749" type="line" smooth="yes"/>
      <point x="804" y="754"/>
      <point x="894" y="858"/>
      <point x="894" y="1013" type="curve" smooth="yes"/>
    </contour>
    <contour>
      <point x="942" y="361" type="line" smooth="yes" name="hr05"/>
      <point x="942" y="566"/>
      <point x="821" y="660"/>
      <point x="613" y="666" type="curve" smooth="yes"/>
      <point x="548" y="668" type="line"/>
      <point x="548" y="193" type="line" smooth="yes"/>
      <point x="548" y="99"/>
      <point x="583" y="75"/>
      <point x="658" y="75" type="curve" smooth="yes"/>
      <point x="784" y="75"/>
      <point x="942" y="156"/>
      <point x="942" y="361" type="curve" smooth="yes"/>
    </contour>
  </outline>
</glyph>
<glyph name="C" format="2">
  <advance width="1480"/>
  <unicode hex="0043"/>
  <outline>
    <contour>
      <point x="824" y="-30" type="curve" smooth="yes"/>
      <point x="1103" y="-30"/>
      <point x="1223" y="69"/>
      <point x="1344" y="193" type="curve"/>
      <point x="1344" y="311" type="line"/>
      <point x="1180" y="138"/>
      <point x="1080" y="63"/>
      <point x="877" y="63" type="curve" smooth="yes"/>
      <point x="563" y="63"/>
      <point x="439" y="335"/>
      <point x="439" y="678" type="curve" smooth="yes"/>
      <point x="439" y="1021"/>
      <point x="589" y="1296"/>
      <point x="892" y="1296" type="curve" smooth="yes" name="hr01"/>
      <point x="1088" y="1296"/>
      <point x="1271" y="1172"/>
      <point x="1330" y="918" type="curve"/>
      <point x="1369" y="918" type="line"/>
      <point x="1369" y="1387" type="line"/>
      <point x="1332" y="1387" type="line" name="hr02"/>
      <point x="1314" y="1334"/>
      <point x="1294" y="1287"/>
      <point x="1239" y="1287" type="curve" smooth="yes"/>
      <point x="1200" y="1287"/>
      <point x="1038" y="1385"/>
      <point x="831" y="1385" type="curve" smooth="yes"/>
      <point x="396" y="1385"/>
      <point x="81" y="1032"/>
      <point x="81" y="678" type="curve" smooth="yes"/>
      <point x="81" y="323"/>
      <point x="286" y="-30"/>
    </contour>
  </outline>
</glyph>
<glyph name="D" format="2">
  <advance width="1466"/>
  <unicode hex="0044"/>
  <outline>
    <contour>
      <point x="1381" y="678" type="line" smooth="yes"/>
      <point x="1381" y="292"/>
      <point x="1131" y="0"/>
      <point x="705" y="0" type="curve" smooth="yes"/>
      <point x="28" y="0" type="line"/>
      <point x="28" y="37" type="line" name="hr01"/>
      <point x="191" y="37"/>
      <point x="219" y="73"/>
      <point x="219" y="213" type="curve" smooth="yes"/>
      <point x="219" y="1143" type="line" smooth="yes"/>
      <point x="219" y="1283"/>
      <point x="191" y="1318"/>
      <point x="28" y="1318" type="curve"/>
      <point x="28" y="1355" type="line"/>
      <point x="705" y="1355" type="line" smooth="yes"/>
      <point x="1131" y="1355"/>
      <point x="1381" y="1050"/>
      <point x="1381" y="678" type="curve" smooth="yes"/>
    </contour>
    <contour>
      <point x="1021" y="678" type="line" smooth="yes"/>
      <point x="1021" y="963"/>
      <point x="932" y="1281"/>
      <point x="613" y="1281" type="curve" smooth="yes" name="hr02"/>
      <point x="534" y="1281" type="line"/>
      <point x="534" y="213" type="line" smooth="yes"/>
      <point x="534" y="104"/>
      <point x="558" y="73"/>
      <point x="662" y="73" type="curve" smooth="yes"/>
      <point x="939" y="73"/>
      <point x="1021" y="382"/>
      <point x="1021" y="678" type="curve" smooth="yes"/>
    </contour>
  </outline>
</glyph>
<glyph name="E" format="2">
  <advance width="1008"/>
  <unicode hex="0045"/>
  <anchor x="503" y="0" name="H"/>
  <anchor x="503" y="-92" name="L"/>
  <anchor x="759" y="0" name="O"/>
  <anchor x="1008" y="1012" name="R"/>
  <anchor x="503" y="1260" name="U"/>
  <outline>
    <contour>
      <point x="906" y="1064"/>
      <point x="909" y="1127" type="curve"/>
      <point x="870" y="1159" type="line"/>
      <point x="397" y="1159" type="line"/>
      <point x="370" y="1039" type="line"/>
      <point x="718" y="1039" type="line" smooth="yes"/>
      <point x="763" y="1039"/>
      <point x="788" y="968"/>
      <point x="793" y="855" type="curve"/>
      <point x="872" y="855" type="line"/>
      <point x="886" y="902"/>
    </contour>
    <contour>
      <point x="795" y="607"/>
      <point x="815" y="641" type="curve"/>
      <point x="782" y="676" type="line"/>
      <point x="378" y="676" type="line"/>
      <point x="357" y="571" type="line"/>
      <point x="548" y="571" type="line" smooth="yes"/>
      <point x="651" y="571"/>
      <point x="692" y="556"/>
      <point x="730" y="520" type="curve"/>
      <point x="757" y="540"/>
    </contour>
    <contour>
      <point x="960" y="192"/>
      <point x="969" y="298" type="curve"/>
      <point x="893" y="323" type="line"/>
      <point x="840" y="180"/>
      <point x="801" y="119"/>
      <point x="688" y="119" type="curve" smooth="yes"/>
      <point x="606" y="119" type="line" smooth="yes"/>
      <point x="444" y="119"/>
      <point x="418" y="142"/>
      <point x="418" y="178" type="curve" smooth="yes"/>
      <point x="418" y="1046" type="line" smooth="yes"/>
      <point x="418" y="1062"/>
      <point x="469" y="1074"/>
      <point x="552" y="1082" type="curve"/>
      <point x="552" y="1159" type="line"/>
      <point x="36" y="1159" type="line"/>
      <point x="36" y="1082" type="line"/>
      <point x="125" y="1065"/>
      <point x="161" y="1040"/>
      <point x="161" y="1025" type="curve" smooth="yes"/>
      <point x="161" y="132" type="line" smooth="yes"/>
      <point x="161" y="115"/>
      <point x="119" y="92"/>
      <point x="36" y="76" type="curve"/>
      <point x="36" y="0" type="line"/>
      <point x="931" y="0" type="line"/>
      <point x="942" y="35"/>
    </contour>
  </outline>
</glyph>
<glyph name="F" format="2">
  <advance width="1245"/>
  <unicode hex="0046"/>
  <outline>
    <contour>
      <point x="41" y="0" type="line"/>
      <point x="741" y="0" type="line"/>
      <point x="741" y="37" type="line"/>
      <point x="567" y="37"/>
      <point x="548" y="81"/>
      <point x="548" y="213" type="curve" smooth="yes"/>
      <point x="548" y="644" type="line"/>
      <point x="601" y="644" type="line" smooth="yes"/>
      <point x="794" y="644"/>
      <point x="879" y="518"/>
      <point x="891" y="327" type="curve"/>
      <point x="926" y="327" type="line"/>
      <point x="926" y="1013" type="line"/>
      <point x="892" y="1013" type="line"/>
      <point x="871" y="833"/>
      <point x="794" y="721"/>
      <point x="601" y="721" type="curve" smooth="yes"/>
      <point x="548" y="721" type="line"/>
      <point x="548" y="1281" type="line"/>
      <point x="727" y="1281" type="line" smooth="yes" name="hr01"/>
      <point x="982" y="1281"/>
      <point x="1119" y="1210"/>
      <point x="1143" y="967" type="curve"/>
      <point x="1184" y="967" type="line"/>
      <point x="1184" y="1355" type="line"/>
      <point x="41" y="1355" type="line" name="hr03"/>
      <point x="41" y="1318" type="line" name="hr02"/>
      <point x="205" y="1318"/>
      <point x="232" y="1283"/>
      <point x="232" y="1143" type="curve" smooth="yes"/>
      <point x="232" y="213" type="line" smooth="yes"/>
      <point x="232" y="73"/>
      <point x="205" y="37"/>
      <point x="41" y="37" type="curve"/>
    </contour>
  </outline>
</glyph>
<glyph name="G" format="2">
  <advance width="1594"/>
  <unicode hex="0047"/>
  <outline>
    <contour>
      <point x="816" y="-30" type="curve" smooth="yes"/>
      <point x="1050" y="-30"/>
      <point x="1237" y="12"/>
      <point x="1407" y="87" type="curve"/>
      <point x="1407" y="357" type="line" smooth="yes" name="hr01"/>
      <point x="1407" y="496"/>
      <point x="1426" y="532"/>
      <point x="1566" y="532" type="curve"/>
      <point x="1566" y="569" type="line"/>
      <point x="918" y="569" type="line"/>
      <point x="918" y="532" type="line" name="hr04"/>
      <point x="1058" y="532"/>
      <point x="1091" y="496"/>
      <point x="1091" y="357" type="curve" smooth="yes"/>
      <point x="1091" y="95" type="line"/>
      <point x="1026" y="61"/>
      <point x="962" y="49"/>
      <point x="869" y="49" type="curve" smooth="yes"/>
      <point x="518" y="49"/>
      <point x="435" y="335"/>
      <point x="435" y="678" type="curve" smooth="yes"/>
      <point x="435" y="1021"/>
      <point x="546" y="1306"/>
      <point x="885" y="1306" type="curve" smooth="yes" name="hr03"/>
      <point x="1080" y="1306"/>
      <point x="1302" y="1153"/>
      <point x="1367" y="912" type="curve"/>
      <point x="1407" y="912" type="line"/>
      <point x="1407" y="1387" type="line"/>
      <point x="1369" y="1387" type="line" name="hr02"/>
      <point x="1352" y="1334"/>
      <point x="1322" y="1287"/>
      <point x="1283" y="1287" type="curve" smooth="yes"/>
      <point x="1184" y="1287"/>
      <point x="1109" y="1385"/>
      <point x="824" y="1385" type="curve" smooth="yes"/>
      <point x="355" y="1385"/>
      <point x="77" y="1032"/>
      <point x="77" y="678" type="curve" smooth="yes"/>
      <point x="77" y="323"/>
      <point x="313" y="-30"/>
    </contour>
  </outline>
</glyph>
<glyph name="H" format="2">
  <advance width="1592"/>
  <unicode hex="0048"/>
  <outline>
    <contour>
      <point x="1554" y="0" type="line"/>
      <point x="857" y="0" type="line"/>
      <point x="857" y="37" type="line"/>
      <point x="1021" y="37"/>
      <point x="1048" y="73"/>
      <point x="1048" y="213" type="curve" smooth="yes"/>
      <point x="1048" y="652" type="line"/>
      <point x="546" y="652" type="line"/>
      <point x="546" y="213" type="line" smooth="yes"/>
      <point x="546" y="73"/>
      <point x="573" y="37"/>
      <point x="737" y="37" type="curve"/>
      <point x="737" y="0" type="line"/>
      <point x="39" y="0" type="line"/>
      <point x="39" y="37" type="line"/>
      <point x="203" y="37"/>
      <point x="231" y="73"/>
      <point x="231" y="213" type="curve" smooth="yes"/>
      <point x="231" y="1143" type="line" smooth="yes"/>
      <point x="231" y="1283"/>
      <point x="203" y="1318"/>
      <point x="39" y="1318" type="curve"/>
      <point x="39" y="1355" type="line"/>
      <point x="737" y="1355" type="line"/>
      <point x="737" y="1318" type="line"/>
      <point x="573" y="1318"/>
      <point x="546" y="1283"/>
      <point x="546" y="1143" type="curve" smooth="yes"/>
      <point x="546" y="739" type="line"/>
      <point x="1048" y="739" type="line"/>
      <point x="1048" y="1143" type="line" smooth="yes"/>
      <point x="1048" y="1283"/>
      <point x="1021" y="1318"/>
      <point x="857" y="1318" type="curve"/>
      <point x="857" y="1355" type="line"/>
      <point x="1554" y="1355" type="line"/>
      <point x="1554" y="1318" type="line"/>
      <point x="1391" y="1318"/>
      <point x="1363" y="1283"/>
      <point x="1363" y="1143" type="curve" smooth="yes"/>
      <point x="1363" y="213" type="line" smooth="yes"/>
      <point x="1363" y="73"/>
      <point x="1391" y="37"/>
      <point x="1554" y="37" type="curve"/>
    </contour>
  </outline>
</glyph>
<glyph name="I" format="2">
  <advance width="780"/>
  <unicode hex="0049"/>
  <outline>
    <contour>
      <point x="41" y="0" type="line"/>
      <point x="739" y="0" type="line"/>
      <point x="739" y="37" type="line"/>
      <point x="575" y="37"/>
      <point x="548" y="73"/>
      <point x="548" y="213" type="curve" smooth="yes"/>
      <point x="548" y="1143" type="line" smooth="yes"/>
      <point x="548" y="1283"/>
      <point x="575" y="1318"/>
      <point x="739" y="1318" type="curve"/>
      <point x="739" y="1355" type="line"/>
      <point x="41" y="1355" type="line"/>
      <point x="41" y="1318" type="line"/>
      <point x="205" y="1318"/>
      <point x="232" y="1283"/>
      <point x="232" y="1143" type="curve" smooth="yes"/>
      <point x="232" y="213" type="line" smooth="yes"/>
      <point x="232" y="73"/>
      <point x="205" y="37"/>
      <point x="41" y="37" type="curve"/>
    </contour>
  </outline>
</glyph>
<glyph name="J" format="2">
  <advance width="648"/>
  <unicode hex="004A"/>
  <anchor x="333" y="-552" name="L"/>
  <anchor x="333" y="1260" name="U"/>
  <outline>
    <contour>
      <point x="593" y="1082" type="curve"/>
      <point x="593" y="1159" type="line"/>
      <point x="41" y="1159" type="line"/>
      <point x="41" y="1082" type="line"/>
      <point x="188" y="1061"/>
      <point x="211" y="1040"/>
      <point x="211" y="1025" type="curve" smooth="yes"/>
      <point x="211" y="94" type="line" smooth="yes"/>
      <point x="211" y="-193"/>
      <point x="150" y="-227"/>
      <point x="86" y="-227" type="curve" smooth="yes"/>
      <point x="39" y="-227"/>
      <point x="-27" y="-201"/>
      <point x="-95" y="-138" type="curve"/>
      <point x="-129" y="-150"/>
      <point x="-266" y="-274"/>
      <point x="-266" y="-303" type="curve" smooth="yes"/>
      <point x="-266" y="-333"/>
      <point x="-143" y="-395"/>
      <point x="-23" y="-395" type="curve" smooth="yes"/>
      <point x="70" y="-395"/>
      <point x="174" y="-345"/>
      <point x="240" y="-292" type="curve" smooth="yes"/>
      <point x="336" y="-214"/>
      <point x="469" y="-102"/>
      <point x="469" y="161" type="curve" smooth="yes"/>
      <point x="469" y="1025" type="line" smooth="yes"/>
      <point x="469" y="1043"/>
      <point x="510" y="1065"/>
    </contour>
  </outline>
</glyph>
<glyph name="K" format="2">
  <advance width="1190"/>
  <unicode hex="004B"/>
  <anchor x="294" y="0" name="H"/>
  <anchor x="613" y="-92" name="L"/>
  <anchor x="590" y="1260" name="U"/>
  <outline>
    <contour>
      <point x="1052" y="1072"/>
      <point x="1131" y="1082" type="curve"/>
      <point x="1131" y="1159" type="line"/>
      <point x="708" y="1159" type="line"/>
      <point x="708" y="1082" type="line"/>
      <point x="805" y="1074"/>
      <point x="805" y="1067"/>
      <point x="748" y="1000" type="curve" smooth="yes"/>
      <point x="402" y="591" type="line"/>
      <point x="571" y="591" type="line"/>
      <point x="993" y="1025" type="line" smooth="yes"/>
      <point x="1032" y="1066"/>
    </contour>
    <contour>
      <point x="1118" y="29"/>
      <point x="1190" y="52" type="curve"/>
      <point x="1184" y="128" type="line"/>
      <point x="1120" y="121"/>
      <point x="1082" y="122"/>
      <point x="1044" y="162" type="curve" smooth="yes"/>
      <point x="563" y="663" type="line"/>
      <point x="402" y="591" type="line"/>
      <point x="850" y="26" type="line" smooth="yes"/>
      <point x="874" y="-3"/>
      <point x="900" y="-12"/>
      <point x="936" y="-12" type="curve" smooth="yes"/>
      <point x="995" y="-12"/>
    </contour>
    <contour>
      <point x="36" y="0" type="line"/>
      <point x="542" y="0" type="line"/>
      <point x="542" y="76" type="line"/>
      <point x="453" y="92"/>
      <point x="418" y="117"/>
      <point x="418" y="132" type="curve" smooth="yes"/>
      <point x="418" y="1025" type="line" smooth="yes"/>
      <point x="418" y="1043"/>
      <point x="460" y="1065"/>
      <point x="542" y="1082" type="curve"/>
      <point x="542" y="1159" type="line"/>
      <point x="36" y="1159" type="line"/>
      <point x="36" y="1082" type="line"/>
      <point x="125" y="1065"/>
      <point x="161" y="1040"/>
      <point x="161" y="1025" type="curve" smooth="yes"/>
      <point x="161" y="132" type="line" smooth="yes"/>
      <point x="161" y="115"/>
      <point x="119" y="92"/>
      <point x="36" y="76" type="curve"/>
    </contour>
  </outline>
</glyph>
<glyph name="L" format="2">
  <advance width="1346"/>
  <unicode hex="004C"/>
  <outline>
    <contour>
      <point x="39" y="0" type="line"/>
      <point x="1239" y="0" type="line"/>
      <point x="1290" y="475" type="line"/>
      <point x="1251" y="475" type="line"/>
      <point x="1156" y="138"/>
      <point x="1048" y="75"/>
      <point x="766" y="75" type="curve" smooth="yes" name="hr02"/>
      <point x="563" y="75"/>
      <point x="546" y="93"/>
      <point x="546" y="213" type="curve" smooth="yes"/>
      <point x="546" y="1143" type="line" smooth="yes"/>
      <point x="546" y="1283"/>
      <point x="589" y="1318"/>
      <point x="753" y="1318" type="curve"/>
      <point x="753" y="1355" type="line"/>
      <point x="39" y="1355" type="line"/>
      <point x="39" y="1318" type="line"/>
      <point x="203" y="1318"/>
      <point x="231" y="1283"/>
      <point x="231" y="1143" type="curve" smooth="yes"/>
      <point x="231" y="213" type="line" smooth="yes"/>
      <point x="231" y="73"/>
      <point x="203" y="37"/>
      <point x="39" y="37" type="curve" name="hr01"/>
    </contour>
  </outline>
</glyph>
<glyph name="M" format="2">
  <advance width="1925"/>
  <unicode hex="004D"/>
  <outline>
    <contour>
      <point x="1887" y="0" type="line"/>
      <point x="1188" y="0" type="line"/>
      <point x="1188" y="37" type="line"/>
      <point x="1352" y="37"/>
      <point x="1379" y="73"/>
      <point x="1379" y="213" type="curve" smooth="yes"/>
      <point x="1379" y="1237" type="line"/>
      <point x="859" y="0" type="line"/>
      <point x="835" y="0" type="line"/>
      <point x="307" y="1229" type="line"/>
      <point x="307" y="213" type="line" smooth="yes"/>
      <point x="307" y="91"/>
      <point x="372" y="37"/>
      <point x="504" y="37" type="curve"/>
      <point x="504" y="0" type="line"/>
      <point x="41" y="0" type="line"/>
      <point x="41" y="37" type="line"/>
      <point x="167" y="37"/>
      <point x="232" y="91"/>
      <point x="232" y="213" type="curve" smooth="yes"/>
      <point x="232" y="1143" type="line" smooth="yes"/>
      <point x="232" y="1283"/>
      <point x="205" y="1318"/>
      <point x="41" y="1318" type="curve"/>
      <point x="41" y="1355" type="line"/>
      <point x="597" y="1355" type="line"/>
      <point x="977" y="463" type="line"/>
      <point x="1344" y="1355" type="line"/>
      <point x="1887" y="1355" type="line"/>
      <point x="1887" y="1318" type="line"/>
      <point x="1724" y="1318"/>
      <point x="1694" y="1283"/>
      <point x="1694" y="1143" type="curve" smooth="yes"/>
      <point x="1694" y="213" type="line" smooth="yes"/>
      <point x="1694" y="73"/>
      <point x="1724" y="37"/>
      <point x="1887" y="37" type="curve"/>
    </contour>
  </outline>
</glyph>
<glyph name="N" format="2">
  <advance width="1484"/>
  <unicode hex="004E"/>
  <outline>
    <contour>
      <point x="1222" y="-30" type="line"/>
      <point x="1257" y="-30" type="line"/>
      <point x="1257" y="1143" type="line" smooth="yes" name="hr01"/>
      <point x="1257" y="1265"/>
      <point x="1312" y="1318"/>
      <point x="1438" y="1318" type="curve"/>
      <point x="1438" y="1355" type="line"/>
      <point x="987" y="1355" type="line"/>
      <point x="987" y="1318" type="line" name="hr03"/>
      <point x="1119" y="1318"/>
      <point x="1182" y="1265"/>
      <point x="1182" y="1143" type="curve" smooth="yes"/>
      <point x="1182" y="516" type="line"/>
      <point x="514" y="1355" type="line"/>
      <point x="33" y="1355" type="line"/>
      <point x="33" y="1320" type="line"/>
      <point x="120" y="1320"/>
      <point x="152" y="1296"/>
      <point x="232" y="1192" type="curve"/>
      <point x="232" y="213" type="line" smooth="yes"/>
      <point x="232" y="91"/>
      <point x="160" y="37"/>
      <point x="33" y="37" type="curve"/>
      <point x="33" y="0" type="line"/>
      <point x="514" y="0" type="line"/>
      <point x="514" y="37" type="line" name="hr02"/>
      <point x="382" y="37"/>
      <point x="307" y="91"/>
      <point x="307" y="213" type="curve" smooth="yes"/>
      <point x="307" y="1097" type="line"/>
    </contour>
  </outline>
</glyph>
<glyph name="O" format="2">
  <advance width="1586"/>
  <unicode hex="004F"/>
  <outline>
    <contour>
      <point x="792" y="-30" type="curve" smooth="yes"/>
      <point x="1186" y="-30"/>
      <point x="1513" y="284"/>
      <point x="1513" y="678" type="curve" smooth="yes"/>
      <point x="1513" y="1072"/>
      <point x="1186" y="1385"/>
      <point x="792" y="1385" type="curve" smooth="yes"/>
      <point x="399" y="1385"/>
      <point x="73" y="1071"/>
      <point x="73" y="678" type="curve" smooth="yes"/>
      <point x="73" y="284"/>
      <point x="399" y="-30"/>
    </contour>
    <contour>
      <point x="792" y="45" type="curve" smooth="yes"/>
      <point x="508" y="45"/>
      <point x="433" y="394"/>
      <point x="433" y="678" type="curve" smooth="yes"/>
      <point x="434" y="961"/>
      <point x="508" y="1310"/>
      <point x="792" y="1310" type="curve" smooth="yes"/>
      <point x="1076" y="1310"/>
      <point x="1152" y="962"/>
      <point x="1153" y="678" type="curve" smooth="yes"/>
      <point x="1153" y="394"/>
      <point x="1076" y="45"/>
    </contour>
  </outline>
</glyph>
<glyph name="P" format="2">
  <advance width="1095"/>
  <unicode hex="0050"/>
  <anchor x="528" y="-92" name="L"/>
  <anchor x="528" y="1260" name="U"/>
  <outline>
    <contour>
      <point x="1032" y="606"/>
      <point x="1032" y="861" type="curve" smooth="yes"/>
      <point x="1032" y="1071"/>
      <point x="834" y="1186"/>
      <point x="542" y="1186" type="curve" smooth="yes"/>
      <point x="375" y="1186"/>
      <point x="161" y="1163"/>
      <point x="23" y="1131" type="curve"/>
      <point x="36" y="1037" type="line"/>
      <point x="155" y="1058"/>
      <point x="361" y="1081"/>
      <point x="490" y="1081" type="curve" smooth="yes"/>
      <point x="661" y="1081"/>
      <point x="770" y="988"/>
      <point x="770" y="823" type="curve" smooth="yes"/>
      <point x="770" y="650"/>
      <point x="677" y="579"/>
      <point x="573" y="579" type="curve" smooth="yes"/>
      <point x="529" y="579"/>
      <point x="500" y="584"/>
      <point x="449" y="607" type="curve"/>
      <point x="480" y="501" type="line"/>
      <point x="521" y="483"/>
      <point x="581" y="473"/>
      <point x="637" y="473" type="curve" smooth="yes"/>
      <point x="806" y="473"/>
    </contour>
    <contour>
      <point x="36" y="0" type="line"/>
      <point x="570" y="0" type="line"/>
      <point x="570" y="76" type="line"/>
      <point x="442" y="97"/>
      <point x="418" y="117"/>
      <point x="418" y="132" type="curve" smooth="yes"/>
      <point x="418" y="1085" type="line"/>
      <point x="161" y="1085" type="line"/>
      <point x="161" y="132" type="line" smooth="yes"/>
      <point x="161" y="115"/>
      <point x="119" y="92"/>
      <point x="36" y="76" type="curve"/>
    </contour>
  </outline>
</glyph>
<glyph name="Q" format="2">
  <advance width="1185"/>
  <unicode hex="0051"/>
  <anchor x="618" y="-248" name="L"/>
  <anchor x="618" y="1260" name="U"/>
  <outline>
    <contour>
      <point x="1120" y="262"/>
      <point x="1120" y="595" type="curve" smooth="yes"/>
      <point x="1120" y="895"/>
      <point x="941" y="1186"/>
      <point x="609" y="1186" type="curve" smooth="yes"/>
      <point x="275" y="1186"/>
      <point x="46" y="897"/>
      <point x="46" y="563" type="curve" smooth="yes"/>
      <point x="46" y="253"/>
      <point x="241" y="-27"/>
      <point x="556" y="-27" type="curve" smooth="yes"/>
      <point x="862" y="-27"/>
    </contour>
    <contour>
      <point x="1287" y="-223"/>
      <point x="1345" y="-116" type="curve"/>
      <point x="1292" y="-47" type="line"/>
      <point x="1219" y="-102"/>
      <point x="1196" y="-110"/>
      <point x="1166" y="-110" type="curve" smooth="yes"/>
      <point x="1035" y="-110"/>
      <point x="898" y="7"/>
      <point x="721" y="45" type="curve" smooth="yes"/>
      <point x="689" y="51"/>
      <point x="487" y="18"/>
      <point x="487" y="18" type="curve"/>
      <point x="710" y="-14"/>
      <point x="943" y="-308"/>
      <point x="1161" y="-308" type="curve" smooth="yes"/>
      <point x="1198" y="-308"/>
    </contour>
    <contour>
      <point x="858" y="832"/>
      <point x="858" y="578" type="curve" smooth="yes"/>
      <point x="858" y="253"/>
      <point x="749" y="101"/>
      <point x="601" y="101" type="curve" smooth="yes"/>
      <point x="440" y="101"/>
      <point x="308" y="314"/>
      <point x="308" y="589" type="curve" smooth="yes"/>
      <point x="308" y="889"/>
      <point x="392" y="1062"/>
      <point x="555" y="1062" type="curve" smooth="yes"/>
      <point x="736" y="1062"/>
    </contour>
  </outline>
</glyph>
<glyph name="R" format="2">
  <advance width="1474"/>
  <unicode hex="0052"/>
  <outline>
    <contour>
      <point x="37" y="0" type="line"/>
      <point x="725" y="0" type="line"/>
      <point x="725" y="37" type="line"/>
      <point x="567" y="37"/>
      <point x="538" y="73"/>
      <point x="538" y="203" type="curve" smooth="yes"/>
      <point x="538" y="617" type="line"/>
      <point x="630" y="617" type="line"/>
      <point x="1064" y="0" type="line"/>
      <point x="1491" y="0" type="line"/>
      <point x="1491" y="37" type="line"/>
      <point x="1454" y="37"/>
      <point x="1399" y="55"/>
      <point x="1359" y="110" type="curve" smooth="yes"/>
      <point x="979" y="642" type="line"/>
      <point x="1192" y="688"/>
      <point x="1281" y="829"/>
      <point x="1281" y="987" type="curve" smooth="yes"/>
      <point x="1281" y="1210"/>
      <point x="1101" y="1355"/>
      <point x="794" y="1355" type="curve" smooth="yes"/>
      <point x="37" y="1355" type="line"/>
      <point x="37" y="1318" type="line"/>
      <point x="201" y="1318"/>
      <point x="223" y="1283"/>
      <point x="223" y="1143" type="curve" smooth="yes"/>
      <point x="223" y="213" type="line" smooth="yes"/>
      <point x="223" y="73"/>
      <point x="201" y="37"/>
      <point x="37" y="37" type="curve"/>
    </contour>
    <contour>
      <point x="538" y="692" type="line"/>
      <point x="538" y="1281" type="line"/>
      <point x="672" y="1281" type="line" smooth="yes"/>
      <point x="898" y="1281"/>
      <point x="952" y="1137"/>
      <point x="952" y="987" type="curve" smooth="yes"/>
      <point x="952" y="833"/>
      <point x="889" y="692"/>
      <point x="692" y="692" type="curve" smooth="yes"/>
    </contour>
  </outline>
</glyph>
<glyph name="S" format="2">
  <advance width="1139"/>
  <unicode hex="0053"/>
  <outline>
    <contour>
      <point x="1058" y="384" type="line" smooth="yes"/>
      <point x="1058" y="138"/>
      <point x="849" y="-30"/>
      <point x="583" y="-30" type="curve" smooth="yes"/>
      <point x="382" y="-30"/>
      <point x="341" y="49"/>
      <point x="244" y="49" type="curve" smooth="yes"/>
      <point x="194" y="49"/>
      <point x="167" y="18"/>
      <point x="142" y="-30" type="curve"/>
      <point x="106" y="-30" type="line"/>
      <point x="106" y="481" type="line" name="hr01"/>
      <point x="146" y="481" type="line"/>
      <point x="165" y="294"/>
      <point x="329" y="37"/>
      <point x="589" y="37" type="curve" smooth="yes" name="hr02"/>
      <point x="707" y="37"/>
      <point x="827" y="120"/>
      <point x="827" y="238" type="curve" smooth="yes"/>
      <point x="827" y="556"/>
      <point x="106" y="532"/>
      <point x="106" y="1001" type="curve" smooth="yes"/>
      <point x="106" y="1226"/>
      <point x="282" y="1385"/>
      <point x="532" y="1385" type="curve" smooth="yes"/>
      <point x="707" y="1385"/>
      <point x="798" y="1294"/>
      <point x="871" y="1294" type="curve" smooth="yes"/>
      <point x="906" y="1294"/>
      <point x="922" y="1336"/>
      <point x="930" y="1385" type="curve"/>
      <point x="963" y="1385" type="line"/>
      <point x="973" y="934" type="line" name="hr03"/>
      <point x="932" y="934" type="line"/>
      <point x="896" y="1174"/>
      <point x="711" y="1314"/>
      <point x="538" y="1314" type="curve" smooth="yes" name="hr04"/>
      <point x="429" y="1314"/>
      <point x="323" y="1244"/>
      <point x="323" y="1135" type="curve" smooth="yes"/>
      <point x="323" y="843"/>
      <point x="1058" y="841"/>
      <point x="1058" y="384" type="curve" smooth="yes"/>
    </contour>
  </outline>
</glyph>
<glyph name="T" format="2">
  <advance width="1365"/>
  <unicode hex="0054"/>
  <outline>
    <contour>
      <point x="1292" y="989" type="line"/>
      <point x="1253" y="989" type="line"/>
      <point x="1216" y="1186"/>
      <point x="1141" y="1281"/>
      <point x="952" y="1281" type="curve" smooth="yes" name="hr01"/>
      <point x="839" y="1281" type="line"/>
      <point x="839" y="213" type="line" smooth="yes"/>
      <point x="839" y="73"/>
      <point x="871" y="37"/>
      <point x="1034" y="37" type="curve"/>
      <point x="1034" y="0" type="line"/>
      <point x="329" y="0" type="line"/>
      <point x="329" y="37" type="line"/>
      <point x="493" y="37"/>
      <point x="524" y="73"/>
      <point x="524" y="213" type="curve" smooth="yes"/>
      <point x="524" y="1281" type="line"/>
      <point x="412" y="1281" type="line" smooth="yes"/>
      <point x="225" y="1281"/>
      <point x="150" y="1186"/>
      <point x="112" y="989" type="curve" name="hr02"/>
      <point x="73" y="989" type="line"/>
      <point x="73" y="1355" type="line"/>
      <point x="1292" y="1355" type="line"/>
    </contour>
  </outline>
</glyph>
<glyph name="U" format="2">
  <advance width="1480"/>
  <unicode hex="0055"/>
  <outline>
    <contour>
      <point x="733" y="-30" type="curve" smooth="yes"/>
      <point x="1032" y="-30"/>
      <point x="1253" y="81"/>
      <point x="1253" y="493" type="curve" smooth="yes"/>
      <point x="1253" y="1143" type="line" smooth="yes"/>
      <point x="1253" y="1283"/>
      <point x="1324" y="1318"/>
      <point x="1444" y="1318" type="curve"/>
      <point x="1444" y="1355" type="line"/>
      <point x="975" y="1355" type="line"/>
      <point x="975" y="1318" type="line"/>
      <point x="1103" y="1318"/>
      <point x="1170" y="1283"/>
      <point x="1170" y="1143" type="curve" smooth="yes"/>
      <point x="1170" y="530" type="line" smooth="yes"/>
      <point x="1170" y="205"/>
      <point x="1056" y="69"/>
      <point x="827" y="69" type="curve" smooth="yes"/>
      <point x="599" y="69"/>
      <point x="548" y="209"/>
      <point x="548" y="433" type="curve" smooth="yes"/>
      <point x="548" y="1143" type="line" smooth="yes"/>
      <point x="548" y="1283"/>
      <point x="581" y="1318"/>
      <point x="745" y="1318" type="curve"/>
      <point x="745" y="1355" type="line"/>
      <point x="49" y="1355" type="line"/>
      <point x="49" y="1318" type="line"/>
      <point x="213" y="1318"/>
      <point x="232" y="1283"/>
      <point x="232" y="1143" type="curve" smooth="yes"/>
      <point x="232" y="431" type="line" smooth="yes"/>
      <point x="232" y="120"/>
      <point x="398" y="-30"/>
    </contour>
  </outline>
</glyph>
<glyph name="V" format="2">
  <advance width="1480"/>
  <unicode hex="0056"/>
  <outline>
    <contour>
      <point x="701" y="-30" type="line"/>
      <point x="735" y="-30" type="line"/>
      <point x="1247" y="1113" type="line" smooth="yes"/>
      <point x="1304" y="1239"/>
      <point x="1367" y="1300"/>
      <point x="1458" y="1318" type="curve"/>
      <point x="1458" y="1355" type="line"/>
      <point x="1015" y="1355" type="line"/>
      <point x="1015" y="1318" type="line"/>
      <point x="1178" y="1318"/>
      <point x="1226" y="1248"/>
      <point x="1162" y="1103" type="curve" smooth="yes"/>
      <point x="853" y="406" type="line"/>
      <point x="522" y="1178" type="line" smooth="yes"/>
      <point x="481" y="1273"/>
      <point x="483" y="1318"/>
      <point x="666" y="1318" type="curve"/>
      <point x="666" y="1355" type="line"/>
      <point x="16" y="1355" type="line"/>
      <point x="16" y="1318" type="line"/>
      <point x="99" y="1318"/>
      <point x="126" y="1298"/>
      <point x="205" y="1115" type="curve" smooth="yes"/>
    </contour>
  </outline>
</glyph>
<glyph name="W" format="2">
  <advance width="2049"/>
  <unicode hex="0057"/>
  <outline>
    <contour>
      <point x="648" y="-30" type="line"/>
      <point x="690" y="-30" type="line"/>
      <point x="1058" y="841" type="line"/>
      <point x="1391" y="-30" type="line"/>
      <point x="1432" y="-30" type="line"/>
      <point x="1868" y="1113" type="line" smooth="yes"/>
      <point x="1922" y="1257"/>
      <point x="1941" y="1318"/>
      <point x="2031" y="1318" type="curve"/>
      <point x="2031" y="1355" type="line"/>
      <point x="1679" y="1355" type="line"/>
      <point x="1679" y="1318" type="line"/>
      <point x="1826" y="1318"/>
      <point x="1838" y="1251"/>
      <point x="1783" y="1103" type="curve" smooth="yes"/>
      <point x="1543" y="463" type="line"/>
      <point x="1269" y="1178" type="line" smooth="yes"/>
      <point x="1227" y="1288"/>
      <point x="1249" y="1318"/>
      <point x="1393" y="1318" type="curve"/>
      <point x="1393" y="1355" type="line"/>
      <point x="735" y="1355" type="line"/>
      <point x="735" y="1318" type="line"/>
      <point x="837" y="1318"/>
      <point x="881" y="1301"/>
      <point x="952" y="1115" type="curve" smooth="yes"/>
      <point x="1017" y="944" type="line"/>
      <point x="804" y="430" type="line"/>
      <point x="516" y="1137" type="line" smooth="yes"/>
      <point x="463" y="1267"/>
      <point x="483" y="1318"/>
      <point x="607" y="1318" type="curve"/>
      <point x="607" y="1355" type="line"/>
      <point x="18" y="1355" type="line"/>
      <point x="18" y="1318" type="line"/>
      <point x="87" y="1318"/>
      <point x="115" y="1300"/>
      <point x="189" y="1115" type="curve" smooth="yes"/>
    </contour>
  </outline>
</glyph>
<glyph name="X" format="2">
  <advance width="1480"/>
  <unicode hex="0058"/>
  <outline>
    <contour>
      <point x="1466" y="0" type="line"/>
      <point x="802" y="0" type="line"/>
      <point x="802" y="37" type="line"/>
      <point x="938" y="37"/>
      <point x="963" y="85"/>
      <point x="889" y="195" type="curve" smooth="yes"/>
      <point x="889" y="195"/>
      <point x="712" y="455"/>
      <point x="654" y="542" type="curve"/>
      <point x="471" y="321" type="line" smooth="yes"/>
      <point x="306" y="123"/>
      <point x="319" y="37"/>
      <point x="534" y="37" type="curve"/>
      <point x="534" y="0" type="line"/>
      <point x="14" y="0" type="line"/>
      <point x="14" y="37" type="line"/>
      <point x="140" y="57"/>
      <point x="199" y="103"/>
      <point x="313" y="242" type="curve" smooth="yes"/>
      <point x="613" y="607" type="line"/>
      <point x="394" y="933"/>
      <point x="211" y="1192"/>
      <point x="211" y="1192" type="curve" smooth="yes"/>
      <point x="137" y="1300"/>
      <point x="99" y="1318"/>
      <point x="43" y="1318" type="curve" name="hr01"/>
      <point x="43" y="1355" type="line"/>
      <point x="717" y="1355" type="line"/>
      <point x="717" y="1318" type="line"/>
      <point x="565" y="1318"/>
      <point x="547" y="1274"/>
      <point x="621" y="1162" type="curve" smooth="yes"/>
      <point x="822" y="859" type="line"/>
      <point x="1013" y="1093" type="line" smooth="yes"/>
      <point x="1132" y="1239"/>
      <point x="1062" y="1318"/>
      <point x="926" y="1318" type="curve"/>
      <point x="926" y="1355" type="line"/>
      <point x="1424" y="1355" type="line"/>
      <point x="1424" y="1318" type="line"/>
      <point x="1318" y="1318"/>
      <point x="1283" y="1300"/>
      <point x="1174" y="1168" type="curve" smooth="yes"/>
      <point x="865" y="796" type="line"/>
      <point x="1114" y="423"/>
      <point x="1296" y="164"/>
      <point x="1296" y="164" type="curve" smooth="yes"/>
      <point x="1370" y="56"/>
      <point x="1411" y="37"/>
      <point x="1466" y="37" type="curve" name="hr02"/>
    </contour>
  </outline>
</glyph>
<glyph name="Y" format="2">
  <advance width="1480"/>
  <unicode hex="0059"/>
  <outline>
    <contour>
      <point x="1456" y="1318" type="line"/>
      <point x="1365" y="1318"/>
      <point x="1315" y="1258"/>
      <point x="1188" y="1042" type="curve" smooth="yes"/>
      <point x="896" y="548" type="line"/>
      <point x="896" y="213" type="line" smooth="yes"/>
      <point x="896" y="73"/>
      <point x="954" y="37"/>
      <point x="1117" y="37" type="curve"/>
      <point x="1117" y="0" type="line"/>
      <point x="357" y="0" type="line"/>
      <point x="357" y="37" type="line"/>
      <point x="520" y="37"/>
      <point x="581" y="73"/>
      <point x="581" y="213" type="curve" smooth="yes"/>
      <point x="581" y="495" type="line"/>
      <point x="240" y="1113" type="line" smooth="yes"/>
      <point x="144" y="1288"/>
      <point x="104" y="1318"/>
      <point x="18" y="1318" type="curve" name="hr01"/>
      <point x="18" y="1355" type="line"/>
      <point x="668" y="1355" type="line"/>
      <point x="668" y="1318" type="line"/>
      <point x="524" y="1318"/>
      <point x="507" y="1284"/>
      <point x="563" y="1180" type="curve" smooth="yes"/>
      <point x="859" y="634" type="line"/>
      <point x="1139" y="1105" type="line" smooth="yes"/>
      <point x="1239" y="1274"/>
      <point x="1190" y="1318"/>
      <point x="1042" y="1318" type="curve"/>
      <point x="1042" y="1355" type="line"/>
      <point x="1456" y="1355" type="line"/>
    </contour>
  </outline>
</glyph>
<glyph name="Z" format="2">
  <advance width="1367"/>
  <unicode hex="005A"/>
  <outline>
    <contour>
      <point x="33" y="0" type="line"/>
      <point x="1277" y="0" type="line"/>
      <point x="1330" y="493" type="line"/>
      <point x="1290" y="493" type="line"/>
      <point x="1223" y="173"/>
      <point x="1026" y="75"/>
      <point x="745" y="75" type="curve" smooth="yes"/>
      <point x="453" y="75" type="line"/>
      <point x="1249" y="1355" type="line"/>
      <point x="177" y="1355" type="line"/>
      <point x="142" y="959" type="line"/>
      <point x="177" y="959" type="line"/>
      <point x="234" y="1222"/>
      <point x="426" y="1281"/>
      <point x="530" y="1281" type="curve" smooth="yes"/>
      <point x="829" y="1281" type="line"/>
    </contour>
  </outline>
</glyph>
<glyph name="bracketleft" format="2">
  <advance width="790"/>
  <unicode hex="005B"/>
  <outline>
    <contour>
      <point x="262" y="-442" type="line"/>
      <point x="724" y="-442" type="line"/>
      <point x="724" y="-354" type="line" name="hr03"/>
      <point x="482" y="-354" type="line"/>
      <point x="482" y="1448" type="line" name="hr02"/>
      <point x="724" y="1448" type="line"/>
      <point x="724" y="1532" type="line" name="hr01"/>
      <point x="262" y="1532" type="line"/>
    </contour>
  </outline>
</glyph>
<glyph name="backslash" format="2">
  <advance width="608"/>
  <unicode hex="005C"/>
  <outline>
    <contour>
      <point x="550" y="-25" type="curve" smooth="yes"/>
      <point x="609" y="-25"/>
      <point x="611" y="-18"/>
      <point x="608" y="-5" type="curve" smooth="yes"/>
      <point x="212" y="1555" type="line" smooth="yes"/>
      <point x="208" y="1569"/>
      <point x="198" y="1575"/>
      <point x="150" y="1575" type="curve" smooth="yes"/>
      <point x="90" y="1575"/>
      <point x="83" y="1570"/>
      <point x="87" y="1555" type="curve" smooth="yes"/>
      <point x="487" y="-5" type="line" smooth="yes"/>
      <point x="491" y="-20"/>
      <point x="500" y="-25"/>
    </contour>
  </outline>
</glyph>
<glyph name="bracketright" format="2">
  <advance width="790"/>
  <unicode hex="005D"/>
  <outline>
    <contour>
      <point x="66" y="-444" type="line"/>
      <point x="527" y="-444" type="line"/>
      <point x="527" y="1532" type="line"/>
      <point x="66" y="1532" type="line"/>
      <point x="66" y="1448" type="line" name="hr02"/>
      <point x="308" y="1448" type="line"/>
      <point x="308" y="-354" type="line" name="hr01"/>
      <point x="66" y="-354" type="line"/>
    </contour>
  </outline>
</glyph>
<glyph name="grave" format="2">
  <advance width="600"/>
  <unicode hex="0060"/>
  <anchor x="300" y="1297" name="U"/>
  <outline>
    <contour>
      <point x="403" y="986"/>
      <point x="419" y="1000" type="curve"/>
      <point x="226" y="1397" type="line"/>
      <point x="195" y="1395"/>
      <point x="23" y="1363"/>
      <point x="0" y="1357" type="curve"/>
      <point x="-29" y="1300" type="line"/>
      <point x="331" y="954" type="line"/>
      <point x="352" y="960"/>
    </contour>
  </outline>
</glyph>
<glyph name="a" format="2">
  <advance width="1024"/>
  <unicode hex="0061"/>
  <outline>
    <contour>
      <point x="762" y="-14" type="curve" smooth="yes"/>
      <point x="881" y="-14"/>
      <point x="958" y="77"/>
      <point x="991" y="126" type="curve"/>
      <point x="963" y="154" type="line"/>
      <point x="904" y="83"/>
      <point x="865" y="116"/>
      <point x="865" y="179" type="curve" smooth="yes"/>
      <point x="865" y="670" type="line" smooth="yes"/>
      <point x="865" y="827"/>
      <point x="780" y="963"/>
      <point x="534" y="963" type="curve" smooth="yes"/>
      <point x="337" y="963"/>
      <point x="110" y="865"/>
      <point x="110" y="688" type="curve" smooth="yes"/>
      <point x="110" y="611"/>
      <point x="197" y="562"/>
      <point x="260" y="562" type="curve" smooth="yes"/>
      <point x="330" y="562"/>
      <point x="392" y="607"/>
      <point x="392" y="680" type="curve" smooth="yes" name="hr02"/>
      <point x="392" y="749"/>
      <point x="327" y="762"/>
      <point x="327" y="816" type="curve" smooth="yes" name="hr01"/>
      <point x="327" y="871"/>
      <point x="399" y="885"/>
      <point x="455" y="885" type="curve" smooth="yes"/>
      <point x="546" y="885"/>
      <point x="585" y="831"/>
      <point x="585" y="745" type="curve" smooth="yes"/>
      <point x="585" y="591" type="line"/>
      <point x="242" y="437"/>
      <point x="93" y="329"/>
      <point x="93" y="167" type="curve" smooth="yes"/>
      <point x="93" y="61"/>
      <point x="173" y="-12"/>
      <point x="288" y="-12" type="curve" smooth="yes"/>
      <point x="396" y="-12"/>
      <point x="512" y="75"/>
      <point x="585" y="136" type="curve"/>
      <point x="593" y="63"/>
      <point x="640" y="-14"/>
    </contour>
    <contour>
      <point x="471" y="154" type="curve" smooth="yes"/>
      <point x="412" y="154"/>
      <point x="366" y="197"/>
      <point x="366" y="264" type="curve" smooth="yes" name="hr03"/>
      <point x="366" y="395"/>
      <point x="536" y="493"/>
      <point x="585" y="522" type="curve"/>
      <point x="585" y="213" type="line"/>
      <point x="585" y="213"/>
      <point x="521" y="154"/>
    </contour>
  </outline>
</glyph>
<glyph name="b" format="2">
  <advance width="1143"/>
  <unicode hex="0062"/>
  <outline>
    <contour>
      <point x="1056" y="506" type="line" smooth="yes"/>
      <point x="1056" y="232"/>
      <point x="892" y="-30"/>
      <point x="597" y="-30" type="curve" smooth="yes"/>
      <point x="469" y="-30"/>
      <point x="386" y="35"/>
      <point x="349" y="73" type="curve"/>
      <point x="189" y="-30" type="line"/>
      <point x="154" y="-30" type="line"/>
      <point x="154" y="1212" type="line" smooth="yes"/>
      <point x="154" y="1302"/>
      <point x="114" y="1312"/>
      <point x="43" y="1320" type="curve" name="hr01"/>
      <point x="43" y="1355" type="line"/>
      <point x="433" y="1355" type="line"/>
      <point x="433" y="839" type="line"/>
      <point x="510" y="916"/>
      <point x="584" y="963"/>
      <point x="697" y="963" type="curve" smooth="yes"/>
      <point x="881" y="963"/>
      <point x="1056" y="800"/>
      <point x="1056" y="506" type="curve" smooth="yes"/>
    </contour>
    <contour>
      <point x="760" y="487" type="line" smooth="yes"/>
      <point x="760" y="654"/>
      <point x="739" y="849"/>
      <point x="603" y="849" type="curve" smooth="yes"/>
      <point x="526" y="849"/>
      <point x="473" y="796"/>
      <point x="433" y="751" type="curve"/>
      <point x="433" y="236" type="line" smooth="yes"/>
      <point x="433" y="112"/>
      <point x="495" y="43"/>
      <point x="585" y="43" type="curve" smooth="yes"/>
      <point x="723" y="43"/>
      <point x="760" y="187"/>
      <point x="760" y="487" type="curve" smooth="yes"/>
    </contour>
  </outline>
</glyph>
<glyph name="c" format="2">
  <advance width="910"/>
  <unicode hex="0063"/>
  <outline>
    <contour>
      <point x="483" y="-30" type="curve" smooth="yes"/>
      <point x="690" y="-30"/>
      <point x="802" y="102"/>
      <point x="865" y="217" type="curve"/>
      <point x="831" y="242" type="line"/>
      <point x="768" y="175"/>
      <point x="717" y="132"/>
      <point x="642" y="132" type="curve" smooth="yes"/>
      <point x="516" y="132"/>
      <point x="419" y="197"/>
      <point x="361" y="467" type="curve" smooth="yes"/>
      <point x="324" y="635"/>
      <point x="363" y="892"/>
      <point x="477" y="892" type="curve" smooth="yes" name="hr01"/>
      <point x="634" y="892"/>
      <point x="493" y="603"/>
      <point x="713" y="603" type="curve" smooth="yes"/>
      <point x="781" y="603"/>
      <point x="835" y="648"/>
      <point x="835" y="727" type="curve" smooth="yes"/>
      <point x="835" y="827"/>
      <point x="737" y="963"/>
      <point x="524" y="963" type="curve" smooth="yes"/>
      <point x="179" y="963"/>
      <point x="79" y="636"/>
      <point x="79" y="467" type="curve" smooth="yes"/>
      <point x="79" y="136"/>
      <point x="280" y="-30"/>
    </contour>
  </outline>
</glyph>
<glyph name="d" format="2">
  <advance width="1081"/>
  <unicode hex="0064"/>
  <anchor x="504" y="0" name="H"/>
  <anchor x="523" y="-92" name="L"/>
  <anchor x="1081" y="828" name="R"/>
  <anchor x="523" y="1554" name="U"/>
  <outline>
    <contour>
      <point x="964" y="38"/>
      <point x="1077" y="114" type="curve"/>
      <point x="1046" y="190" type="line"/>
      <point x="982" y="161"/>
      <point x="969" y="163"/>
      <point x="954" y="171" type="curve" smooth="yes"/>
      <point x="940" y="178"/>
      <point x="933" y="202"/>
      <point x="933" y="288" type="curve" smooth="yes"/>
      <point x="933" y="1389" type="line"/>
      <point x="896" y="1426" type="line"/>
      <point x="832" y="1405"/>
      <point x="707" y="1379"/>
      <point x="561" y="1366" type="curve"/>
      <point x="561" y="1293" type="line"/>
      <point x="681" y="1285"/>
      <point x="685" y="1270"/>
      <point x="685" y="1135" type="curve" smooth="yes"/>
      <point x="685" y="287" type="line" smooth="yes"/>
      <point x="685" y="89"/>
      <point x="713" y="-27"/>
      <point x="781" y="-27" type="curve" smooth="yes"/>
      <point x="815" y="-27"/>
    </contour>
    <contour>
      <point x="592" y="22"/>
      <point x="753" y="184" type="curve"/>
      <point x="750" y="193"/>
      <point x="725" y="265"/>
      <point x="710" y="273" type="curve"/>
      <point x="623" y="190"/>
      <point x="572" y="165"/>
      <point x="503" y="165" type="curve" smooth="yes"/>
      <point x="402" y="165"/>
      <point x="303" y="275"/>
      <point x="303" y="464" type="curve" smooth="yes"/>
      <point x="303" y="671"/>
      <point x="386" y="754"/>
      <point x="496" y="754" type="curve" smooth="yes"/>
      <point x="580" y="754"/>
      <point x="644" y="709"/>
      <point x="691" y="632" type="curve"/>
      <point x="731" y="655"/>
      <point x="746" y="708"/>
      <point x="746" y="782" type="curve"/>
      <point x="650" y="868"/>
      <point x="580" y="883"/>
      <point x="506" y="883" type="curve" smooth="yes"/>
      <point x="241" y="883"/>
      <point x="55" y="666"/>
      <point x="55" y="408" type="curve" smooth="yes"/>
      <point x="55" y="135"/>
      <point x="228" y="-27"/>
      <point x="401" y="-27" type="curve" smooth="yes"/>
      <point x="528" y="-27"/>
    </contour>
  </outline>
</glyph>
<glyph name="e" format="2">
  <advance width="910"/>
  <unicode hex="0065"/>
  <outline>
    <contour>
      <point x="861" y="256" type="line"/>
      <point x="806" y="146"/>
      <point x="711" y="-30"/>
      <point x="475" y="-30" type="curve" smooth="yes"/>
      <point x="227" y="-30"/>
      <point x="79" y="164"/>
      <point x="79" y="467" type="curve" smooth="yes"/>
      <point x="79" y="798"/>
      <point x="307" y="963"/>
      <point x="500" y="963" type="curve" smooth="yes"/>
      <point x="749" y="963"/>
      <point x="861" y="723"/>
      <point x="861" y="502" type="curve"/>
      <point x="349" y="502" type="line"/>
      <point x="351" y="347"/>
      <point x="434" y="122"/>
      <point x="615" y="122" type="curve" smooth="yes"/>
      <point x="717" y="122"/>
      <point x="782" y="207"/>
      <point x="827" y="278" type="curve"/>
    </contour>
    <contour>
      <point x="615" y="567" type="line"/>
      <point x="615" y="678"/>
      <point x="615" y="898"/>
      <point x="489" y="898" type="curve" smooth="yes"/>
      <point x="357" y="898"/>
      <point x="345" y="676"/>
      <point x="345" y="567" type="curve"/>
    </contour>
  </outline>
</glyph>
<glyph name="f" format="2">
  <advance width="682"/>
  <unicode hex="0066"/>
  <outline>
    <contour>
      <point x="65" y="0" type="line"/>
      <point x="617" y="0" type="line"/>
      <point x="617" y="37" type="line" name="hr04"/>
      <point x="514" y="37"/>
      <point x="483" y="55"/>
      <point x="483" y="183" type="curve" smooth="yes"/>
      <point x="483" y="837" type="line" name="hr03"/>
      <point x="621" y="837" type="line"/>
      <point x="621" y="934" type="line" name="hr02"/>
      <point x="483" y="934" type="line"/>
      <point x="483" y="1093" type="line" smooth="yes"/>
      <point x="483" y="1145"/>
      <point x="481" y="1213"/>
      <point x="481" y="1247" type="curve" smooth="yes"/>
      <point x="481" y="1312"/>
      <point x="511" y="1330"/>
      <point x="548" y="1330" type="curve" smooth="yes"/>
      <point x="575" y="1330"/>
      <point x="599" y="1310"/>
      <point x="599" y="1289" type="curve" smooth="yes" name="hr01"/>
      <point x="599" y="1264"/>
      <point x="585" y="1239"/>
      <point x="585" y="1214" type="curve" smooth="yes"/>
      <point x="585" y="1178"/>
      <point x="623" y="1129"/>
      <point x="707" y="1129" type="curve" smooth="yes"/>
      <point x="772" y="1129"/>
      <point x="833" y="1176"/>
      <point x="833" y="1241" type="curve" smooth="yes"/>
      <point x="833" y="1346"/>
      <point x="705" y="1385"/>
      <point x="597" y="1385" type="curve" smooth="yes"/>
      <point x="309" y="1385"/>
      <point x="203" y="1227"/>
      <point x="203" y="1034" type="curve" smooth="yes"/>
      <point x="203" y="934" type="line" name="hr07"/>
      <point x="65" y="934" type="line"/>
      <point x="65" y="837" type="line" name="hr06"/>
      <point x="203" y="837" type="line"/>
      <point x="203" y="183" type="line" smooth="yes" name="hr05"/>
      <point x="203" y="45"/>
      <point x="167" y="37"/>
      <point x="65" y="37" type="curve"/>
    </contour>
  </outline>
</glyph>
<glyph name="g" format="2">
  <advance width="992"/>
  <unicode hex="0067"/>
  <anchor x="490" y="-432" name="H"/>
  <anchor x="490" y="-552" name="L"/>
  <anchor x="992" y="828" name="R"/>
  <anchor x="490" y="966" name="U"/>
  <outline>
    <contour>
      <point x="975" y="-256"/>
      <point x="975" y="-92" type="curve" smooth="yes"/>
      <point x="975" y="40"/>
      <point x="895" y="99"/>
      <point x="599" y="138" type="curve" smooth="yes"/>
      <point x="408" y="162"/>
      <point x="401" y="178"/>
      <point x="401" y="198" type="curve" smooth="yes"/>
      <point x="401" y="208"/>
      <point x="408" y="248"/>
      <point x="509" y="322" type="curve"/>
      <point x="333" y="306" type="line"/>
      <point x="190" y="214"/>
      <point x="130" y="135"/>
      <point x="130" y="103" type="curve" smooth="yes"/>
      <point x="130" y="45"/>
      <point x="281" y="-17"/>
      <point x="522" y="-49" type="curve" smooth="yes"/>
      <point x="708" y="-74"/>
      <point x="736" y="-122"/>
      <point x="736" y="-162" type="curve" smooth="yes"/>
      <point x="736" y="-234"/>
      <point x="682" y="-308"/>
      <point x="544" y="-308" type="curve" smooth="yes"/>
      <point x="377" y="-308"/>
      <point x="257" y="-241"/>
      <point x="257" y="-165" type="curve" smooth="yes"/>
      <point x="257" y="-124"/>
      <point x="265" y="-75"/>
      <point x="426" y="27" type="curve"/>
      <point x="421" y="52"/>
      <point x="307" y="56"/>
      <point x="307" y="56" type="curve"/>
      <point x="67" y="-67"/>
      <point x="9" y="-134"/>
      <point x="9" y="-201" type="curve" smooth="yes"/>
      <point x="9" y="-379"/>
      <point x="276" y="-450"/>
      <point x="475" y="-450" type="curve" smooth="yes"/>
      <point x="719" y="-450"/>
    </contour>
    <contour>
      <point x="987" y="821"/>
      <point x="992" y="846" type="curve"/>
      <point x="965" y="883" type="line"/>
      <point x="908" y="862"/>
      <point x="782" y="819"/>
      <point x="667" y="810" type="curve"/>
      <point x="701" y="721" type="line"/>
      <point x="805" y="717"/>
      <point x="874" y="724"/>
      <point x="940" y="736" type="curve"/>
      <point x="959" y="766"/>
    </contour>
    <contour>
      <point x="846" y="402"/>
      <point x="846" y="589" type="curve" smooth="yes"/>
      <point x="846" y="748"/>
      <point x="699" y="883"/>
      <point x="492" y="883" type="curve" smooth="yes"/>
      <point x="267" y="883"/>
      <point x="73" y="734"/>
      <point x="73" y="553" type="curve" smooth="yes"/>
      <point x="73" y="382"/>
      <point x="241" y="271"/>
      <point x="459" y="271" type="curve" smooth="yes"/>
      <point x="670" y="271"/>
    </contour>
    <contour>
      <point x="607" y="673"/>
      <point x="607" y="552" type="curve" smooth="yes"/>
      <point x="607" y="438"/>
      <point x="553" y="386"/>
      <point x="482" y="386" type="curve" smooth="yes"/>
      <point x="364" y="386"/>
      <point x="312" y="484"/>
      <point x="312" y="606" type="curve" smooth="yes"/>
      <point x="312" y="718"/>
      <point x="377" y="772"/>
      <point x="437" y="772" type="curve" smooth="yes"/>
      <point x="548" y="772"/>
    </contour>
  </outline>
</glyph>
<glyph name="h" format="2">
  <advance width="1139"/>
  <unicode hex="0068"/>
  <outline>
    <contour>
      <point x="69" y="0" type="line"/>
      <point x="544" y="0" type="line"/>
      <point x="544" y="37" type="line" name="hr02"/>
      <point x="467" y="49"/>
      <point x="449" y="83"/>
      <point x="449" y="183" type="curve" smooth="yes"/>
      <point x="449" y="701" type="line"/>
      <point x="485" y="760"/>
      <point x="536" y="827"/>
      <point x="609" y="827" type="curve" smooth="yes"/>
      <point x="674" y="827"/>
      <point x="699" y="774"/>
      <point x="699" y="697" type="curve" smooth="yes"/>
      <point x="699" y="183" type="line" smooth="yes" name="hr01"/>
      <point x="699" y="83"/>
      <point x="682" y="49"/>
      <point x="607" y="37" type="curve"/>
      <point x="607" y="0" type="line"/>
      <point x="1080" y="0" type="line"/>
      <point x="1080" y="37" type="line" name="hr05"/>
      <point x="989" y="47"/>
      <point x="979" y="83"/>
      <point x="979" y="183" type="curve" smooth="yes"/>
      <point x="979" y="638" type="line" smooth="yes"/>
      <point x="979" y="837"/>
      <point x="896" y="963"/>
      <point x="719" y="963" type="curve" smooth="yes"/>
      <point x="599" y="963"/>
      <point x="508" y="877"/>
      <point x="449" y="814" type="curve"/>
      <point x="449" y="1355" type="line"/>
      <point x="69" y="1355" type="line"/>
      <point x="69" y="1320" type="line" name="hr04"/>
      <point x="154" y="1308"/>
      <point x="169" y="1290"/>
      <point x="169" y="1164" type="curve" smooth="yes"/>
      <point x="169" y="183" type="line" smooth="yes" name="hr03"/>
      <point x="169" y="69"/>
      <point x="158" y="47"/>
      <point x="69" y="37" type="curve"/>
    </contour>
  </outline>
</glyph>
<glyph name="i" format="2">
  <advance width="569"/>
  <unicode hex="0069"/>
  <outline>
    <contour>
      <point x="449" y="1281" type="line" smooth="yes"/>
      <point x="449" y="1194"/>
      <point x="380" y="1125"/>
      <point x="294" y="1125" type="curve" smooth="yes"/>
      <point x="207" y="1125"/>
      <point x="140" y="1194"/>
      <point x="140" y="1281" type="curve" smooth="yes"/>
      <point x="140" y="1367"/>
      <point x="207" y="1434"/>
      <point x="294" y="1434" type="curve" smooth="yes"/>
      <point x="380" y="1434"/>
      <point x="449" y="1367"/>
      <point x="449" y="1281" type="curve" smooth="yes"/>
    </contour>
    <contour>
      <point x="548" y="0" type="line" name="hr01"/>
      <point x="43" y="0" type="line"/>
      <point x="43" y="37" type="line"/>
      <point x="146" y="41"/>
      <point x="154" y="83"/>
      <point x="154" y="183" type="curve" smooth="yes" name="hr02"/>
      <point x="154" y="743" type="line" smooth="yes"/>
      <point x="154" y="869"/>
      <point x="142" y="887"/>
      <point x="43" y="898" type="curve" name="hr03"/>
      <point x="43" y="934" type="line"/>
      <point x="433" y="934" type="line" name="hr04"/>
      <point x="433" y="183" type="line" smooth="yes"/>
      <point x="433" y="83"/>
      <point x="445" y="41"/>
      <point x="548" y="37" type="curve" name="hr05"/>
    </contour>
  </outline>
</glyph>
<glyph name="j" format="2">
  <advance width="670"/>
  <unicode hex="006A"/>
  <outline>
    <contour>
      <point x="164" y="-443" type="curve" smooth="yes"/>
      <point x="347" y="-443"/>
      <point x="496" y="-335"/>
      <point x="496" y="-93" type="curve" smooth="yes" name="hr01"/>
      <point x="496" y="934" type="line"/>
      <point x="106" y="934" type="line"/>
      <point x="106" y="898" type="line" name="hr03"/>
      <point x="205" y="887"/>
      <point x="217" y="869"/>
      <point x="217" y="743" type="curve" smooth="yes"/>
      <point x="217" y="-217" type="line" smooth="yes"/>
      <point x="217" y="-331"/>
      <point x="197" y="-359"/>
      <point x="150" y="-359" type="curve" smooth="yes" name="hr02"/>
      <point x="104" y="-359"/>
      <point x="81" y="-337"/>
      <point x="81" y="-274" type="curve" smooth="yes"/>
      <point x="81" y="-219"/>
      <point x="71" y="-162"/>
      <point x="-6" y="-162" type="curve" smooth="yes"/>
      <point x="-81" y="-162"/>
      <point x="-118" y="-212"/>
      <point x="-118" y="-270" type="curve" smooth="yes"/>
      <point x="-118" y="-353"/>
      <point x="-28" y="-443"/>
    </contour>
    <contour>
      <point x="357" y="1125" type="curve" smooth="yes"/>
      <point x="443" y="1125"/>
      <point x="512" y="1194"/>
      <point x="512" y="1281" type="curve" smooth="yes"/>
      <point x="512" y="1367"/>
      <point x="443" y="1434"/>
      <point x="357" y="1434" type="curve" smooth="yes"/>
      <point x="270" y="1434"/>
      <point x="203" y="1367"/>
      <point x="203" y="1281" type="curve" smooth="yes"/>
      <point x="203" y="1194"/>
      <point x="270" y="1125"/>
    </contour>
  </outline>
</glyph>
<glyph name="k" format="2">
  <advance width="1070"/>
  <unicode hex="006B"/>
  <anchor x="276" y="0" name="H"/>
  <anchor x="560" y="-92" name="L"/>
  <anchor x="1070" y="828" name="R"/>
  <anchor x="560" y="1490" name="U"/>
  <outline>
    <contour>
      <point x="993" y="773"/>
      <point x="1047" y="779" type="curve"/>
      <point x="1047" y="855" type="line"/>
      <point x="616" y="855" type="line"/>
      <point x="616" y="779" type="line"/>
      <point x="680" y="779"/>
      <point x="717" y="770"/>
      <point x="637" y="698" type="curve" smooth="yes"/>
      <point x="400" y="483" type="line"/>
      <point x="535" y="456" type="line"/>
      <point x="882" y="713" type="line" smooth="yes"/>
      <point x="935" y="752"/>
    </contour>
    <contour>
      <point x="41" y="0" type="line"/>
      <point x="510" y="0" type="line"/>
      <point x="510" y="76" type="line"/>
      <point x="419" y="104"/>
      <point x="409" y="114"/>
      <point x="409" y="132" type="curve" smooth="yes"/>
      <point x="409" y="1385" type="line"/>
      <point x="366" y="1426" type="line"/>
      <point x="276" y="1388"/>
      <point x="172" y="1369"/>
      <point x="41" y="1352" type="curve"/>
      <point x="41" y="1278" type="line"/>
      <point x="147" y="1266"/>
      <point x="161" y="1265"/>
      <point x="161" y="1155" type="curve" smooth="yes"/>
      <point x="161" y="132" type="line" smooth="yes"/>
      <point x="161" y="110"/>
      <point x="122" y="97"/>
      <point x="41" y="76" type="curve"/>
    </contour>
    <contour>
      <point x="1008" y="18"/>
      <point x="1080" y="34" type="curve"/>
      <point x="1074" y="111" type="line"/>
      <point x="1002" y="105"/>
      <point x="977" y="108"/>
      <point x="942" y="148" type="curve" smooth="yes"/>
      <point x="580" y="553" type="line"/>
      <point x="402" y="483" type="line"/>
      <point x="731" y="39" type="line" smooth="yes"/>
      <point x="758" y="3"/>
      <point x="794" y="-9"/>
      <point x="846" y="-9" type="curve" smooth="yes"/>
      <point x="872" y="-9"/>
    </contour>
  </outline>
</glyph>
<glyph name="l" format="2">
  <advance width="569"/>
  <unicode hex="006C"/>
  <outline>
    <contour>
      <point x="43" y="0" type="line"/>
      <point x="548" y="0" type="line"/>
      <point x="548" y="37" type="line" name="hr04"/>
      <point x="445" y="41"/>
      <point x="433" y="83"/>
      <point x="433" y="183" type="curve" smooth="yes"/>
      <point x="433" y="1355" type="line" name="hr03"/>
      <point x="43" y="1355" type="line"/>
      <point x="43" y="1320" type="line" name="hr02"/>
      <point x="142" y="1308"/>
      <point x="154" y="1290"/>
      <point x="154" y="1164" type="curve" smooth="yes"/>
      <point x="154" y="183" type="line" smooth="yes" name="hr01"/>
      <point x="154" y="83"/>
      <point x="146" y="41"/>
      <point x="43" y="37" type="curve"/>
    </contour>
  </outline>
</glyph>
<glyph name="m" format="2">
  <advance width="1614"/>
  <unicode hex="006D"/>
  <anchor x="1343" y="0" name="H"/>
  <anchor x="818" y="-92" name="L"/>
  <anchor x="818" y="966" name="U"/>
  <outline>
    <contour>
      <point x="1118" y="0" type="line"/>
      <point x="1597" y="0" type="line"/>
      <point x="1597" y="76" type="line"/>
      <point x="1500" y="101"/>
      <point x="1467" y="115"/>
      <point x="1467" y="132" type="curve" smooth="yes"/>
      <point x="1467" y="635" type="line" smooth="yes"/>
      <point x="1467" y="819"/>
      <point x="1361" y="883"/>
      <point x="1244" y="883" type="curve" smooth="yes"/>
      <point x="1154" y="883"/>
      <point x="1069" y="865"/>
      <point x="920" y="758" type="curve"/>
      <point x="916" y="768" type="line" smooth="yes"/>
      <point x="897" y="818"/>
      <point x="841" y="883"/>
      <point x="724" y="883" type="curve" smooth="yes"/>
      <point x="636" y="883"/>
      <point x="552" y="867"/>
      <point x="405" y="759" type="curve"/>
      <point x="395" y="841" type="line"/>
      <point x="354" y="883" type="line"/>
      <point x="260" y="851"/>
      <point x="180" y="833"/>
      <point x="41" y="818" type="curve"/>
      <point x="41" y="745" type="line"/>
      <point x="160" y="731"/>
      <point x="161" y="724"/>
      <point x="161" y="626" type="curve" smooth="yes"/>
      <point x="161" y="132" type="line" smooth="yes"/>
      <point x="161" y="112"/>
      <point x="122" y="97"/>
      <point x="41" y="76" type="curve"/>
      <point x="41" y="0" type="line"/>
      <point x="519" y="0" type="line"/>
      <point x="519" y="76" type="line"/>
      <point x="440" y="92"/>
      <point x="409" y="114"/>
      <point x="409" y="132" type="curve" smooth="yes"/>
      <point x="409" y="637" type="line"/>
      <point x="494" y="690"/>
      <point x="558" y="708"/>
      <point x="604" y="708" type="curve" smooth="yes"/>
      <point x="670" y="708"/>
      <point x="690" y="696"/>
      <point x="690" y="545" type="curve" smooth="yes"/>
      <point x="690" y="132" type="line" smooth="yes"/>
      <point x="690" y="115"/>
      <point x="678" y="99"/>
      <point x="589" y="76" type="curve"/>
      <point x="589" y="0" type="line"/>
      <point x="1049" y="0" type="line"/>
      <point x="1049" y="76" type="line"/>
      <point x="953" y="101"/>
      <point x="938" y="115"/>
      <point x="938" y="132" type="curve" smooth="yes"/>
      <point x="938" y="637" type="line"/>
      <point x="1012" y="689"/>
      <point x="1080" y="708"/>
      <point x="1124" y="708" type="curve" smooth="yes"/>
      <point x="1188" y="708"/>
      <point x="1219" y="696"/>
      <point x="1219" y="545" type="curve" smooth="yes"/>
      <point x="1219" y="132" type="line" smooth="yes"/>
      <point x="1219" y="115"/>
      <point x="1207" y="99"/>
      <point x="1118" y="76" type="curve"/>
    </contour>
  </outline>
</glyph>
<glyph name="n" format="2">
  <advance width="1139"/>
  <unicode hex="006E"/>
  <outline>
    <contour>
      <point x="1080" y="0" type="line"/>
      <point x="607" y="0" type="line"/>
      <point x="607" y="37" type="line"/>
      <point x="682" y="49"/>
      <point x="699" y="83"/>
      <point x="699" y="183" type="curve" smooth="yes" name="hr01"/>
      <point x="699" y="697" type="line" smooth="yes"/>
      <point x="699" y="774"/>
      <point x="674" y="827"/>
      <point x="609" y="827" type="curve" smooth="yes"/>
      <point x="536" y="827"/>
      <point x="485" y="760"/>
      <point x="449" y="701" type="curve"/>
      <point x="449" y="183" type="line" smooth="yes"/>
      <point x="449" y="83"/>
      <point x="467" y="49"/>
      <point x="544" y="37" type="curve" name="hr02"/>
      <point x="544" y="0" type="line"/>
      <point x="69" y="0" type="line"/>
      <point x="69" y="37" type="line"/>
      <point x="158" y="47"/>
      <point x="169" y="69"/>
      <point x="169" y="183" type="curve" smooth="yes" name="hr03"/>
      <point x="169" y="743" type="line" smooth="yes"/>
      <point x="169" y="869"/>
      <point x="154" y="887"/>
      <point x="69" y="898" type="curve" name="hr04"/>
      <point x="69" y="934" type="line"/>
      <point x="449" y="934" type="line" name="hr05"/>
      <point x="449" y="814" type="line"/>
      <point x="508" y="877"/>
      <point x="599" y="963"/>
      <point x="719" y="963" type="curve" smooth="yes"/>
      <point x="896" y="963"/>
      <point x="979" y="837"/>
      <point x="979" y="638" type="curve" smooth="yes"/>
      <point x="979" y="183" type="line" smooth="yes"/>
      <point x="979" y="83"/>
      <point x="989" y="47"/>
      <point x="1080" y="37" type="curve" name="hr06"/>
    </contour>
  </outline>
</glyph>
<glyph name="o" format="2">
  <advance width="1024"/>
  <unicode hex="006F"/>
  <outline>
    <contour>
      <point x="952" y="467" type="line" smooth="yes"/>
      <point x="952" y="208"/>
      <point x="792" y="-30"/>
      <point x="512" y="-30" type="curve" smooth="yes"/>
      <point x="232" y="-30"/>
      <point x="73" y="208"/>
      <point x="73" y="467" type="curve" smooth="yes"/>
      <point x="73" y="725"/>
      <point x="232" y="963"/>
      <point x="512" y="963" type="curve" smooth="yes"/>
      <point x="792" y="963"/>
      <point x="952" y="726"/>
      <point x="952" y="467" type="curve" smooth="yes"/>
    </contour>
    <contour>
      <point x="658" y="467" type="line" smooth="yes"/>
      <point x="658" y="774"/>
      <point x="615" y="892"/>
      <point x="512" y="892" type="curve" smooth="yes"/>
      <point x="410" y="892"/>
      <point x="366" y="774"/>
      <point x="366" y="467" type="curve" smooth="yes"/>
      <point x="366" y="160"/>
      <point x="410" y="41"/>
      <point x="512" y="41" type="curve" smooth="yes"/>
      <point x="615" y="41"/>
      <point x="658" y="160"/>
      <point x="658" y="467" type="curve" smooth="yes"/>
    </contour>
  </outline>
</glyph>
<glyph name="p" format="2">
  <advance width="1141"/>
  <unicode hex="0070"/>
  <outline>
    <contour>
      <point x="1054" y="467" type="line" smooth="yes"/>
      <point x="1054" y="209"/>
      <point x="926" y="-30"/>
      <point x="688" y="-30" type="curve" smooth="yes"/>
      <point x="577" y="-30"/>
      <point x="498" y="16"/>
      <point x="431" y="95" type="curve"/>
      <point x="431" y="-256" type="line" smooth="yes"/>
      <point x="431" y="-372"/>
      <point x="453" y="-402"/>
      <point x="571" y="-402" type="curve" name="hr01"/>
      <point x="571" y="-439" type="line"/>
      <point x="39" y="-439" type="line"/>
      <point x="39" y="-402" type="line"/>
      <point x="142" y="-398"/>
      <point x="152" y="-357"/>
      <point x="152" y="-256" type="curve" smooth="yes" name="hr02"/>
      <point x="152" y="743" type="line" smooth="yes"/>
      <point x="152" y="869"/>
      <point x="138" y="887"/>
      <point x="39" y="898" type="curve" name="hr03"/>
      <point x="39" y="934" type="line"/>
      <point x="431" y="934" type="line"/>
      <point x="431" y="812" type="line"/>
      <point x="504" y="918"/>
      <point x="582" y="963"/>
      <point x="695" y="963" type="curve" smooth="yes"/>
      <point x="896" y="963"/>
      <point x="1054" y="760"/>
      <point x="1054" y="467" type="curve" smooth="yes"/>
    </contour>
    <contour>
      <point x="759" y="467" type="line" smooth="yes"/>
      <point x="759" y="634"/>
      <point x="737" y="839"/>
      <point x="601" y="839" type="curve" smooth="yes"/>
      <point x="524" y="839"/>
      <point x="471" y="778"/>
      <point x="431" y="699" type="curve"/>
      <point x="431" y="195" type="line"/>
      <point x="479" y="138"/>
      <point x="531" y="73"/>
      <point x="621" y="73" type="curve" smooth="yes"/>
      <point x="701" y="73"/>
      <point x="759" y="167"/>
      <point x="759" y="467" type="curve" smooth="yes"/>
    </contour>
  </outline>
</glyph>
<glyph name="q" format="2">
  <advance width="1139"/>
  <unicode hex="0071"/>
  <outline>
    <contour>
      <point x="1097" y="-439" type="line"/>
      <point x="558" y="-439" type="line"/>
      <point x="558" y="-402" type="line"/>
      <point x="678" y="-400"/>
      <point x="697" y="-368"/>
      <point x="697" y="-256" type="curve" smooth="yes" name="hr01"/>
      <point x="697" y="99" type="line"/>
      <point x="621" y="22"/>
      <point x="546" y="-30"/>
      <point x="433" y="-30" type="curve" smooth="yes"/>
      <point x="238" y="-30"/>
      <point x="79" y="120"/>
      <point x="79" y="467" type="curve" smooth="yes"/>
      <point x="79" y="719"/>
      <point x="274" y="963"/>
      <point x="534" y="963" type="curve" smooth="yes"/>
      <point x="662" y="963"/>
      <point x="743" y="910"/>
      <point x="786" y="855" type="curve"/>
      <point x="942" y="963" type="line"/>
      <point x="977" y="963" type="line"/>
      <point x="977" y="-256" type="line" smooth="yes"/>
      <point x="977" y="-366"/>
      <point x="995" y="-398"/>
      <point x="1097" y="-402" type="curve" name="hr02"/>
    </contour>
    <contour>
      <point x="697" y="187" type="line" name="hr03"/>
      <point x="697" y="638" type="line" smooth="yes"/>
      <point x="697" y="812"/>
      <point x="643" y="894"/>
      <point x="554" y="894" type="curve" smooth="yes"/>
      <point x="416" y="894"/>
      <point x="370" y="719"/>
      <point x="370" y="447" type="curve" smooth="yes"/>
      <point x="370" y="280"/>
      <point x="392" y="85"/>
      <point x="528" y="85" type="curve" smooth="yes"/>
      <point x="595" y="85"/>
      <point x="658" y="142"/>
      <point x="697" y="187" type="curve"/>
    </contour>
  </outline>
</glyph>
<glyph name="r" format="2">
  <advance width="910"/>
  <unicode hex="0072"/>
  <outline>
    <contour>
      <point x="879" y="827" type="line" smooth="yes"/>
      <point x="879" y="751"/>
      <point x="836" y="690"/>
      <point x="766" y="690" type="curve" smooth="yes"/>
      <point x="674" y="690"/>
      <point x="654" y="768"/>
      <point x="607" y="768" type="curve" smooth="yes" name="hr01"/>
      <point x="485" y="768"/>
      <point x="457" y="518"/>
      <point x="457" y="445" type="curve" smooth="yes"/>
      <point x="457" y="183" type="line" smooth="yes"/>
      <point x="457" y="83"/>
      <point x="457" y="41"/>
      <point x="579" y="37" type="curve" name="hr02"/>
      <point x="579" y="0" type="line"/>
      <point x="75" y="0" type="line"/>
      <point x="75" y="37" type="line"/>
      <point x="164" y="41"/>
      <point x="177" y="83"/>
      <point x="177" y="183" type="curve" smooth="yes" name="hr03"/>
      <point x="177" y="743" type="line" smooth="yes"/>
      <point x="177" y="869"/>
      <point x="167" y="887"/>
      <point x="75" y="898" type="curve" name="hr04"/>
      <point x="75" y="934" type="line"/>
      <point x="457" y="934" type="line" name="hr05"/>
      <point x="457" y="723" type="line"/>
      <point x="534" y="831"/>
      <point x="615" y="963"/>
      <point x="757" y="963" type="curve" smooth="yes"/>
      <point x="837" y="963"/>
      <point x="879" y="904"/>
      <point x="879" y="827" type="curve" smooth="yes"/>
    </contour>
  </outline>
</glyph>
<glyph name="s" format="2">
  <advance width="798"/>
  <unicode hex="0073"/>
  <outline>
    <contour>
      <point x="420" y="-30" type="curve" smooth="yes"/>
      <point x="595" y="-30"/>
      <point x="725" y="104"/>
      <point x="725" y="292" type="curve" smooth="yes"/>
      <point x="725" y="548"/>
      <point x="286" y="660"/>
      <point x="286" y="798" type="curve" smooth="yes"/>
      <point x="286" y="849"/>
      <point x="323" y="887"/>
      <point x="384" y="887" type="curve" smooth="yes" name="hr04"/>
      <point x="522" y="887"/>
      <point x="605" y="733"/>
      <point x="642" y="642" type="curve"/>
      <point x="676" y="642" type="line"/>
      <point x="660" y="961" type="line"/>
      <point x="627" y="961" type="line" name="hr03"/>
      <point x="613" y="940"/>
      <point x="599" y="912"/>
      <point x="562" y="912" type="curve" smooth="yes"/>
      <point x="520" y="912"/>
      <point x="477" y="963"/>
      <point x="372" y="963" type="curve" smooth="yes"/>
      <point x="209" y="963"/>
      <point x="83" y="855"/>
      <point x="83" y="676" type="curve" smooth="yes"/>
      <point x="83" y="394"/>
      <point x="510" y="313"/>
      <point x="510" y="162" type="curve" smooth="yes"/>
      <point x="510" y="85"/>
      <point x="461" y="47"/>
      <point x="402" y="47" type="curve" smooth="yes" name="hr02"/>
      <point x="286" y="47"/>
      <point x="164" y="175"/>
      <point x="130" y="311" type="curve"/>
      <point x="95" y="311" type="line"/>
      <point x="110" y="-24" type="line"/>
      <point x="144" y="-24" type="line" name="hr01"/>
      <point x="156" y="0"/>
      <point x="169" y="24"/>
      <point x="197" y="24" type="curve" smooth="yes"/>
      <point x="238" y="24"/>
      <point x="331" y="-30"/>
    </contour>
  </outline>
</glyph>
<glyph name="t" format="2">
  <advance width="680"/>
  <unicode hex="0074"/>
  <outline>
    <contour>
      <point x="660" y="160" type="line"/>
      <point x="621" y="63"/>
      <point x="542" y="-30"/>
      <point x="400" y="-30" type="curve" smooth="yes"/>
      <point x="264" y="-30"/>
      <point x="160" y="59"/>
      <point x="160" y="213" type="curve" smooth="yes" name="hr01"/>
      <point x="160" y="835" type="line"/>
      <point x="39" y="835" type="line" name="hr02"/>
      <point x="39" y="871" type="line"/>
      <point x="205" y="993"/>
      <point x="313" y="1113"/>
      <point x="406" y="1277" type="curve"/>
      <point x="439" y="1277" type="line" name="hr03"/>
      <point x="439" y="934" type="line"/>
      <point x="660" y="934" type="line" name="hr04"/>
      <point x="660" y="835" type="line"/>
      <point x="439" y="835" type="line" name="hr05"/>
      <point x="439" y="201" type="line" smooth="yes"/>
      <point x="439" y="122"/>
      <point x="463" y="85"/>
      <point x="508" y="85" type="curve" smooth="yes" name="hr06"/>
      <point x="568" y="85"/>
      <point x="609" y="148"/>
      <point x="630" y="183" type="curve"/>
    </contour>
  </outline>
</glyph>
<glyph name="u" format="2">
  <advance width="1139"/>
  <unicode hex="0075"/>
  <outline>
    <contour>
      <point x="424" y="-30" type="curve" smooth="yes"/>
      <point x="544" y="-30"/>
      <point x="634" y="57"/>
      <point x="694" y="120" type="curve"/>
      <point x="694" y="0" type="line"/>
      <point x="1074" y="0" type="line"/>
      <point x="1074" y="37" type="line" name="hr03"/>
      <point x="989" y="49"/>
      <point x="973" y="65"/>
      <point x="973" y="191" type="curve" smooth="yes"/>
      <point x="973" y="934" type="line"/>
      <point x="591" y="934" type="line"/>
      <point x="591" y="896" type="line" name="hr02"/>
      <point x="678" y="883"/>
      <point x="694" y="851"/>
      <point x="694" y="751" type="curve" smooth="yes"/>
      <point x="694" y="236" type="line"/>
      <point x="658" y="177"/>
      <point x="607" y="106"/>
      <point x="534" y="106" type="curve" smooth="yes"/>
      <point x="469" y="106"/>
      <point x="443" y="160"/>
      <point x="443" y="236" type="curve" smooth="yes"/>
      <point x="443" y="934" type="line"/>
      <point x="63" y="934" type="line"/>
      <point x="63" y="896" type="line" name="hr01"/>
      <point x="154" y="887"/>
      <point x="164" y="851"/>
      <point x="164" y="751" type="curve" smooth="yes"/>
      <point x="164" y="296" type="line" smooth="yes"/>
      <point x="164" y="97"/>
      <point x="246" y="-30"/>
    </contour>
  </outline>
</glyph>
<glyph name="v" format="2">
  <advance width="1024"/>
  <unicode hex="0076"/>
  <outline>
    <contour>
      <point x="493" y="-30" type="line"/>
      <point x="540" y="-30" type="line"/>
      <point x="855" y="715" type="line" smooth="yes"/>
      <point x="897" y="814"/>
      <point x="926" y="892"/>
      <point x="1007" y="898" type="curve"/>
      <point x="1007" y="934" type="line"/>
      <point x="701" y="934" type="line"/>
      <point x="701" y="898" type="line"/>
      <point x="814" y="894"/>
      <point x="826" y="833"/>
      <point x="776" y="709" type="curve" smooth="yes"/>
      <point x="627" y="339" type="line"/>
      <point x="445" y="755" type="line" smooth="yes"/>
      <point x="417" y="820"/>
      <point x="414" y="898"/>
      <point x="516" y="898" type="curve"/>
      <point x="516" y="934" type="line"/>
      <point x="18" y="934" type="line"/>
      <point x="18" y="898" type="line"/>
      <point x="99" y="891"/>
      <point x="136" y="787"/>
      <point x="164" y="725" type="curve" smooth="yes"/>
    </contour>
  </outline>
</glyph>
<glyph name="w" format="2">
  <advance width="1480"/>
  <unicode hex="0077"/>
  <outline>
    <contour>
      <point x="437" y="-30" type="line"/>
      <point x="491" y="-30" type="line"/>
      <point x="739" y="656" type="line"/>
      <point x="995" y="-30" type="line"/>
      <point x="1054" y="-30" type="line"/>
      <point x="1316" y="715" type="line" smooth="yes"/>
      <point x="1357" y="831"/>
      <point x="1375" y="889"/>
      <point x="1458" y="898" type="curve"/>
      <point x="1458" y="934" type="line"/>
      <point x="1182" y="934" type="line"/>
      <point x="1182" y="898" type="line"/>
      <point x="1290" y="891"/>
      <point x="1288" y="837"/>
      <point x="1257" y="749" type="curve" smooth="yes"/>
      <point x="1129" y="386" type="line"/>
      <point x="993" y="755" type="line" smooth="yes"/>
      <point x="949" y="875"/>
      <point x="954" y="894"/>
      <point x="1068" y="898" type="curve"/>
      <point x="1068" y="934" type="line"/>
      <point x="573" y="934" type="line"/>
      <point x="573" y="898" type="line"/>
      <point x="663" y="890"/>
      <point x="685" y="809"/>
      <point x="705" y="747" type="curve"/>
      <point x="573" y="386" type="line"/>
      <point x="424" y="790" type="line" smooth="yes"/>
      <point x="394" y="869"/>
      <point x="390" y="892"/>
      <point x="491" y="898" type="curve"/>
      <point x="491" y="934" type="line"/>
      <point x="16" y="934" type="line"/>
      <point x="16" y="898" type="line"/>
      <point x="102" y="879"/>
      <point x="136" y="789"/>
      <point x="160" y="725" type="curve" smooth="yes"/>
    </contour>
  </outline>
</glyph>
<glyph name="x" format="2">
  <advance width="1024"/>
  <unicode hex="0078"/>
  <outline>
    <contour>
      <point x="991" y="0" type="line"/>
      <point x="469" y="0" type="line"/>
      <point x="469" y="37" type="line"/>
      <point x="556" y="41"/>
      <point x="584" y="64"/>
      <point x="544" y="138" type="curve" smooth="yes"/>
      <point x="445" y="319" type="line"/>
      <point x="355" y="185" type="line" smooth="yes"/>
      <point x="267" y="56"/>
      <point x="349" y="37"/>
      <point x="412" y="37" type="curve"/>
      <point x="412" y="0" type="line"/>
      <point x="47" y="0" type="line"/>
      <point x="47" y="37" type="line"/>
      <point x="165" y="37"/>
      <point x="229" y="118"/>
      <point x="297" y="217" type="curve" smooth="yes"/>
      <point x="412" y="382" type="line"/>
      <point x="227" y="725" type="line" smooth="yes"/>
      <point x="169" y="831"/>
      <point x="128" y="891"/>
      <point x="47" y="898" type="curve"/>
      <point x="47" y="934" type="line"/>
      <point x="565" y="934" type="line"/>
      <point x="565" y="898" type="line"/>
      <point x="471" y="896"/>
      <point x="459" y="870"/>
      <point x="498" y="796" type="curve" smooth="yes"/>
      <point x="585" y="634" type="line"/>
      <point x="670" y="757" type="line" smooth="yes"/>
      <point x="729" y="842"/>
      <point x="711" y="891"/>
      <point x="623" y="896" type="curve"/>
      <point x="623" y="934" type="line"/>
      <point x="954" y="934" type="line"/>
      <point x="954" y="898" type="line"/>
      <point x="865" y="898"/>
      <point x="804" y="842"/>
      <point x="725" y="727" type="curve" smooth="yes"/>
      <point x="619" y="571" type="line"/>
      <point x="816" y="207" type="line" smooth="yes"/>
      <point x="863" y="118"/>
      <point x="910" y="37"/>
      <point x="991" y="37" type="curve"/>
    </contour>
  </outline>
</glyph>
<glyph name="y" format="2">
  <advance width="1024"/>
  <unicode hex="0079"/>
  <outline>
    <contour>
      <point x="1007" y="898" type="line"/>
      <point x="926" y="892"/>
      <point x="896" y="815"/>
      <point x="857" y="715" type="curve" smooth="yes"/>
      <point x="526" y="-140" type="line" smooth="yes"/>
      <point x="465" y="-297"/>
      <point x="400" y="-443"/>
      <point x="246" y="-443" type="curve" smooth="yes"/>
      <point x="142" y="-443"/>
      <point x="57" y="-377"/>
      <point x="57" y="-280" type="curve" smooth="yes"/>
      <point x="57" y="-207"/>
      <point x="108" y="-146"/>
      <point x="185" y="-146" type="curve" smooth="yes"/>
      <point x="351" y="-146"/>
      <point x="246" y="-337"/>
      <point x="321" y="-337" type="curve" smooth="yes" name="hr01"/>
      <point x="390" y="-337"/>
      <point x="424" y="-225"/>
      <point x="498" y="-39" type="curve"/>
      <point x="165" y="727" type="line" smooth="yes"/>
      <point x="138" y="789"/>
      <point x="95" y="879"/>
      <point x="16" y="898" type="curve"/>
      <point x="16" y="934" type="line"/>
      <point x="514" y="934" type="line"/>
      <point x="514" y="898" type="line"/>
      <point x="412" y="898"/>
      <point x="410" y="840"/>
      <point x="447" y="755" type="curve" smooth="yes"/>
      <point x="634" y="321" type="line"/>
      <point x="782" y="709" type="line" smooth="yes"/>
      <point x="830" y="834"/>
      <point x="806" y="894"/>
      <point x="694" y="898" type="curve"/>
      <point x="694" y="934" type="line"/>
      <point x="1007" y="934" type="line"/>
    </contour>
  </outline>
</glyph>
<glyph name="z" format="2">
  <advance width="910"/>
  <unicode hex="007A"/>
  <outline>
    <contour>
      <point x="20" y="0" type="line"/>
      <point x="835" y="0" type="line"/>
      <point x="865" y="319" type="line"/>
      <point x="835" y="319" type="line"/>
      <point x="770" y="94"/>
      <point x="638" y="63"/>
      <point x="430" y="63" type="curve" smooth="yes"/>
      <point x="366" y="63" type="line"/>
      <point x="877" y="910" type="line"/>
      <point x="877" y="934" type="line"/>
      <point x="91" y="934" type="line"/>
      <point x="91" y="664" type="line"/>
      <point x="122" y="664" type="line" name="hr01"/>
      <point x="171" y="831"/>
      <point x="209" y="875"/>
      <point x="378" y="875" type="curve" smooth="yes"/>
      <point x="534" y="875" type="line"/>
      <point x="20" y="22" type="line"/>
    </contour>
  </outline>
</glyph>
<glyph name="braceleft" format="2">
  <advance width="1217"/>
  <unicode hex="007B"/>
  <outline>
    <contour>
      <point x="950" y="-491" type="curve"/>
      <point x="950" y="-430" type="line"/>
      <point x="803" y="-393"/>
      <point x="702" y="-320"/>
      <point x="702" y="-158" type="curve" smooth="yes" name="hr04"/>
      <point x="702" y="-54"/>
      <point x="750" y="42"/>
      <point x="750" y="147" type="curve" smooth="yes"/>
      <point x="750" y="377"/>
      <point x="623" y="482"/>
      <point x="446" y="546" type="curve"/>
      <point x="622" y="610"/>
      <point x="750" y="724"/>
      <point x="750" y="940" type="curve" smooth="yes" name="hr03"/>
      <point x="750" y="1047"/>
      <point x="702" y="1143"/>
      <point x="702" y="1249" type="curve" smooth="yes"/>
      <point x="702" y="1411"/>
      <point x="803" y="1484"/>
      <point x="950" y="1521" type="curve"/>
      <point x="950" y="1582" type="line"/>
      <point x="776" y="1610"/>
      <point x="450" y="1447"/>
      <point x="450" y="1181" type="curve" smooth="yes" name="hr02"/>
      <point x="450" y="1056"/>
      <point x="500" y="915"/>
      <point x="500" y="813" type="curve" smooth="yes"/>
      <point x="500" y="674"/>
      <point x="351" y="609"/>
      <point x="246" y="596" type="curve"/>
      <point x="246" y="496" type="line"/>
      <point x="353" y="483"/>
      <point x="500" y="416"/>
      <point x="500" y="274" type="curve" smooth="yes" name="hr01"/>
      <point x="500" y="176"/>
      <point x="450" y="55"/>
      <point x="450" y="-64" type="curve" smooth="yes"/>
      <point x="450" y="-330"/>
      <point x="733" y="-522"/>
    </contour>
  </outline>
</glyph>
<glyph name="bar" format="2">
  <advance width="627"/>
  <unicode hex="007C"/>
  <outline>
    <contour>
      <point x="407" y="-493" type="line"/>
      <point x="220" y="-493" type="line"/>
      <point x="220" y="1583" type="line"/>
      <point x="407" y="1583" type="line"/>
    </contour>
  </outline>
</glyph>
<glyph name="braceright" format="2">
  <advance width="668"/>
  <unicode hex="007D"/>
  <outline>
    <contour>
      <point x="460" y="542"/>
      <point x="595" y="580" type="curve"/>
      <point x="579" y="666" type="line"/>
      <point x="543" y="660"/>
      <point x="553" y="660"/>
      <point x="519" y="660" type="curve" smooth="yes"/>
      <point x="447" y="660"/>
      <point x="403" y="693"/>
      <point x="403" y="793" type="curve" smooth="yes"/>
      <point x="403" y="927"/>
      <point x="441" y="1007"/>
      <point x="441" y="1133" type="curve" smooth="yes"/>
      <point x="441" y="1311"/>
      <point x="299" y="1388"/>
      <point x="67" y="1471" type="curve"/>
      <point x="27" y="1378" type="line"/>
      <point x="157" y="1306"/>
      <point x="178" y="1249"/>
      <point x="178" y="1160" type="curve" smooth="yes"/>
      <point x="178" y="1056"/>
      <point x="140" y="955"/>
      <point x="140" y="827" type="curve" smooth="yes"/>
      <point x="140" y="691"/>
      <point x="202" y="602"/>
      <point x="324" y="580" type="curve"/>
      <point x="221" y="535"/>
      <point x="140" y="434"/>
      <point x="140" y="332" type="curve" smooth="yes"/>
      <point x="140" y="207"/>
      <point x="178" y="135"/>
      <point x="178" y="11" type="curve" smooth="yes"/>
      <point x="178" y="-69"/>
      <point x="114" y="-150"/>
      <point x="18" y="-210" type="curve"/>
      <point x="60" y="-290" type="line"/>
      <point x="271" y="-207"/>
      <point x="441" y="-102"/>
      <point x="441" y="63" type="curve" smooth="yes"/>
      <point x="441" y="195"/>
      <point x="403" y="256"/>
      <point x="403" y="387" type="curve" smooth="yes"/>
      <point x="403" y="479"/>
    </contour>
  </outline>
</glyph>
<glyph name="asciitilde" format="2">
  <advance width="919"/>
  <unicode hex="007E"/>
  <outline>
    <contour>
      <point x="841" y="600"/>
      <point x="892" y="721" type="curve"/>
      <point x="825" y="753" type="line"/>
      <point x="774" y="653"/>
      <point x="702" y="606"/>
      <point x="654" y="606" type="curve" smooth="yes"/>
      <point x="555" y="606"/>
      <point x="457" y="753"/>
      <point x="323" y="753" type="curve" smooth="yes"/>
      <point x="188" y="753"/>
      <point x="79" y="573"/>
      <point x="26" y="452" type="curve"/>
      <point x="93" y="418" type="line"/>
      <point x="145" y="520"/>
      <point x="212" y="567"/>
      <point x="263" y="567" type="curve" smooth="yes"/>
      <point x="368" y="567"/>
      <point x="492" y="420"/>
      <point x="595" y="420" type="curve" smooth="yes"/>
      <point x="730" y="420"/>
    </contour>
  </outline>
</glyph>
<glyph name="cent" format="2">
  <advance width="976"/>
  <unicode hex="00A2"/>
  <outline>
    <contour>
      <point x="562" y="-8"/>
      <point x="584" y="11" type="curve"/>
      <point x="584" y="1115" type="line"/>
      <point x="551" y="1145" type="line"/>
      <point x="513" y="1136"/>
      <point x="498" y="1119"/>
      <point x="464" y="1098" type="curve"/>
      <point x="464" y="-5" type="line"/>
      <point x="496" y="-37" type="line"/>
      <point x="526" y="-28"/>
    </contour>
    <contour>
      <point x="736" y="153"/>
      <point x="896" y="331" type="curve"/>
      <point x="832" y="405" type="line"/>
      <point x="712" y="286"/>
      <point x="645" y="259"/>
      <point x="562" y="259" type="curve" smooth="yes"/>
      <point x="414" y="259"/>
      <point x="299" y="356"/>
      <point x="299" y="566" type="curve" smooth="yes"/>
      <point x="299" y="794"/>
      <point x="421" y="865"/>
      <point x="528" y="865" type="curve" smooth="yes"/>
      <point x="655" y="865"/>
      <point x="720" y="768"/>
      <point x="743" y="724" type="curve"/>
      <point x="812" y="706" type="line"/>
      <point x="834" y="737"/>
      <point x="897" y="891"/>
      <point x="892" y="919" type="curve"/>
      <point x="851" y="965"/>
      <point x="691" y="992"/>
      <point x="610" y="992" type="curve" smooth="yes"/>
      <point x="290" y="992"/>
      <point x="77" y="800"/>
      <point x="77" y="539" type="curve" smooth="yes"/>
      <point x="77" y="265"/>
      <point x="319" y="118"/>
      <point x="495" y="118" type="curve" smooth="yes"/>
      <point x="632" y="118"/>
    </contour>
  </outline>
</glyph>
<glyph name="currency" format="2">
  <advance width="1107"/>
  <unicode hex="00A4"/>
  <outline>
    <contour>
      <point x="1086" y="386" type="line"/>
      <point x="1015" y="315" type="line"/>
      <point x="812" y="518" type="line"/>
      <point x="741" y="457"/>
      <point x="648" y="426"/>
      <point x="558" y="426" type="curve" smooth="yes"/>
      <point x="459" y="426"/>
      <point x="368" y="455"/>
      <point x="296" y="518" type="curve"/>
      <point x="93" y="315" type="line"/>
      <point x="22" y="386" type="line"/>
      <point x="225" y="589" type="line"/>
      <point x="167" y="660"/>
      <point x="138" y="749"/>
      <point x="138" y="841" type="curve" smooth="yes"/>
      <point x="138" y="932"/>
      <point x="165" y="1032"/>
      <point x="229" y="1101" type="curve"/>
      <point x="22" y="1308" type="line"/>
      <point x="93" y="1379" type="line"/>
      <point x="299" y="1172" type="line"/>
      <point x="370" y="1229"/>
      <point x="465" y="1259"/>
      <point x="558" y="1259" type="curve" smooth="yes"/>
      <point x="648" y="1259"/>
      <point x="739" y="1227"/>
      <point x="806" y="1170" type="curve"/>
      <point x="1015" y="1379" type="line"/>
      <point x="1086" y="1308" type="line"/>
      <point x="881" y="1103" type="line"/>
      <point x="936" y="1034"/>
      <point x="969" y="936"/>
      <point x="969" y="843" type="curve" smooth="yes"/>
      <point x="969" y="751"/>
      <point x="942" y="660"/>
      <point x="883" y="589" type="curve"/>
    </contour>
    <contour>
      <point x="857" y="843" type="line" smooth="yes"/>
      <point x="857" y="1007"/>
      <point x="723" y="1147"/>
      <point x="558" y="1147" type="curve" smooth="yes"/>
      <point x="386" y="1147"/>
      <point x="250" y="1013"/>
      <point x="250" y="841" type="curve" smooth="yes"/>
      <point x="250" y="672"/>
      <point x="388" y="538"/>
      <point x="558" y="538" type="curve" smooth="yes"/>
      <point x="725" y="538"/>
      <point x="857" y="678"/>
      <point x="857" y="843" type="curve" smooth="yes"/>
    </contour>
  </outline>
</glyph>
<glyph name="section" format="2">
  <advance width="962"/>
  <unicode hex="00A7"/>
  <outline>
    <contour>
      <point x="434" y="-27" type="curve" smooth="yes"/>
      <point x="552" y="-27"/>
      <point x="815" y="0"/>
      <point x="815" y="260" type="curve" smooth="yes"/>
      <point x="815" y="397"/>
      <point x="659" y="469"/>
      <point x="552" y="523" type="curve"/>
      <point x="391" y="613"/>
      <point x="312" y="656"/>
      <point x="312" y="763" type="curve" smooth="yes"/>
      <point x="312" y="830"/>
      <point x="386" y="908"/>
      <point x="452" y="910" type="curve"/>
      <point x="363" y="1004" type="line"/>
      <point x="220" y="979"/>
      <point x="92" y="845"/>
      <point x="92" y="717" type="curve" smooth="yes"/>
      <point x="92" y="545"/>
      <point x="236" y="447"/>
      <point x="338" y="394" type="curve" smooth="yes"/>
      <point x="450" y="335"/>
      <point x="585" y="279"/>
      <point x="585" y="181" type="curve" smooth="yes"/>
      <point x="585" y="113"/>
      <point x="550" y="90"/>
      <point x="461" y="90" type="curve" smooth="yes"/>
      <point x="362" y="90"/>
      <point x="274" y="174"/>
      <point x="241" y="314" type="curve"/>
      <point x="155" y="324" type="line"/>
      <point x="128" y="223"/>
      <point x="132" y="46"/>
      <point x="149" y="39" type="curve"/>
      <point x="230" y="-5"/>
      <point x="348" y="-27"/>
    </contour>
    <contour>
      <point x="656" y="309" type="line"/>
      <point x="761" y="340"/>
      <point x="870" y="458"/>
      <point x="870" y="619" type="curve" smooth="yes"/>
      <point x="870" y="811"/>
      <point x="724" y="901"/>
      <point x="617" y="955" type="curve" smooth="yes"/>
      <point x="478" y="1028"/>
      <point x="377" y="1061"/>
      <point x="377" y="1140" type="curve" smooth="yes"/>
      <point x="377" y="1191"/>
      <point x="416" y="1223"/>
      <point x="488" y="1223" type="curve" smooth="yes"/>
      <point x="575" y="1223"/>
      <point x="632" y="1155"/>
      <point x="654" y="1040" type="curve"/>
      <point x="726" y="1033" type="line"/>
      <point x="760" y="1080"/>
      <point x="797" y="1242"/>
      <point x="782" y="1253" type="curve" smooth="yes"/>
      <point x="723" y="1297"/>
      <point x="608" y="1324"/>
      <point x="494" y="1324" type="curve" smooth="yes"/>
      <point x="318" y="1324"/>
      <point x="147" y="1229"/>
      <point x="147" y="1076" type="curve" smooth="yes"/>
      <point x="147" y="959"/>
      <point x="300" y="882"/>
      <point x="402" y="827" type="curve" smooth="yes"/>
      <point x="574" y="735"/>
      <point x="649" y="684"/>
      <point x="649" y="558" type="curve" smooth="yes"/>
      <point x="649" y="482"/>
      <point x="586" y="411"/>
      <point x="525" y="404" type="curve"/>
    </contour>
  </outline>
</glyph>
<glyph name="dieresis" format="2">
  <advance width="736"/>
  <unicode hex="00A8"/>
  <anchor x="369" y="1297" name="U"/>
  <outline>
    <contour>
      <point x="310" y="1071"/>
      <point x="310" y="1168" type="curve" smooth="yes"/>
      <point x="310" y="1248"/>
      <point x="264" y="1288"/>
      <point x="190" y="1288" type="curve" smooth="yes"/>
      <point x="109" y="1288"/>
      <point x="34" y="1210"/>
      <point x="34" y="1113" type="curve" smooth="yes"/>
      <point x="34" y="1035"/>
      <point x="77" y="993"/>
      <point x="153" y="993" type="curve" smooth="yes"/>
      <point x="238" y="993"/>
    </contour>
    <contour>
      <point x="705" y="1071"/>
      <point x="705" y="1168" type="curve" smooth="yes"/>
      <point x="705" y="1248"/>
      <point x="659" y="1288"/>
      <point x="586" y="1288" type="curve" smooth="yes"/>
      <point x="505" y="1288"/>
      <point x="429" y="1210"/>
      <point x="429" y="1113" type="curve" smooth="yes"/>
      <point x="429" y="1035"/>
      <point x="472" y="993"/>
      <point x="549" y="993" type="curve" smooth="yes"/>
      <point x="633" y="993"/>
    </contour>
  </outline>
</glyph>
<glyph name="guillemotleft" format="2">
  <advance width="988"/>
  <unicode hex="00AB"/>
  <outline>
    <contour>
      <point x="441" y="395" type="curve"/>
      <point x="819" y="-2" type="line"/>
      <point x="877" y="43" type="line"/>
      <point x="701" y="429" type="line"/>
      <point x="699" y="427"/>
      <point x="877" y="812"/>
      <point x="876" y="812" type="curve"/>
      <point x="819" y="858" type="line"/>
      <point x="443" y="462" type="line" smooth="yes"/>
      <point x="441" y="460"/>
      <point x="441" y="395"/>
    </contour>
    <contour>
      <point x="55" y="395" type="curve"/>
      <point x="433" y="-2" type="line"/>
      <point x="491" y="43" type="line"/>
      <point x="315" y="429" type="line"/>
      <point x="312" y="427"/>
      <point x="491" y="812"/>
      <point x="490" y="812" type="curve"/>
      <point x="433" y="858" type="line"/>
      <point x="57" y="462" type="line" smooth="yes"/>
      <point x="55" y="460"/>
      <point x="55" y="395"/>
    </contour>
  </outline>
</glyph>
<glyph name="sfthyphen" format="2">
  <advance width="736"/>
  <unicode hex="00AD"/>
  <outline>
    <contour>
      <point x="618" y="551" type="line" smooth="yes"/>
      <point x="618" y="493"/>
      <point x="613" y="472"/>
      <point x="598" y="472" type="curve" smooth="yes"/>
      <point x="137" y="472" type="line" smooth="yes"/>
      <point x="121" y="472"/>
      <point x="118" y="493"/>
      <point x="118" y="551" type="curve" smooth="yes"/>
      <point x="118" y="604"/>
      <point x="123" y="630"/>
      <point x="140" y="630" type="curve" smooth="yes"/>
      <point x="596" y="630" type="line" smooth="yes"/>
      <point x="612" y="630"/>
      <point x="618" y="604"/>
      <point x="618" y="551" type="curve" smooth="yes"/>
    </contour>
  </outline>
</glyph>
<glyph name="degree" format="2">
  <advance width="630"/>
  <unicode hex="00B0"/>
  <outline>
    <contour>
      <point x="532" y="1202" type="line" smooth="yes"/>
      <point x="532" y="1082"/>
      <point x="435" y="985"/>
      <point x="315" y="985" type="curve" smooth="yes"/>
      <point x="195" y="985"/>
      <point x="99" y="1082"/>
      <point x="99" y="1202" type="curve" smooth="yes"/>
      <point x="99" y="1322"/>
      <point x="195" y="1419"/>
      <point x="315" y="1419" type="curve" smooth="yes"/>
      <point x="435" y="1419"/>
      <point x="532" y="1322"/>
      <point x="532" y="1202" type="curve" smooth="yes"/>
    </contour>
    <contour>
      <point x="453" y="1202" type="line" smooth="yes"/>
      <point x="453" y="1279"/>
      <point x="392" y="1340"/>
      <point x="315" y="1340" type="curve" smooth="yes"/>
      <point x="238" y="1340"/>
      <point x="177" y="1279"/>
      <point x="177" y="1202" type="curve" smooth="yes"/>
      <point x="177" y="1125"/>
      <point x="238" y="1064"/>
      <point x="315" y="1064" type="curve" smooth="yes"/>
      <point x="392" y="1064"/>
      <point x="453" y="1125"/>
      <point x="453" y="1202" type="curve" smooth="yes"/>
    </contour>
  </outline>
</glyph>
<glyph name="plusminus" format="2">
  <advance width="800"/>
  <unicode hex="00B1"/>
  <outline>
    <contour>
      <point x="747" y="650"/>
      <point x="754" y="677" type="curve"/>
      <point x="722" y="708" type="line"/>
      <point x="92" y="708" type="line"/>
      <point x="81" y="684"/>
      <point x="52" y="623"/>
      <point x="46" y="597" type="curve"/>
      <point x="78" y="565" type="line"/>
      <point x="707" y="565" type="line"/>
      <point x="716" y="586"/>
    </contour>
    <contour>
      <point x="449" y="310"/>
      <point x="473" y="322" type="curve"/>
      <point x="473" y="958" type="line"/>
      <point x="442" y="989" type="line"/>
      <point x="415" y="982"/>
      <point x="354" y="960"/>
      <point x="331" y="953" type="curve"/>
      <point x="331" y="314" type="line"/>
      <point x="363" y="285" type="line"/>
      <point x="390" y="290"/>
    </contour>
    <contour>
      <point x="747" y="181"/>
      <point x="754" y="207" type="curve"/>
      <point x="722" y="239" type="line"/>
      <point x="92" y="239" type="line"/>
      <point x="81" y="215"/>
      <point x="52" y="154"/>
      <point x="46" y="127" type="curve"/>
      <point x="78" y="96" type="line"/>
      <point x="707" y="96" type="line"/>
      <point x="716" y="116"/>
    </contour>
  </outline>
</glyph>
<glyph name="twosuperior" format="2">
  <advance width="682"/>
  <unicode hex="00B2"/>
  <anchor x="341" y="515" name="L"/>
  <anchor x="341" y="1326" name="U"/>
  <outline>
    <contour>
      <point x="606" y="570" type="line"/>
      <point x="615" y="778" type="line"/>
      <point x="557" y="790" type="line"/>
      <point x="557" y="790"/>
      <point x="550" y="676"/>
      <point x="492" y="676" type="curve" smooth="yes"/>
      <point x="239" y="676" type="line"/>
      <point x="517" y="935"/>
      <point x="607" y="1018"/>
      <point x="607" y="1117" type="curve" smooth="yes"/>
      <point x="607" y="1204"/>
      <point x="518" y="1252"/>
      <point x="377" y="1252" type="curve" smooth="yes"/>
      <point x="207" y="1252"/>
      <point x="68" y="1157"/>
      <point x="68" y="1081" type="curve"/>
      <point x="91" y="1036" type="line"/>
      <point x="130" y="1040"/>
      <point x="221" y="1060"/>
      <point x="251" y="1074" type="curve"/>
      <point x="237" y="1130"/>
      <point x="263" y="1185"/>
      <point x="333" y="1185" type="curve" smooth="yes"/>
      <point x="397" y="1185"/>
      <point x="424" y="1140"/>
      <point x="424" y="1080" type="curve" smooth="yes"/>
      <point x="424" y="1002"/>
      <point x="350" y="913"/>
      <point x="50" y="610" type="curve"/>
      <point x="69" y="570" type="line"/>
    </contour>
  </outline>
</glyph>
<glyph name="threesuperior" format="2">
  <advance width="682"/>
  <unicode hex="00B3"/>
  <anchor x="341" y="515" name="L"/>
  <anchor x="341" y="1326" name="U"/>
  <outline>
    <contour>
      <point x="609" y="656"/>
      <point x="609" y="781" type="curve" smooth="yes"/>
      <point x="609" y="870"/>
      <point x="541" y="946"/>
      <point x="434" y="955" type="curve"/>
      <point x="515" y="977"/>
      <point x="572" y="1044"/>
      <point x="572" y="1099" type="curve" smooth="yes"/>
      <point x="572" y="1173"/>
      <point x="509" y="1252"/>
      <point x="343" y="1252" type="curve" smooth="yes"/>
      <point x="176" y="1252"/>
      <point x="68" y="1153"/>
      <point x="68" y="1092" type="curve"/>
      <point x="91" y="1052" type="line"/>
      <point x="142" y="1057"/>
      <point x="213" y="1077"/>
      <point x="251" y="1096" type="curve"/>
      <point x="232" y="1147"/>
      <point x="269" y="1185"/>
      <point x="306" y="1185" type="curve" smooth="yes"/>
      <point x="366" y="1185"/>
      <point x="385" y="1139"/>
      <point x="385" y="1089" type="curve" smooth="yes"/>
      <point x="385" y="1044"/>
      <point x="364" y="981"/>
      <point x="220" y="949" type="curve"/>
      <point x="232" y="894" type="line"/>
      <point x="259" y="897"/>
      <point x="265" y="897"/>
      <point x="289" y="897" type="curve" smooth="yes"/>
      <point x="340" y="897"/>
      <point x="421" y="867"/>
      <point x="421" y="768" type="curve" smooth="yes"/>
      <point x="421" y="674"/>
      <point x="358" y="636"/>
      <point x="285" y="636" type="curve" smooth="yes"/>
      <point x="220" y="636"/>
      <point x="156" y="656"/>
      <point x="78" y="706" type="curve"/>
      <point x="50" y="646" type="line"/>
      <point x="127" y="583"/>
      <point x="239" y="553"/>
      <point x="306" y="553" type="curve" smooth="yes"/>
      <point x="483" y="553"/>
    </contour>
  </outline>
</glyph>
<glyph name="acute" format="2">
  <advance width="600"/>
  <unicode hex="00B4"/>
  <anchor x="300" y="1297" name="U"/>
  <outline>
    <contour>
      <point x="270" y="954" type="curve"/>
      <point x="633" y="1303" type="line"/>
      <point x="603" y="1357" type="line"/>
      <point x="575" y="1366"/>
      <point x="397" y="1395"/>
      <point x="368" y="1397" type="curve"/>
      <point x="181" y="998" type="line"/>
      <point x="195" y="987"/>
      <point x="248" y="957"/>
    </contour>
  </outline>
</glyph>
<glyph name="mu" format="2">
  <advance width="1090"/>
  <unicode hex="00B5"/>
  <outline>
    <contour>
      <point x="1090" y="93" type="curve"/>
      <point x="1062" y="172" type="line"/>
      <point x="1022" y="151"/>
      <point x="1000" y="146"/>
      <point x="974" y="146" type="curve" smooth="yes"/>
      <point x="948" y="146"/>
      <point x="938" y="169"/>
      <point x="938" y="283" type="curve" smooth="yes"/>
      <point x="938" y="320"/>
      <point x="938" y="677"/>
      <point x="938" y="698" type="curve" smooth="yes"/>
      <point x="940" y="774"/>
      <point x="948" y="806"/>
      <point x="953" y="838" type="curve"/>
      <point x="953" y="838"/>
      <point x="918" y="883"/>
      <point x="918" y="883" type="curve"/>
      <point x="842" y="860"/>
      <point x="727" y="839"/>
      <point x="655" y="828" type="curve"/>
      <point x="671" y="805"/>
      <point x="690" y="727"/>
      <point x="690" y="688" type="curve" smooth="yes"/>
      <point x="690" y="658"/>
      <point x="690" y="225"/>
      <point x="690" y="198" type="curve" smooth="yes"/>
      <point x="690" y="80"/>
      <point x="729" y="-28"/>
      <point x="812" y="-28" type="curve" smooth="yes"/>
      <point x="881" y="-28"/>
      <point x="1018" y="38"/>
    </contour>
    <contour>
      <point x="746" y="215" type="curve"/>
      <point x="732" y="343" type="line"/>
      <point x="621" y="189"/>
      <point x="574" y="166"/>
      <point x="527" y="166" type="curve" smooth="yes"/>
      <point x="485" y="166"/>
      <point x="395" y="238"/>
      <point x="395" y="355" type="curve" smooth="yes"/>
      <point x="395" y="368"/>
      <point x="395" y="827"/>
      <point x="395" y="834" type="curve"/>
      <point x="385" y="847"/>
      <point x="352" y="883"/>
      <point x="351" y="883" type="curve" smooth="yes"/>
      <point x="250" y="850"/>
      <point x="151" y="829"/>
      <point x="37" y="822" type="curve"/>
      <point x="37" y="748" type="line"/>
      <point x="153" y="736"/>
      <point x="147" y="721"/>
      <point x="147" y="626" type="curve" smooth="yes"/>
      <point x="147" y="615"/>
      <point x="147" y="443"/>
      <point x="147" y="425" type="curve" smooth="yes"/>
      <point x="147" y="196"/>
      <point x="356" y="-28"/>
      <point x="460" y="-28" type="curve" smooth="yes"/>
      <point x="553" y="-28"/>
      <point x="626" y="36"/>
    </contour>
    <contour>
      <point x="268" y="310"/>
      <point x="276" y="422" type="curve"/>
      <point x="269" y="471"/>
      <point x="147" y="565"/>
      <point x="147" y="565" type="curve"/>
      <point x="147" y="500"/>
      <point x="147" y="-397"/>
      <point x="147" y="-424" type="curve"/>
      <point x="192" y="-460" type="line"/>
      <point x="221" y="-445"/>
      <point x="406" y="-369"/>
      <point x="442" y="-357" type="curve"/>
      <point x="366" y="-280"/>
      <point x="278" y="-138"/>
      <point x="278" y="69" type="curve"/>
      <point x="280" y="213"/>
    </contour>
  </outline>
</glyph>
<glyph name="paragraph" format="2">
  <advance width="1127"/>
  <unicode hex="00B6"/>
  <outline>
    <contour>
      <point x="550" y="-439" type="line"/>
      <point x="648" y="-439" type="line"/>
      <point x="648" y="1281" type="line"/>
      <point x="831" y="1281" type="line" name="hr01"/>
      <point x="829" y="-439" type="line"/>
      <point x="930" y="-439" type="line"/>
      <point x="930" y="1131" type="line" smooth="yes"/>
      <point x="930" y="1275"/>
      <point x="948" y="1316"/>
      <point x="1119" y="1316" type="curve"/>
      <point x="1119" y="1355" type="line"/>
      <point x="550" y="1355" type="line" smooth="yes" name="hr03"/>
      <point x="177" y="1355"/>
      <point x="10" y="1176"/>
      <point x="10" y="892" type="curve" smooth="yes" name="hr02"/>
      <point x="10" y="609"/>
      <point x="177" y="430"/>
      <point x="550" y="430" type="curve"/>
    </contour>
  </outline>
</glyph>
<glyph name="periodcentered" format="2">
  <advance width="422"/>
  <unicode hex="00B7"/>
  <outline>
    <contour>
      <point x="325" y="746" type="line" smooth="yes"/>
      <point x="325" y="650"/>
      <point x="273" y="588"/>
      <point x="211" y="588" type="curve" smooth="yes"/>
      <point x="152" y="588"/>
      <point x="96" y="648"/>
      <point x="96" y="746" type="curve" smooth="yes"/>
      <point x="96" y="847"/>
      <point x="153" y="900"/>
      <point x="211" y="900" type="curve" smooth="yes"/>
      <point x="273" y="900"/>
      <point x="325" y="848"/>
      <point x="325" y="746" type="curve" smooth="yes"/>
    </contour>
  </outline>
</glyph>
<glyph name="onesuperior" format="2">
  <advance width="682"/>
  <unicode hex="00B9"/>
  <anchor x="341" y="515" name="L"/>
  <anchor x="341" y="1326" name="U"/>
  <outline>
    <contour>
      <point x="96" y="570" type="line"/>
      <point x="605" y="570" type="line"/>
      <point x="605" y="621" type="line"/>
      <point x="475" y="635"/>
      <point x="444" y="656"/>
      <point x="444" y="671" type="curve" smooth="yes"/>
      <point x="444" y="1232" type="line"/>
      <point x="414" y="1257" type="line"/>
      <point x="350" y="1234"/>
      <point x="150" y="1175"/>
      <point x="76" y="1163" type="curve"/>
      <point x="96" y="1113" type="line"/>
      <point x="209" y="1134"/>
      <point x="248" y="1130"/>
      <point x="258" y="1121" type="curve" smooth="yes"/>
      <point x="269" y="1111"/>
      <point x="270" y="1096"/>
      <point x="270" y="1067" type="curve" smooth="yes"/>
      <point x="270" y="671" type="line" smooth="yes"/>
      <point x="270" y="655"/>
      <point x="230" y="635"/>
      <point x="96" y="621" type="curve"/>
    </contour>
  </outline>
</glyph>
<glyph name="onequarter" format="2">
  <advance width="1196"/>
  <unicode hex="00BC"/>
  <outline>
    <contour>
      <point x="281" y="2" type="curve"/>
      <point x="1135" y="1110" type="line"/>
      <point x="1112" y="1136" type="line"/>
      <point x="1085" y="1130"/>
      <point x="1008" y="1116"/>
      <point x="984" y="1106" type="curve"/>
      <point x="126" y="0" type="line"/>
      <point x="149" y="-27" type="line"/>
      <point x="183" y="-19"/>
      <point x="253" y="-11"/>
    </contour>
    <contour>
      <point x="1136" y="179"/>
      <point x="1150" y="198" type="curve"/>
      <point x="1137" y="212" type="line"/>
      <point x="1067" y="212" type="line"/>
      <point x="1067" y="529" type="line"/>
      <point x="1042" y="550" type="line"/>
      <point x="1009" y="540"/>
      <point x="947" y="523"/>
      <point x="913" y="514" type="curve"/>
      <point x="663" y="164" type="line"/>
      <point x="686" y="145" type="line"/>
      <point x="931" y="145" type="line"/>
      <point x="931" y="68" type="line" smooth="yes"/>
      <point x="931" y="57"/>
      <point x="912" y="49"/>
      <point x="820" y="36" type="curve"/>
      <point x="820" y="0" type="line"/>
      <point x="1139" y="0" type="line"/>
      <point x="1139" y="36" type="line"/>
      <point x="1082" y="47"/>
      <point x="1067" y="55"/>
      <point x="1067" y="63" type="curve" smooth="yes"/>
      <point x="1067" y="145" type="line"/>
      <point x="1093" y="145" type="line"/>
      <point x="1109" y="155"/>
    </contour>
    <contour>
      <point x="931" y="424" type="line"/>
      <point x="931" y="212" type="line"/>
      <point x="772" y="212" type="line"/>
    </contour>
    <contour>
      <point x="78" y="586" type="line"/>
      <point x="493" y="586" type="line"/>
      <point x="493" y="627" type="line"/>
      <point x="387" y="638"/>
      <point x="361" y="655"/>
      <point x="361" y="667" type="curve" smooth="yes"/>
      <point x="361" y="1115" type="line"/>
      <point x="337" y="1136" type="line"/>
      <point x="285" y="1117"/>
      <point x="122" y="1070"/>
      <point x="62" y="1060" type="curve"/>
      <point x="78" y="1020" type="line"/>
      <point x="171" y="1036"/>
      <point x="202" y="1034"/>
      <point x="210" y="1026" type="curve" smooth="yes"/>
      <point x="218" y="1018"/>
      <point x="219" y="1006"/>
      <point x="219" y="983" type="curve" smooth="yes"/>
      <point x="219" y="667" type="line" smooth="yes"/>
      <point x="219" y="654"/>
      <point x="188" y="638"/>
      <point x="78" y="627" type="curve"/>
    </contour>
  </outline>
</glyph>
<glyph name="questiondown" format="2">
  <advance width="871"/>
  <unicode hex="00BF"/>
  <outline>
    <contour>
      <point x="620" y="651"/>
      <point x="620" y="752" type="curve" smooth="yes"/>
      <point x="620" y="846"/>
      <point x="547" y="883"/>
      <point x="472" y="883" type="curve" smooth="yes"/>
      <point x="373" y="883"/>
      <point x="290" y="827"/>
      <point x="290" y="724" type="curve" smooth="yes"/>
      <point x="290" y="630"/>
      <point x="367" y="592"/>
      <point x="437" y="592" type="curve" smooth="yes"/>
      <point x="533" y="592"/>
    </contour>
    <contour>
      <point x="422" y="477"/>
      <point x="399" y="460" type="curve"/>
      <point x="393" y="372" type="line" smooth="yes"/>
      <point x="380" y="170"/>
      <point x="55" y="51"/>
      <point x="55" y="-225" type="curve" smooth="yes"/>
      <point x="55" y="-397"/>
      <point x="172" y="-515"/>
      <point x="381" y="-515" type="curve" smooth="yes"/>
      <point x="612" y="-515"/>
      <point x="816" y="-378"/>
      <point x="816" y="-205" type="curve" smooth="yes"/>
      <point x="816" y="-195"/>
      <point x="816" y="-165"/>
      <point x="814" y="-156" type="curve"/>
      <point x="780" y="-119" type="line"/>
      <point x="725" y="-125"/>
      <point x="574" y="-161"/>
      <point x="534" y="-182" type="curve"/>
      <point x="540" y="-199"/>
      <point x="545" y="-227"/>
      <point x="545" y="-244" type="curve" smooth="yes"/>
      <point x="545" y="-340"/>
      <point x="496" y="-399"/>
      <point x="444" y="-399" type="curve" smooth="yes"/>
      <point x="373" y="-399"/>
      <point x="327" y="-334"/>
      <point x="327" y="-184" type="curve" smooth="yes"/>
      <point x="327" y="-9"/>
      <point x="547" y="161"/>
      <point x="536" y="372" type="curve"/>
      <point x="529" y="470" type="line"/>
      <point x="496" y="498" type="line"/>
      <point x="462" y="489"/>
    </contour>
  </outline>
</glyph>
<glyph name="AE" format="2">
  <advance width="1541"/>
  <unicode hex="00C6"/>
  <anchor x="834" y="-92" name="L"/>
  <anchor x="903" y="1260" name="U"/>
  <outline>
    <contour>
      <point x="1491" y="192"/>
      <point x="1502" y="298" type="curve"/>
      <point x="1426" y="323" type="line"/>
      <point x="1374" y="180"/>
      <point x="1332" y="119"/>
      <point x="1219" y="119" type="curve" smooth="yes"/>
      <point x="1141" y="119" type="line" smooth="yes"/>
      <point x="979" y="119"/>
      <point x="951" y="142"/>
      <point x="951" y="178" type="curve" smooth="yes"/>
      <point x="951" y="565" type="line"/>
      <point x="1173" y="565" type="line" smooth="yes"/>
      <point x="1146" y="565"/>
      <point x="1228" y="551"/>
      <point x="1264" y="515" type="curve"/>
      <point x="1287" y="537"/>
      <point x="1327" y="607"/>
      <point x="1348" y="641" type="curve"/>
      <point x="1314" y="676" type="line"/>
      <point x="951" y="676" type="line"/>
      <point x="951" y="1039" type="line"/>
      <point x="1251" y="1039" type="line" smooth="yes"/>
      <point x="1299" y="1039"/>
      <point x="1321" y="968"/>
      <point x="1326" y="855" type="curve"/>
      <point x="1404" y="855" type="line"/>
      <point x="1422" y="902"/>
      <point x="1438" y="1064"/>
      <point x="1442" y="1127" type="curve"/>
      <point x="1405" y="1159" type="line"/>
      <point x="992" y="1159" type="line"/>
      <point x="838" y="1159" type="line"/>
      <point x="350" y="1159" type="line"/>
      <point x="350" y="1082" type="line"/>
      <point x="471" y="1059"/>
      <point x="496" y="1046"/>
      <point x="479" y="1005" type="curve"/>
      <point x="129" y="138" type="line"/>
      <point x="114" y="103"/>
      <point x="72" y="86"/>
      <point x="0" y="76" type="curve"/>
      <point x="0" y="0" type="line"/>
      <point x="382" y="0" type="line"/>
      <point x="382" y="76" type="line"/>
      <point x="295" y="87"/>
      <point x="274" y="103"/>
      <point x="289" y="138" type="curve"/>
      <point x="462" y="565" type="line"/>
      <point x="693" y="565" type="line"/>
      <point x="693" y="132" type="line" smooth="yes"/>
      <point x="693" y="115"/>
      <point x="654" y="92"/>
      <point x="571" y="76" type="curve"/>
      <point x="571" y="0" type="line"/>
      <point x="1465" y="0" type="line"/>
      <point x="1474" y="35"/>
    </contour>
    <contour>
      <point x="693" y="1019" type="curve" smooth="yes"/>
      <point x="693" y="676" type="line"/>
      <point x="505" y="676" type="line"/>
      <point x="640" y="1003" type="line" smooth="yes"/>
      <point x="657" y="1046"/>
      <point x="693" y="1046"/>
    </contour>
  </outline>
</glyph>
<glyph name="Eth" format="2">
  <advance width="1227"/>
  <unicode hex="00D0"/>
  <anchor x="588" y="-92" name="L"/>
  <anchor x="588" y="1260" name="U"/>
  <outline>
    <contour>
      <point x="621" y="565" type="line"/>
      <point x="657" y="664" type="line"/>
      <point x="634" y="685" type="line"/>
      <point x="59" y="685" type="line"/>
      <point x="52" y="666"/>
      <point x="31" y="606"/>
      <point x="25" y="587" type="curve"/>
      <point x="46" y="565" type="line"/>
    </contour>
    <component base="LtnCapD"/>
  </outline>
</glyph>
<glyph name="multiply" format="2">
  <advance width="772"/>
  <unicode hex="00D7"/>
  <outline>
    <contour>
      <point x="672" y="256"/>
      <point x="697" y="266" type="curve"/>
      <point x="697" y="304" type="line"/>
      <point x="198" y="803" type="line"/>
      <point x="172" y="796"/>
      <point x="96" y="782"/>
      <point x="72" y="770" type="curve"/>
      <point x="73" y="725" type="line"/>
      <point x="572" y="227" type="line"/>
      <point x="597" y="232"/>
    </contour>
    <contour>
      <point x="76" y="307" type="line"/>
      <point x="76" y="266" type="line"/>
      <point x="110" y="246"/>
      <point x="175" y="232"/>
      <point x="198" y="227" type="curve"/>
      <point x="694" y="723" type="line"/>
      <point x="694" y="763" type="line"/>
      <point x="670" y="780"/>
      <point x="598" y="796"/>
      <point x="572" y="803" type="curve"/>
    </contour>
  </outline>
</glyph>
<glyph name="eth" format="2">
  <advance width="970"/>
  <unicode hex="00F0"/>
  <anchor x="482" y="-92" name="L"/>
  <anchor x="485" y="1490" name="U"/>
  <outline>
    <contour>
      <point x="915" y="138"/>
      <point x="915" y="563" type="curve" smooth="yes"/>
      <point x="915" y="765"/>
      <point x="859" y="953"/>
      <point x="704" y="1127" type="curve"/>
      <point x="924" y="1217" type="line"/>
      <point x="918" y="1258" type="line"/>
      <point x="885" y="1269"/>
      <point x="847" y="1274"/>
      <point x="789" y="1278" type="curve"/>
      <point x="623" y="1211" type="line"/>
      <point x="572" y="1258"/>
      <point x="492" y="1317"/>
      <point x="425" y="1361" type="curve"/>
      <point x="157" y="1267" type="line"/>
      <point x="171" y="1193" type="line"/>
      <point x="277" y="1208"/>
      <point x="373" y="1180"/>
      <point x="441" y="1132" type="curve"/>
      <point x="198" y="1032" type="line"/>
      <point x="208" y="989" type="line"/>
      <point x="251" y="976"/>
      <point x="288" y="973"/>
      <point x="334" y="972" type="curve"/>
      <point x="524" y="1049" type="line"/>
      <point x="595" y="967"/>
      <point x="624" y="899"/>
      <point x="645" y="813" type="curve"/>
      <point x="599" y="860"/>
      <point x="540" y="883"/>
      <point x="465" y="883" type="curve" smooth="yes"/>
      <point x="219" y="883"/>
      <point x="55" y="652"/>
      <point x="55" y="408" type="curve" smooth="yes"/>
      <point x="55" y="158"/>
      <point x="217" y="-27"/>
      <point x="483" y="-27" type="curve" smooth="yes"/>
      <point x="650" y="-27"/>
    </contour>
    <contour>
      <point x="631" y="699"/>
      <point x="667" y="571" type="curve"/>
      <point x="667" y="555"/>
      <point x="667" y="540"/>
      <point x="667" y="525" type="curve" smooth="yes"/>
      <point x="667" y="223"/>
      <point x="628" y="92"/>
      <point x="493" y="92" type="curve" smooth="yes"/>
      <point x="387" y="92"/>
      <point x="308" y="259"/>
      <point x="308" y="453" type="curve" smooth="yes"/>
      <point x="308" y="649"/>
      <point x="356" y="754"/>
      <point x="455" y="754" type="curve" smooth="yes"/>
      <point x="526" y="754"/>
    </contour>
  </outline>
</glyph>
<glyph name="divide" format="2">
  <advance width="800"/>
  <unicode hex="00F7"/>
  <outline>
    <contour>
      <point x="747" y="530"/>
      <point x="754" y="557" type="curve"/>
      <point x="722" y="588" type="line"/>
      <point x="92" y="588" type="line"/>
      <point x="81" y="564"/>
      <point x="52" y="504"/>
      <point x="46" y="477" type="curve"/>
      <point x="78" y="446" type="line"/>
      <point x="707" y="446" type="line"/>
      <point x="716" y="466"/>
    </contour>
    <contour>
      <point x="506" y="708"/>
      <point x="506" y="784" type="curve" smooth="yes"/>
      <point x="506" y="849"/>
      <point x="478" y="882"/>
      <point x="420" y="882" type="curve" smooth="yes"/>
      <point x="355" y="882"/>
      <point x="301" y="820"/>
      <point x="301" y="743" type="curve" smooth="yes"/>
      <point x="301" y="679"/>
      <point x="327" y="644"/>
      <point x="388" y="644" type="curve" smooth="yes"/>
      <point x="455" y="644"/>
    </contour>
    <contour>
      <point x="506" y="217"/>
      <point x="506" y="293" type="curve" smooth="yes"/>
      <point x="506" y="357"/>
      <point x="478" y="391"/>
      <point x="420" y="391" type="curve" smooth="yes"/>
      <point x="355" y="391"/>
      <point x="301" y="329"/>
      <point x="301" y="252" type="curve" smooth="yes"/>
      <point x="301" y="188"/>
      <point x="327" y="152"/>
      <point x="388" y="152" type="curve" smooth="yes"/>
      <point x="455" y="152"/>
    </contour>
  </outline>
</glyph>
<glyph name="oslash" format="2">
  <advance width="1002"/>
  <unicode hex="00F8"/>
  <anchor x="521" y="0" name="H"/>
  <anchor x="511" y="-92" name="L"/>
  <anchor x="562" y="0" name="O"/>
  <anchor x="1002" y="828" name="R"/>
  <anchor x="511" y="966" name="U"/>
  <outline>
    <contour>
      <point x="947" y="446" type="curve" smooth="yes"/>
      <point x="947" y="564"/>
      <point x="903" y="676"/>
      <point x="836" y="753" type="curve"/>
      <point x="932" y="875" type="line"/>
      <point x="905" y="904" type="line"/>
      <point x="861" y="895"/>
      <point x="783" y="862"/>
      <point x="750" y="841" type="curve"/>
      <point x="738" y="828" type="line"/>
      <point x="678" y="861"/>
      <point x="599" y="883"/>
      <point x="519" y="883" type="curve" smooth="yes"/>
      <point x="243" y="883"/>
      <point x="55" y="652"/>
      <point x="55" y="408" type="curve" smooth="yes"/>
      <point x="55" y="289"/>
      <point x="100" y="178"/>
      <point x="168" y="101" type="curve"/>
      <point x="71" y="-21" type="line"/>
      <point x="95" y="-48" type="line"/>
      <point x="135" y="-39"/>
      <point x="226" y="-6"/>
      <point x="249" y="11" type="curve"/>
      <point x="261" y="26" type="line"/>
      <point x="322" y="-4"/>
      <point x="402" y="-27"/>
      <point x="483" y="-27" type="curve" smooth="yes"/>
      <point x="735" y="-27"/>
      <point x="947" y="201"/>
    </contour>
    <contour>
      <point x="327" y="303" type="line"/>
      <point x="321" y="339"/>
      <point x="315" y="393"/>
      <point x="315" y="435" type="curve" smooth="yes"/>
      <point x="315" y="621"/>
      <point x="352" y="763"/>
      <point x="493" y="763" type="curve" smooth="yes"/>
      <point x="544" y="763"/>
      <point x="592" y="728"/>
      <point x="623" y="681" type="curve"/>
    </contour>
    <contour>
      <point x="509" y="92" type="curve" smooth="yes"/>
      <point x="460" y="92"/>
      <point x="411" y="128"/>
      <point x="378" y="176" type="curve"/>
      <point x="671" y="548" type="line"/>
      <point x="678" y="506"/>
      <point x="687" y="447"/>
      <point x="687" y="400" type="curve" smooth="yes"/>
      <point x="687" y="199"/>
      <point x="646" y="92"/>
    </contour>
  </outline>
</glyph>
<glyph name="thorn" format="2">
  <advance width="1071"/>
  <unicode hex="00FE"/>
  <anchor x="528" y="-552" name="L"/>
  <anchor x="528" y="1554" name="U"/>
  <outline>
    <contour>
      <point x="1016" y="218"/>
      <point x="1016" y="471" type="curve" smooth="yes"/>
      <point x="1016" y="743"/>
      <point x="875" y="883"/>
      <point x="708" y="883" type="curve" smooth="yes"/>
      <point x="638" y="883"/>
      <point x="550" y="862"/>
      <point x="409" y="751" type="curve"/>
      <point x="409" y="1384" type="line"/>
      <point x="368" y="1426" type="line"/>
      <point x="268" y="1391"/>
      <point x="199" y="1370"/>
      <point x="41" y="1352" type="curve"/>
      <point x="41" y="1278" type="line"/>
      <point x="146" y="1267"/>
      <point x="161" y="1265"/>
      <point x="161" y="1160" type="curve" smooth="yes"/>
      <point x="161" y="-308" type="line" smooth="yes"/>
      <point x="161" y="-329"/>
      <point x="122" y="-345"/>
      <point x="41" y="-365" type="curve"/>
      <point x="41" y="-441" type="line"/>
      <point x="564" y="-441" type="line"/>
      <point x="564" y="-365" type="line"/>
      <point x="449" y="-347"/>
      <point x="409" y="-327"/>
      <point x="409" y="-308" type="curve" smooth="yes"/>
      <point x="409" y="71" type="line"/>
      <point x="523" y="-3"/>
      <point x="593" y="-27"/>
      <point x="665" y="-27" type="curve" smooth="yes"/>
      <point x="807" y="-27"/>
    </contour>
    <contour>
      <point x="783" y="621"/>
      <point x="782" y="401" type="curve"/>
      <point x="782" y="238"/>
      <point x="736" y="138"/>
      <point x="654" y="138" type="curve" smooth="yes"/>
      <point x="597" y="137"/>
      <point x="546" y="140"/>
      <point x="409" y="214" type="curve"/>
      <point x="409" y="644" type="line"/>
      <point x="517" y="710"/>
      <point x="538" y="713"/>
      <point x="582" y="713" type="curve" smooth="yes"/>
      <point x="682" y="713"/>
    </contour>
  </outline>
</glyph>
<glyph name="dotlessi" format="2">
  <advance width="584"/>
  <unicode hex="0131"/>
  <anchor x="299" y="0" name="H"/>
  <anchor x="299" y="-92" name="L"/>
  <anchor x="355" y="0" name="O"/>
  <anchor x="584" y="828" name="R"/>
  <anchor x="299" y="966" name="U"/>
  <outline>
    <contour>
      <point x="55" y="0" type="line"/>
      <point x="542" y="0" type="line"/>
      <point x="542" y="76" type="line"/>
      <point x="453" y="92"/>
      <point x="423" y="117"/>
      <point x="423" y="132" type="curve" smooth="yes"/>
      <point x="423" y="883" type="line"/>
      <point x="355" y="883" type="line"/>
      <point x="264" y="852"/>
      <point x="169" y="833"/>
      <point x="55" y="818" type="curve"/>
      <point x="55" y="745" type="line"/>
      <point x="184" y="733"/>
      <point x="174" y="714"/>
      <point x="174" y="588" type="curve" smooth="yes"/>
      <point x="174" y="132" type="line" smooth="yes"/>
      <point x="174" y="115"/>
      <point x="138" y="92"/>
      <point x="55" y="76" type="curve"/>
    </contour>
  </outline>
</glyph>
<glyph name="OE" format="2">
  <advance width="1615"/>
  <unicode hex="0152"/>
  <anchor x="811" y="-92" name="L"/>
  <anchor x="811" y="1260" name="U"/>
  <outline>
    <contour>
      <point x="1513" y="1064"/>
      <point x="1517" y="1127" type="curve"/>
      <point x="1477" y="1159" type="line"/>
      <point x="1004" y="1159" type="line"/>
      <point x="977" y="1039" type="line"/>
      <point x="1325" y="1039" type="line" smooth="yes"/>
      <point x="1370" y="1039"/>
      <point x="1395" y="968"/>
      <point x="1401" y="855" type="curve"/>
      <point x="1479" y="855" type="line"/>
      <point x="1494" y="902"/>
    </contour>
    <contour>
      <point x="1402" y="607"/>
      <point x="1422" y="641" type="curve"/>
      <point x="1389" y="676" type="line"/>
      <point x="985" y="676" type="line"/>
      <point x="965" y="565" type="line"/>
      <point x="1155" y="565" type="line" smooth="yes"/>
      <point x="1258" y="565"/>
      <point x="1299" y="551"/>
      <point x="1337" y="515" type="curve"/>
      <point x="1364" y="534"/>
    </contour>
    <contour>
      <point x="1567" y="192"/>
      <point x="1576" y="298" type="curve"/>
      <point x="1500" y="323" type="line"/>
      <point x="1448" y="180"/>
      <point x="1408" y="119"/>
      <point x="1295" y="119" type="curve" smooth="yes"/>
      <point x="1213" y="119" type="line" smooth="yes"/>
      <point x="1051" y="119"/>
      <point x="1025" y="142"/>
      <point x="1025" y="178" type="curve" smooth="yes"/>
      <point x="1025" y="1046" type="line" smooth="yes"/>
      <point x="1025" y="1062"/>
      <point x="1076" y="1065"/>
      <point x="1159" y="1082" type="curve"/>
      <point x="1159" y="1159" type="line"/>
      <point x="1004" y="1159" type="line"/>
      <point x="644" y="1159" type="line"/>
      <point x="644" y="1082" type="line"/>
      <point x="732" y="1065"/>
      <point x="768" y="1040"/>
      <point x="768" y="1025" type="curve" smooth="yes"/>
      <point x="768" y="132" type="line" smooth="yes"/>
      <point x="768" y="115"/>
      <point x="726" y="92"/>
      <point x="644" y="76" type="curve"/>
      <point x="644" y="0" type="line"/>
      <point x="1539" y="0" type="line"/>
      <point x="1549" y="35"/>
    </contour>
    <contour>
      <point x="756" y="1015"/>
      <point x="803" y="920" type="curve"/>
      <point x="803" y="920"/>
      <point x="817" y="1121"/>
      <point x="830" y="1159" type="curve"/>
      <point x="747" y="1159"/>
      <point x="713" y="1186"/>
      <point x="609" y="1186" type="curve" smooth="yes"/>
      <point x="282" y="1186"/>
      <point x="46" y="897"/>
      <point x="46" y="563" type="curve" smooth="yes"/>
      <point x="46" y="253"/>
      <point x="246" y="-27"/>
      <point x="556" y="-27" type="curve" smooth="yes"/>
      <point x="669" y="-27"/>
      <point x="683" y="0"/>
      <point x="830" y="0" type="curve" smooth="yes"/>
      <point x="830" y="0"/>
      <point x="861" y="117"/>
      <point x="798" y="174" type="curve"/>
      <point x="735" y="125"/>
      <point x="707" y="101"/>
      <point x="601" y="101" type="curve" smooth="yes"/>
      <point x="436" y="101"/>
      <point x="308" y="314"/>
      <point x="308" y="589" type="curve" smooth="yes"/>
      <point x="308" y="889"/>
      <point x="394" y="1063"/>
      <point x="555" y="1063" type="curve" smooth="yes"/>
      <point x="652" y="1063"/>
    </contour>
  </outline>
</glyph>
<glyph name="circumflex" format="2">
  <advance width="674"/>
  <unicode hex="02C6"/>
  <outline>
    <contour>
      <point x="645" y="1000"/>
      <point x="660" y="1023" type="curve"/>
      <point x="410" y="1380" type="line"/>
      <point x="275" y="1380" type="line"/>
      <point x="13" y="1023" type="line"/>
      <point x="31" y="1000"/>
      <point x="62" y="963"/>
      <point x="82" y="954" type="curve"/>
      <point x="341" y="1145" type="line"/>
      <point x="602" y="954" type="line"/>
      <point x="623" y="963"/>
    </contour>
  </outline>
</glyph>
<glyph name="caron" format="2">
  <advance width="674"/>
  <unicode hex="02C7"/>
  <anchor x="337" y="1297" name="U"/>
  <outline>
    <contour>
      <point x="403" y="977" type="line"/>
      <point x="665" y="1334" type="line"/>
      <point x="647" y="1357"/>
      <point x="616" y="1394"/>
      <point x="596" y="1403" type="curve"/>
      <point x="337" y="1212" type="line"/>
      <point x="76" y="1403" type="line"/>
      <point x="55" y="1394"/>
      <point x="33" y="1357"/>
      <point x="18" y="1334" type="curve"/>
      <point x="268" y="977" type="line"/>
    </contour>
  </outline>
</glyph>
<glyph name="breve" format="2">
  <advance width="671"/>
  <unicode hex="02D8"/>
  <anchor x="335" y="1260" name="U"/>
  <outline>
    <contour>
      <point x="598" y="1062"/>
      <point x="671" y="1260" type="curve"/>
      <point x="656" y="1282"/>
      <point x="616" y="1320"/>
      <point x="595" y="1329" type="curve"/>
      <point x="532" y="1225"/>
      <point x="420" y="1170"/>
      <point x="333" y="1170" type="curve" smooth="yes"/>
      <point x="252" y="1170"/>
      <point x="137" y="1226"/>
      <point x="76" y="1329" type="curve"/>
      <point x="56" y="1320"/>
      <point x="14" y="1282"/>
      <point x="0" y="1260" type="curve"/>
      <point x="73" y="1062"/>
      <point x="198" y="975"/>
      <point x="337" y="975" type="curve" smooth="yes"/>
      <point x="466" y="975"/>
    </contour>
  </outline>
</glyph>
<glyph name="dotaccent" format="2">
  <advance width="368"/>
  <unicode hex="02D9"/>
  <outline>
    <contour>
      <point x="322" y="1071"/>
      <point x="322" y="1168" type="curve" smooth="yes"/>
      <point x="322" y="1248"/>
      <point x="276" y="1288"/>
      <point x="202" y="1288" type="curve" smooth="yes"/>
      <point x="121" y="1288"/>
      <point x="46" y="1210"/>
      <point x="46" y="1113" type="curve" smooth="yes"/>
      <point x="46" y="1035"/>
      <point x="89" y="993"/>
      <point x="165" y="993" type="curve" smooth="yes"/>
      <point x="250" y="993"/>
    </contour>
  </outline>
</glyph>
<glyph name="ring" format="2">
  <advance width="471"/>
  <unicode hex="02DA"/>
  <outline>
    <contour>
      <point x="434" y="1047"/>
      <point x="434" y="1181" type="curve"/>
      <point x="433" y="1283"/>
      <point x="370" y="1352"/>
      <point x="264" y="1352" type="curve" smooth="yes"/>
      <point x="141" y="1352"/>
      <point x="36" y="1242"/>
      <point x="36" y="1107" type="curve" smooth="yes"/>
      <point x="36" y="1002"/>
      <point x="105" y="938"/>
      <point x="207" y="938" type="curve" smooth="yes"/>
      <point x="327" y="938"/>
    </contour>
    <contour>
      <point x="296" y="1202"/>
      <point x="296" y="1143" type="curve" smooth="yes"/>
      <point x="296" y="1101"/>
      <point x="275" y="1063"/>
      <point x="226" y="1063" type="curve" smooth="yes"/>
      <point x="205" y="1063"/>
      <point x="174" y="1089"/>
      <point x="174" y="1145" type="curve" smooth="yes"/>
      <point x="174" y="1183"/>
      <point x="194" y="1227"/>
      <point x="244" y="1227" type="curve" smooth="yes"/>
      <point x="265" y="1227"/>
    </contour>
  </outline>
</glyph>
<glyph name="tilde" format="2">
  <advance width="756"/>
  <unicode hex="02DC"/>
  <outline>
    <contour>
      <point x="713" y="1176"/>
      <point x="756" y="1276" type="curve"/>
      <point x="678" y="1306" type="line"/>
      <point x="637" y="1234"/>
      <point x="601" y="1202"/>
      <point x="545" y="1202" type="curve" smooth="yes"/>
      <point x="459" y="1202"/>
      <point x="368" y="1297"/>
      <point x="247" y="1297" type="curve" smooth="yes"/>
      <point x="129" y="1297"/>
      <point x="43" y="1121"/>
      <point x="0" y="1021" type="curve"/>
      <point x="76" y="993" type="line"/>
      <point x="121" y="1061"/>
      <point x="149" y="1097"/>
      <point x="207" y="1097" type="curve" smooth="yes"/>
      <point x="307" y="1097"/>
      <point x="395" y="1002"/>
      <point x="507" y="1002" type="curve" smooth="yes"/>
      <point x="626" y="1002"/>
    </contour>
  </outline>
</glyph>
<glyph name="hungarumlaut" format="2">
  <advance width="706"/>
  <unicode hex="02DD"/>
  <outline>
    <contour>
      <point x="429" y="954" type="curve"/>
      <point x="678" y="1309" type="line"/>
      <point x="648" y="1365" type="line"/>
      <point x="623" y="1374"/>
      <point x="505" y="1384"/>
      <point x="474" y="1388" type="curve"/>
      <point x="340" y="997" type="line"/>
      <point x="364" y="982"/>
      <point x="409" y="958"/>
    </contour>
    <contour>
      <point x="126" y="954" type="curve"/>
      <point x="374" y="1309" type="line"/>
      <point x="345" y="1365" type="line"/>
      <point x="320" y="1374"/>
      <point x="201" y="1384"/>
      <point x="171" y="1388" type="curve"/>
      <point x="36" y="997" type="line"/>
      <point x="60" y="982"/>
      <point x="105" y="958"/>
    </contour>
  </outline>
</glyph>
<glyph name="pi" format="2">
  <advance width="1115"/>
  <unicode hex="03C0"/>
  <anchor x="570" y="-92" name="L"/>
  <anchor x="570" y="966" name="U"/>
  <outline>
    <contour>
      <point x="872" y="655" type="curve" smooth="yes"/>
      <point x="948" y="655"/>
      <point x="1034" y="723"/>
      <point x="1106" y="828" type="curve"/>
      <point x="1062" y="883" type="line"/>
      <point x="1024" y="856"/>
      <point x="980" y="855"/>
      <point x="929" y="855" type="curve" smooth="yes"/>
      <point x="763" y="855"/>
      <point x="552" y="855"/>
      <point x="273" y="855" type="curve" smooth="yes"/>
      <point x="182" y="855"/>
      <point x="89" y="781"/>
      <point x="9" y="667" type="curve"/>
      <point x="53" y="607" type="line"/>
      <point x="122" y="655"/>
      <point x="163" y="665"/>
      <point x="241" y="665" type="curve" smooth="yes"/>
      <point x="483" y="665"/>
      <point x="657" y="655"/>
    </contour>
    <contour>
      <point x="796" y="-27" type="curve" smooth="yes"/>
      <point x="851" y="-27"/>
      <point x="969" y="14"/>
      <point x="1104" y="110" type="curve"/>
      <point x="1075" y="178" type="line"/>
      <point x="1011" y="155"/>
      <point x="972" y="149"/>
      <point x="935" y="149" type="curve" smooth="yes"/>
      <point x="878" y="149"/>
      <point x="845" y="223"/>
      <point x="845" y="420" type="curve" smooth="yes"/>
      <point x="845" y="472"/>
      <point x="850" y="582"/>
      <point x="855" y="700" type="curve"/>
      <point x="675" y="690" type="line"/>
      <point x="652" y="492"/>
      <point x="641" y="312"/>
      <point x="641" y="227" type="curve" smooth="yes"/>
      <point x="641" y="58"/>
      <point x="696" y="-27"/>
    </contour>
    <contour>
      <point x="443" y="303" type="curve" smooth="yes"/>
      <point x="443" y="410"/>
      <point x="453" y="584"/>
      <point x="471" y="744" type="curve"/>
      <point x="471" y="744"/>
      <point x="312" y="733"/>
      <point x="285" y="722" type="curve"/>
      <point x="239" y="230"/>
      <point x="201" y="162"/>
      <point x="96" y="14" type="curve"/>
      <point x="96" y="14"/>
      <point x="126" y="-19"/>
      <point x="132" y="-27" type="curve"/>
      <point x="224" y="-11"/>
      <point x="387" y="51"/>
      <point x="457" y="92" type="curve"/>
      <point x="444" y="159"/>
      <point x="443" y="216"/>
    </contour>
  </outline>
</glyph>
<glyph name="uni1980" format="2">
  <advance width="1686"/>
  <unicode hex="1980"/>
  <outline>
    <contour>
      <point x="1149" y="-610" type="curve" smooth="yes"/>
      <point x="1441" y="-610"/>
      <point x="1638" y="-504"/>
      <point x="1638" y="-275" type="curve" smooth="yes"/>
      <point x="1638" y="-89"/>
      <point x="1437" y="25"/>
      <point x="1299" y="42" type="curve"/>
      <point x="1470" y="101"/>
      <point x="1595" y="238"/>
      <point x="1595" y="468" type="curve" smooth="yes"/>
      <point x="1595" y="812"/>
      <point x="1397" y="968"/>
      <point x="1113" y="968" type="curve" smooth="yes"/>
      <point x="980" y="968"/>
      <point x="874" y="898"/>
      <point x="793" y="790" type="curve"/>
      <point x="734" y="895"/>
      <point x="627" y="968"/>
      <point x="450" y="968" type="curve" smooth="yes"/>
      <point x="296" y="968"/>
      <point x="174" y="912"/>
      <point x="87" y="786" type="curve" smooth="yes"/>
      <point x="75" y="769"/>
      <point x="80" y="744"/>
      <point x="171" y="707" type="curve" smooth="yes"/>
      <point x="252" y="674"/>
      <point x="289" y="679"/>
      <point x="295" y="702" type="curve" smooth="yes"/>
      <point x="324" y="821"/>
      <point x="371" y="908"/>
      <point x="452" y="908" type="curve" smooth="yes"/>
      <point x="571" y="908"/>
      <point x="626" y="784"/>
      <point x="626" y="478" type="curve" smooth="yes"/>
      <point x="626" y="182"/>
      <point x="568" y="43"/>
      <point x="446" y="43" type="curve" smooth="yes"/>
      <point x="365" y="43"/>
      <point x="311" y="142"/>
      <point x="295" y="269" type="curve" smooth="yes"/>
      <point x="293" y="284"/>
      <point x="260" y="304"/>
      <point x="168" y="275" type="curve" smooth="yes"/>
      <point x="88" y="250"/>
      <point x="71" y="226"/>
      <point x="85" y="198" type="curve" smooth="yes"/>
      <point x="131" y="107"/>
      <point x="237" y="-17"/>
      <point x="463" y="-17" type="curve" smooth="yes"/>
      <point x="733" y="-17"/>
      <point x="899" y="126"/>
      <point x="899" y="478" type="curve" smooth="yes"/>
      <point x="899" y="523"/>
      <point x="895" y="566"/>
      <point x="889" y="605" type="curve"/>
      <point x="927" y="786"/>
      <point x="1018" y="908"/>
      <point x="1104" y="908" type="curve" smooth="yes"/>
      <point x="1207" y="908"/>
      <point x="1322" y="809"/>
      <point x="1322" y="468" type="curve" smooth="yes" name="hr01"/>
      <point x="1322" y="168"/>
      <point x="1216" y="100"/>
      <point x="1186" y="88" type="curve" smooth="yes"/>
      <point x="1147" y="73"/>
      <point x="1057" y="72"/>
      <point x="1025" y="66" type="curve" smooth="yes"/>
      <point x="1013" y="64"/>
      <point x="1007" y="53"/>
      <point x="1019" y="7" type="curve" smooth="yes"/>
      <point x="1032" y="-42"/>
      <point x="1037" y="-47"/>
      <point x="1048" y="-44" type="curve" smooth="yes"/>
      <point x="1081" y="-34"/>
      <point x="1133" y="-10"/>
      <point x="1187" y="-10" type="curve" smooth="yes"/>
      <point x="1275" y="-10"/>
      <point x="1428" y="-101"/>
      <point x="1428" y="-234" type="curve" smooth="yes"/>
      <point x="1428" y="-372"/>
      <point x="1273" y="-484"/>
      <point x="1092" y="-484" type="curve" smooth="yes"/>
      <point x="953" y="-484"/>
      <point x="836" y="-424"/>
      <point x="796" y="-381" type="curve" smooth="yes"/>
      <point x="771" y="-354"/>
      <point x="757" y="-341"/>
      <point x="748" y="-353" type="curve" smooth="yes"/>
      <point x="741" y="-363"/>
      <point x="742" y="-370"/>
      <point x="784" y="-424" type="curve" smooth="yes"/>
      <point x="865" y="-528"/>
      <point x="1014" y="-610"/>
    </contour>
  </outline>
</glyph>
